ISO-10303-21;
HEADER;
/* Generated by software containing ST-Developer
 * from STEP Tools, Inc. (www.steptools.com) 
 */

FILE_DESCRIPTION(
/* description */ ('KiCad electronic assembly'),
/* implementation_level */ '2;1');

FILE_NAME(
/* name */ 'Case_Top.step',
/* time_stamp */ '2026-09-01T17:13:57-04:00',
/* author */ (''),
/* organization */ (''),
/* preprocessor_version */ 'ST-DEVELOPER v20.1',
/* originating_system */ 'Autodesk Translation Framework v15.8.0.0',
/* authorisation */ '');

FILE_SCHEMA (('AUTOMOTIVE_DESIGN { 1 0 10303 214 3 1 1 }'));
ENDSEC;

DATA;
#10=MECHANICAL_DESIGN_GEOMETRIC_PRESENTATION_REPRESENTATION('',(#13),#1776);
#11=SHAPE_REPRESENTATION_RELATIONSHIP('SRR','None',#1782,#12);
#12=ADVANCED_BREP_SHAPE_REPRESENTATION('',(#14),#1775);
#13=STYLED_ITEM('',(#1793),#14);
#14=MANIFOLD_SOLID_BREP('Body1',#1112);
#15=FACE_BOUND('',#151,.T.);
#16=FACE_BOUND('',#152,.T.);
#17=FACE_BOUND('',#153,.T.);
#18=FACE_BOUND('',#162,.T.);
#19=FACE_BOUND('',#176,.T.);
#20=FACE_BOUND('',#178,.T.);
#21=FACE_BOUND('',#179,.T.);
#22=FACE_BOUND('',#180,.T.);
#23=FACE_BOUND('',#182,.T.);
#24=FACE_BOUND('',#189,.T.);
#25=FACE_BOUND('',#192,.T.);
#26=FACE_BOUND('',#196,.T.);
#27=PLANE('',#1117);
#28=PLANE('',#1118);
#29=PLANE('',#1119);
#30=PLANE('',#1120);
#31=PLANE('',#1124);
#32=PLANE('',#1125);
#33=PLANE('',#1126);
#34=PLANE('',#1127);
#35=PLANE('',#1128);
#36=PLANE('',#1132);
#37=PLANE('',#1136);
#38=PLANE('',#1140);
#39=PLANE('',#1144);
#40=PLANE('',#1145);
#41=PLANE('',#1146);
#42=PLANE('',#1148);
#43=PLANE('',#1149);
#44=PLANE('',#1150);
#45=PLANE('',#1151);
#46=PLANE('',#1152);
#47=PLANE('',#1153);
#48=PLANE('',#1154);
#49=PLANE('',#1155);
#50=PLANE('',#1156);
#51=PLANE('',#1157);
#52=PLANE('',#1158);
#53=PLANE('',#1159);
#54=PLANE('',#1160);
#55=PLANE('',#1161);
#56=PLANE('',#1162);
#57=PLANE('',#1163);
#58=PLANE('',#1164);
#59=PLANE('',#1165);
#60=PLANE('',#1166);
#61=PLANE('',#1167);
#62=PLANE('',#1168);
#63=PLANE('',#1169);
#64=PLANE('',#1171);
#65=PLANE('',#1173);
#66=PLANE('',#1174);
#67=PLANE('',#1175);
#68=PLANE('',#1176);
#69=PLANE('',#1177);
#70=PLANE('',#1178);
#71=PLANE('',#1179);
#72=PLANE('',#1180);
#73=PLANE('',#1181);
#74=PLANE('',#1182);
#75=FACE_OUTER_BOUND('',#130,.T.);
#76=FACE_OUTER_BOUND('',#131,.T.);
#77=FACE_OUTER_BOUND('',#132,.T.);
#78=FACE_OUTER_BOUND('',#133,.T.);
#79=FACE_OUTER_BOUND('',#134,.T.);
#80=FACE_OUTER_BOUND('',#135,.T.);
#81=FACE_OUTER_BOUND('',#136,.T.);
#82=FACE_OUTER_BOUND('',#137,.T.);
#83=FACE_OUTER_BOUND('',#138,.T.);
#84=FACE_OUTER_BOUND('',#139,.T.);
#85=FACE_OUTER_BOUND('',#140,.T.);
#86=FACE_OUTER_BOUND('',#141,.T.);
#87=FACE_OUTER_BOUND('',#142,.T.);
#88=FACE_OUTER_BOUND('',#143,.T.);
#89=FACE_OUTER_BOUND('',#144,.T.);
#90=FACE_OUTER_BOUND('',#145,.T.);
#91=FACE_OUTER_BOUND('',#146,.T.);
#92=FACE_OUTER_BOUND('',#147,.T.);
#93=FACE_OUTER_BOUND('',#148,.T.);
#94=FACE_OUTER_BOUND('',#149,.T.);
#95=FACE_OUTER_BOUND('',#150,.T.);
#96=FACE_OUTER_BOUND('',#154,.T.);
#97=FACE_OUTER_BOUND('',#155,.T.);
#98=FACE_OUTER_BOUND('',#156,.T.);
#99=FACE_OUTER_BOUND('',#157,.T.);
#100=FACE_OUTER_BOUND('',#158,.T.);
#101=FACE_OUTER_BOUND('',#159,.T.);
#102=FACE_OUTER_BOUND('',#160,.T.);
#103=FACE_OUTER_BOUND('',#161,.T.);
#104=FACE_OUTER_BOUND('',#163,.T.);
#105=FACE_OUTER_BOUND('',#164,.T.);
#106=FACE_OUTER_BOUND('',#165,.T.);
#107=FACE_OUTER_BOUND('',#166,.T.);
#108=FACE_OUTER_BOUND('',#167,.T.);
#109=FACE_OUTER_BOUND('',#168,.T.);
#110=FACE_OUTER_BOUND('',#169,.T.);
#111=FACE_OUTER_BOUND('',#170,.T.);
#112=FACE_OUTER_BOUND('',#171,.T.);
#113=FACE_OUTER_BOUND('',#172,.T.);
#114=FACE_OUTER_BOUND('',#173,.T.);
#115=FACE_OUTER_BOUND('',#174,.T.);
#116=FACE_OUTER_BOUND('',#175,.T.);
#117=FACE_OUTER_BOUND('',#177,.T.);
#118=FACE_OUTER_BOUND('',#181,.T.);
#119=FACE_OUTER_BOUND('',#183,.T.);
#120=FACE_OUTER_BOUND('',#184,.T.);
#121=FACE_OUTER_BOUND('',#185,.T.);
#122=FACE_OUTER_BOUND('',#186,.T.);
#123=FACE_OUTER_BOUND('',#187,.T.);
#124=FACE_OUTER_BOUND('',#188,.T.);
#125=FACE_OUTER_BOUND('',#190,.T.);
#126=FACE_OUTER_BOUND('',#191,.T.);
#127=FACE_OUTER_BOUND('',#193,.T.);
#128=FACE_OUTER_BOUND('',#194,.T.);
#129=FACE_OUTER_BOUND('',#195,.T.);
#130=EDGE_LOOP('',(#744,#745,#746,#747));
#131=EDGE_LOOP('',(#748,#749,#750,#751));
#132=EDGE_LOOP('',(#752,#753,#754,#755,#756));
#133=EDGE_LOOP('',(#757,#758,#759,#760));
#134=EDGE_LOOP('',(#761,#762,#763,#764,#765));
#135=EDGE_LOOP('',(#766,#767,#768,#769));
#136=EDGE_LOOP('',(#770,#771,#772,#773));
#137=EDGE_LOOP('',(#774,#775,#776,#777,#778));
#138=EDGE_LOOP('',(#779,#780,#781,#782));
#139=EDGE_LOOP('',(#783,#784,#785,#786,#787));
#140=EDGE_LOOP('',(#788,#789,#790,#791,#792,#793,#794,#795,#796,#797,#798,
#799));
#141=EDGE_LOOP('',(#800,#801,#802,#803));
#142=EDGE_LOOP('',(#804,#805,#806,#807));
#143=EDGE_LOOP('',(#808,#809,#810,#811));
#144=EDGE_LOOP('',(#812,#813,#814,#815));
#145=EDGE_LOOP('',(#816,#817,#818,#819));
#146=EDGE_LOOP('',(#820,#821,#822,#823));
#147=EDGE_LOOP('',(#824,#825,#826,#827));
#148=EDGE_LOOP('',(#828,#829,#830,#831,#832));
#149=EDGE_LOOP('',(#833,#834,#835,#836));
#150=EDGE_LOOP('',(#837,#838,#839,#840,#841,#842,#843,#844));
#151=EDGE_LOOP('',(#845,#846,#847,#848));
#152=EDGE_LOOP('',(#849,#850,#851,#852));
#153=EDGE_LOOP('',(#853));
#154=EDGE_LOOP('',(#854,#855,#856,#857));
#155=EDGE_LOOP('',(#858,#859,#860,#861,#862));
#156=EDGE_LOOP('',(#863,#864,#865,#866));
#157=EDGE_LOOP('',(#867,#868,#869,#870,#871));
#158=EDGE_LOOP('',(#872,#873,#874,#875));
#159=EDGE_LOOP('',(#876,#877,#878,#879,#880));
#160=EDGE_LOOP('',(#881,#882,#883,#884,#885,#886,#887,#888,#889,#890,#891,
#892,#893,#894));
#161=EDGE_LOOP('',(#895,#896,#897,#898,#899,#900));
#162=EDGE_LOOP('',(#901,#902,#903,#904));
#163=EDGE_LOOP('',(#905,#906,#907,#908));
#164=EDGE_LOOP('',(#909,#910,#911,#912));
#165=EDGE_LOOP('',(#913,#914,#915,#916));
#166=EDGE_LOOP('',(#917,#918,#919,#920));
#167=EDGE_LOOP('',(#921,#922,#923,#924));
#168=EDGE_LOOP('',(#925,#926,#927,#928));
#169=EDGE_LOOP('',(#929,#930,#931,#932));
#170=EDGE_LOOP('',(#933,#934,#935,#936));
#171=EDGE_LOOP('',(#937,#938,#939,#940));
#172=EDGE_LOOP('',(#941,#942,#943,#944));
#173=EDGE_LOOP('',(#945,#946,#947,#948));
#174=EDGE_LOOP('',(#949,#950,#951,#952));
#175=EDGE_LOOP('',(#953,#954,#955,#956));
#176=EDGE_LOOP('',(#957,#958,#959,#960));
#177=EDGE_LOOP('',(#961,#962,#963,#964));
#178=EDGE_LOOP('',(#965,#966,#967,#968));
#179=EDGE_LOOP('',(#969));
#180=EDGE_LOOP('',(#970,#971,#972,#973));
#181=EDGE_LOOP('',(#974,#975,#976,#977));
#182=EDGE_LOOP('',(#978,#979,#980,#981));
#183=EDGE_LOOP('',(#982,#983,#984,#985));
#184=EDGE_LOOP('',(#986,#987,#988,#989));
#185=EDGE_LOOP('',(#990,#991,#992,#993));
#186=EDGE_LOOP('',(#994,#995,#996,#997));
#187=EDGE_LOOP('',(#998,#999,#1000,#1001));
#188=EDGE_LOOP('',(#1002,#1003,#1004,#1005));
#189=EDGE_LOOP('',(#1006,#1007,#1008,#1009));
#190=EDGE_LOOP('',(#1010,#1011,#1012,#1013,#1014,#1015,#1016,#1017,#1018,
#1019,#1020,#1021));
#191=EDGE_LOOP('',(#1022,#1023,#1024,#1025));
#192=EDGE_LOOP('',(#1026,#1027,#1028,#1029));
#193=EDGE_LOOP('',(#1030,#1031,#1032,#1033));
#194=EDGE_LOOP('',(#1034,#1035,#1036,#1037,#1038,#1039));
#195=EDGE_LOOP('',(#1040,#1041,#1042,#1043,#1044,#1045));
#196=EDGE_LOOP('',(#1046,#1047,#1048,#1049));
#197=LINE('',#1468,#336);
#198=LINE('',#1471,#337);
#199=LINE('',#1474,#338);
#200=LINE('',#1476,#339);
#201=LINE('',#1477,#340);
#202=LINE('',#1480,#341);
#203=LINE('',#1482,#342);
#204=LINE('',#1483,#343);
#205=LINE('',#1486,#344);
#206=LINE('',#1488,#345);
#207=LINE('',#1489,#346);
#208=LINE('',#1491,#347);
#209=LINE('',#1492,#348);
#210=LINE('',#1498,#349);
#211=LINE('',#1501,#350);
#212=LINE('',#1504,#351);
#213=LINE('',#1506,#352);
#214=LINE('',#1507,#353);
#215=LINE('',#1510,#354);
#216=LINE('',#1512,#355);
#217=LINE('',#1513,#356);
#218=LINE('',#1516,#357);
#219=LINE('',#1518,#358);
#220=LINE('',#1519,#359);
#221=LINE('',#1521,#360);
#222=LINE('',#1522,#361);
#223=LINE('',#1526,#362);
#224=LINE('',#1528,#363);
#225=LINE('',#1530,#364);
#226=LINE('',#1532,#365);
#227=LINE('',#1534,#366);
#228=LINE('',#1536,#367);
#229=LINE('',#1538,#368);
#230=LINE('',#1540,#369);
#231=LINE('',#1542,#370);
#232=LINE('',#1544,#371);
#233=LINE('',#1546,#372);
#234=LINE('',#1547,#373);
#235=LINE('',#1553,#374);
#236=LINE('',#1556,#375);
#237=LINE('',#1559,#376);
#238=LINE('',#1561,#377);
#239=LINE('',#1562,#378);
#240=LINE('',#1568,#379);
#241=LINE('',#1570,#380);
#242=LINE('',#1571,#381);
#243=LINE('',#1577,#382);
#244=LINE('',#1580,#383);
#245=LINE('',#1582,#384);
#246=LINE('',#1583,#385);
#247=LINE('',#1590,#386);
#248=LINE('',#1592,#387);
#249=LINE('',#1594,#388);
#250=LINE('',#1596,#389);
#251=LINE('',#1597,#390);
#252=LINE('',#1600,#391);
#253=LINE('',#1602,#392);
#254=LINE('',#1603,#393);
#255=LINE('',#1606,#394);
#256=LINE('',#1608,#395);
#257=LINE('',#1610,#396);
#258=LINE('',#1612,#397);
#259=LINE('',#1614,#398);
#260=LINE('',#1615,#399);
#261=LINE('',#1618,#400);
#262=LINE('',#1620,#401);
#263=LINE('',#1622,#402);
#264=LINE('',#1623,#403);
#265=LINE('',#1626,#404);
#266=LINE('',#1628,#405);
#267=LINE('',#1630,#406);
#268=LINE('',#1631,#407);
#269=LINE('',#1636,#408);
#270=LINE('',#1637,#409);
#271=LINE('',#1641,#410);
#272=LINE('',#1642,#411);
#273=LINE('',#1643,#412);
#274=LINE('',#1646,#413);
#275=LINE('',#1647,#414);
#276=LINE('',#1651,#415);
#277=LINE('',#1652,#416);
#278=LINE('',#1653,#417);
#279=LINE('',#1656,#418);
#280=LINE('',#1657,#419);
#281=LINE('',#1660,#420);
#282=LINE('',#1661,#421);
#283=LINE('',#1663,#422);
#284=LINE('',#1664,#423);
#285=LINE('',#1666,#424);
#286=LINE('',#1669,#425);
#287=LINE('',#1671,#426);
#288=LINE('',#1672,#427);
#289=LINE('',#1675,#428);
#290=LINE('',#1676,#429);
#291=LINE('',#1679,#430);
#292=LINE('',#1680,#431);
#293=LINE('',#1682,#432);
#294=LINE('',#1686,#433);
#295=LINE('',#1688,#434);
#296=LINE('',#1690,#435);
#297=LINE('',#1691,#436);
#298=LINE('',#1694,#437);
#299=LINE('',#1696,#438);
#300=LINE('',#1697,#439);
#301=LINE('',#1700,#440);
#302=LINE('',#1702,#441);
#303=LINE('',#1703,#442);
#304=LINE('',#1705,#443);
#305=LINE('',#1706,#444);
#306=LINE('',#1710,#445);
#307=LINE('',#1712,#446);
#308=LINE('',#1714,#447);
#309=LINE('',#1715,#448);
#310=LINE('',#1718,#449);
#311=LINE('',#1720,#450);
#312=LINE('',#1721,#451);
#313=LINE('',#1724,#452);
#314=LINE('',#1726,#453);
#315=LINE('',#1727,#454);
#316=LINE('',#1729,#455);
#317=LINE('',#1730,#456);
#318=LINE('',#1735,#457);
#319=LINE('',#1737,#458);
#320=LINE('',#1739,#459);
#321=LINE('',#1740,#460);
#322=LINE('',#1743,#461);
#323=LINE('',#1745,#462);
#324=LINE('',#1747,#463);
#325=LINE('',#1748,#464);
#326=LINE('',#1753,#465);
#327=LINE('',#1755,#466);
#328=LINE('',#1756,#467);
#329=LINE('',#1758,#468);
#330=LINE('',#1760,#469);
#331=LINE('',#1763,#470);
#332=LINE('',#1764,#471);
#333=LINE('',#1766,#472);
#334=LINE('',#1768,#473);
#335=LINE('',#1771,#474);
#336=VECTOR('',#1189,10.);
#337=VECTOR('',#1192,10.);
#338=VECTOR('',#1195,10.);
#339=VECTOR('',#1196,10.);
#340=VECTOR('',#1197,10.);
#341=VECTOR('',#1200,10.);
#342=VECTOR('',#1201,10.);
#343=VECTOR('',#1202,10.);
#344=VECTOR('',#1205,10.);
#345=VECTOR('',#1206,10.);
#346=VECTOR('',#1207,10.);
#347=VECTOR('',#1210,10.);
#348=VECTOR('',#1211,10.);
#349=VECTOR('',#1216,10.);
#350=VECTOR('',#1219,10.);
#351=VECTOR('',#1222,10.);
#352=VECTOR('',#1223,10.);
#353=VECTOR('',#1224,10.);
#354=VECTOR('',#1227,10.);
#355=VECTOR('',#1228,10.);
#356=VECTOR('',#1229,10.);
#357=VECTOR('',#1232,10.);
#358=VECTOR('',#1233,10.);
#359=VECTOR('',#1234,10.);
#360=VECTOR('',#1237,10.);
#361=VECTOR('',#1238,10.);
#362=VECTOR('',#1241,10.);
#363=VECTOR('',#1242,10.);
#364=VECTOR('',#1243,10.);
#365=VECTOR('',#1244,10.);
#366=VECTOR('',#1245,10.);
#367=VECTOR('',#1246,10.);
#368=VECTOR('',#1247,10.);
#369=VECTOR('',#1248,10.);
#370=VECTOR('',#1249,10.);
#371=VECTOR('',#1250,10.);
#372=VECTOR('',#1251,10.);
#373=VECTOR('',#1252,10.);
#374=VECTOR('',#1257,10.);
#375=VECTOR('',#1260,10.);
#376=VECTOR('',#1263,10.);
#377=VECTOR('',#1264,10.);
#378=VECTOR('',#1265,10.);
#379=VECTOR('',#1274,10.);
#380=VECTOR('',#1275,10.);
#381=VECTOR('',#1276,10.);
#382=VECTOR('',#1283,10.);
#383=VECTOR('',#1286,10.);
#384=VECTOR('',#1287,10.);
#385=VECTOR('',#1288,10.);
#386=VECTOR('',#1297,10.);
#387=VECTOR('',#1298,10.);
#388=VECTOR('',#1299,10.);
#389=VECTOR('',#1300,10.);
#390=VECTOR('',#1301,10.);
#391=VECTOR('',#1304,10.);
#392=VECTOR('',#1305,10.);
#393=VECTOR('',#1306,10.);
#394=VECTOR('',#1309,10.);
#395=VECTOR('',#1310,10.);
#396=VECTOR('',#1311,10.);
#397=VECTOR('',#1312,10.);
#398=VECTOR('',#1313,10.);
#399=VECTOR('',#1314,10.);
#400=VECTOR('',#1315,10.);
#401=VECTOR('',#1316,10.);
#402=VECTOR('',#1317,10.);
#403=VECTOR('',#1318,10.);
#404=VECTOR('',#1319,10.);
#405=VECTOR('',#1320,10.);
#406=VECTOR('',#1321,10.);
#407=VECTOR('',#1322,10.);
#408=VECTOR('',#1327,10.);
#409=VECTOR('',#1328,10.);
#410=VECTOR('',#1331,10.);
#411=VECTOR('',#1332,10.);
#412=VECTOR('',#1333,10.);
#413=VECTOR('',#1336,10.);
#414=VECTOR('',#1337,10.);
#415=VECTOR('',#1340,10.);
#416=VECTOR('',#1341,10.);
#417=VECTOR('',#1342,10.);
#418=VECTOR('',#1345,10.);
#419=VECTOR('',#1346,10.);
#420=VECTOR('',#1349,10.);
#421=VECTOR('',#1350,10.);
#422=VECTOR('',#1353,10.);
#423=VECTOR('',#1354,10.);
#424=VECTOR('',#1357,10.);
#425=VECTOR('',#1360,10.);
#426=VECTOR('',#1361,10.);
#427=VECTOR('',#1362,10.);
#428=VECTOR('',#1365,10.);
#429=VECTOR('',#1366,10.);
#430=VECTOR('',#1369,10.);
#431=VECTOR('',#1370,10.);
#432=VECTOR('',#1373,10.);
#433=VECTOR('',#1376,10.);
#434=VECTOR('',#1377,10.);
#435=VECTOR('',#1378,10.);
#436=VECTOR('',#1379,10.);
#437=VECTOR('',#1382,10.);
#438=VECTOR('',#1383,10.);
#439=VECTOR('',#1384,10.);
#440=VECTOR('',#1387,10.);
#441=VECTOR('',#1388,10.);
#442=VECTOR('',#1389,10.);
#443=VECTOR('',#1392,10.);
#444=VECTOR('',#1393,10.);
#445=VECTOR('',#1396,10.);
#446=VECTOR('',#1397,10.);
#447=VECTOR('',#1398,10.);
#448=VECTOR('',#1399,10.);
#449=VECTOR('',#1402,10.);
#450=VECTOR('',#1403,10.);
#451=VECTOR('',#1404,10.);
#452=VECTOR('',#1407,10.);
#453=VECTOR('',#1408,10.);
#454=VECTOR('',#1409,10.);
#455=VECTOR('',#1412,10.);
#456=VECTOR('',#1413,10.);
#457=VECTOR('',#1418,10.);
#458=VECTOR('',#1419,10.);
#459=VECTOR('',#1420,10.);
#460=VECTOR('',#1421,10.);
#461=VECTOR('',#1422,10.);
#462=VECTOR('',#1423,10.);
#463=VECTOR('',#1424,10.);
#464=VECTOR('',#1425,10.);
#465=VECTOR('',#1432,8.00000000000001);
#466=VECTOR('',#1435,10.);
#467=VECTOR('',#1436,10.);
#468=VECTOR('',#1439,10.);
#469=VECTOR('',#1442,10.);
#470=VECTOR('',#1447,10.);
#471=VECTOR('',#1448,10.);
#472=VECTOR('',#1451,10.);
#473=VECTOR('',#1454,10.);
#474=VECTOR('',#1459,10.);
#475=CIRCLE('',#1115,0.5);
#476=CIRCLE('',#1116,0.5);
#477=CIRCLE('',#1122,0.5);
#478=CIRCLE('',#1123,0.5);
#479=CIRCLE('',#1130,1.50000000000002);
#480=CIRCLE('',#1131,1.50000000000002);
#481=CIRCLE('',#1134,1.50000000000002);
#482=CIRCLE('',#1135,1.50000000000002);
#483=CIRCLE('',#1138,1.50000000000002);
#484=CIRCLE('',#1139,1.50000000000002);
#485=CIRCLE('',#1142,1.50000000000002);
#486=CIRCLE('',#1143,1.50000000000002);
#487=CIRCLE('',#1147,8.00000000000001);
#488=CIRCLE('',#1170,8.00000000000001);
#489=VERTEX_POINT('',#1464);
#490=VERTEX_POINT('',#1465);
#491=VERTEX_POINT('',#1467);
#492=VERTEX_POINT('',#1469);
#493=VERTEX_POINT('',#1473);
#494=VERTEX_POINT('',#1475);
#495=VERTEX_POINT('',#1479);
#496=VERTEX_POINT('',#1481);
#497=VERTEX_POINT('',#1485);
#498=VERTEX_POINT('',#1487);
#499=VERTEX_POINT('',#1494);
#500=VERTEX_POINT('',#1495);
#501=VERTEX_POINT('',#1497);
#502=VERTEX_POINT('',#1499);
#503=VERTEX_POINT('',#1503);
#504=VERTEX_POINT('',#1505);
#505=VERTEX_POINT('',#1509);
#506=VERTEX_POINT('',#1511);
#507=VERTEX_POINT('',#1515);
#508=VERTEX_POINT('',#1517);
#509=VERTEX_POINT('',#1524);
#510=VERTEX_POINT('',#1525);
#511=VERTEX_POINT('',#1527);
#512=VERTEX_POINT('',#1529);
#513=VERTEX_POINT('',#1531);
#514=VERTEX_POINT('',#1533);
#515=VERTEX_POINT('',#1535);
#516=VERTEX_POINT('',#1537);
#517=VERTEX_POINT('',#1539);
#518=VERTEX_POINT('',#1541);
#519=VERTEX_POINT('',#1543);
#520=VERTEX_POINT('',#1545);
#521=VERTEX_POINT('',#1549);
#522=VERTEX_POINT('',#1550);
#523=VERTEX_POINT('',#1552);
#524=VERTEX_POINT('',#1554);
#525=VERTEX_POINT('',#1558);
#526=VERTEX_POINT('',#1560);
#527=VERTEX_POINT('',#1567);
#528=VERTEX_POINT('',#1569);
#529=VERTEX_POINT('',#1573);
#530=VERTEX_POINT('',#1575);
#531=VERTEX_POINT('',#1579);
#532=VERTEX_POINT('',#1581);
#533=VERTEX_POINT('',#1588);
#534=VERTEX_POINT('',#1589);
#535=VERTEX_POINT('',#1591);
#536=VERTEX_POINT('',#1593);
#537=VERTEX_POINT('',#1595);
#538=VERTEX_POINT('',#1599);
#539=VERTEX_POINT('',#1601);
#540=VERTEX_POINT('',#1605);
#541=VERTEX_POINT('',#1607);
#542=VERTEX_POINT('',#1609);
#543=VERTEX_POINT('',#1611);
#544=VERTEX_POINT('',#1613);
#545=VERTEX_POINT('',#1616);
#546=VERTEX_POINT('',#1617);
#547=VERTEX_POINT('',#1619);
#548=VERTEX_POINT('',#1621);
#549=VERTEX_POINT('',#1624);
#550=VERTEX_POINT('',#1625);
#551=VERTEX_POINT('',#1627);
#552=VERTEX_POINT('',#1629);
#553=VERTEX_POINT('',#1632);
#554=VERTEX_POINT('',#1635);
#555=VERTEX_POINT('',#1639);
#556=VERTEX_POINT('',#1640);
#557=VERTEX_POINT('',#1645);
#558=VERTEX_POINT('',#1649);
#559=VERTEX_POINT('',#1650);
#560=VERTEX_POINT('',#1655);
#561=VERTEX_POINT('',#1659);
#562=VERTEX_POINT('',#1668);
#563=VERTEX_POINT('',#1670);
#564=VERTEX_POINT('',#1674);
#565=VERTEX_POINT('',#1678);
#566=VERTEX_POINT('',#1684);
#567=VERTEX_POINT('',#1685);
#568=VERTEX_POINT('',#1687);
#569=VERTEX_POINT('',#1689);
#570=VERTEX_POINT('',#1693);
#571=VERTEX_POINT('',#1695);
#572=VERTEX_POINT('',#1699);
#573=VERTEX_POINT('',#1701);
#574=VERTEX_POINT('',#1708);
#575=VERTEX_POINT('',#1709);
#576=VERTEX_POINT('',#1711);
#577=VERTEX_POINT('',#1713);
#578=VERTEX_POINT('',#1717);
#579=VERTEX_POINT('',#1719);
#580=VERTEX_POINT('',#1723);
#581=VERTEX_POINT('',#1725);
#582=VERTEX_POINT('',#1733);
#583=VERTEX_POINT('',#1734);
#584=VERTEX_POINT('',#1736);
#585=VERTEX_POINT('',#1738);
#586=VERTEX_POINT('',#1741);
#587=VERTEX_POINT('',#1742);
#588=VERTEX_POINT('',#1744);
#589=VERTEX_POINT('',#1746);
#590=VERTEX_POINT('',#1749);
#591=EDGE_CURVE('',#489,#490,#475,.F.);
#592=EDGE_CURVE('',#490,#491,#197,.T.);
#593=EDGE_CURVE('',#491,#492,#476,.F.);
#594=EDGE_CURVE('',#492,#489,#198,.T.);
#595=EDGE_CURVE('',#490,#493,#199,.T.);
#596=EDGE_CURVE('',#494,#493,#200,.T.);
#597=EDGE_CURVE('',#491,#494,#201,.T.);
#598=EDGE_CURVE('',#492,#495,#202,.T.);
#599=EDGE_CURVE('',#496,#494,#203,.T.);
#600=EDGE_CURVE('',#495,#496,#204,.T.);
#601=EDGE_CURVE('',#495,#497,#205,.T.);
#602=EDGE_CURVE('',#498,#496,#206,.T.);
#603=EDGE_CURVE('',#497,#498,#207,.T.);
#604=EDGE_CURVE('',#497,#489,#208,.T.);
#605=EDGE_CURVE('',#493,#498,#209,.T.);
#606=EDGE_CURVE('',#499,#500,#477,.F.);
#607=EDGE_CURVE('',#500,#501,#210,.T.);
#608=EDGE_CURVE('',#501,#502,#478,.F.);
#609=EDGE_CURVE('',#502,#499,#211,.T.);
#610=EDGE_CURVE('',#500,#503,#212,.T.);
#611=EDGE_CURVE('',#504,#503,#213,.T.);
#612=EDGE_CURVE('',#501,#504,#214,.T.);
#613=EDGE_CURVE('',#505,#499,#215,.T.);
#614=EDGE_CURVE('',#505,#506,#216,.T.);
#615=EDGE_CURVE('',#503,#506,#217,.T.);
#616=EDGE_CURVE('',#507,#505,#218,.T.);
#617=EDGE_CURVE('',#507,#508,#219,.T.);
#618=EDGE_CURVE('',#506,#508,#220,.T.);
#619=EDGE_CURVE('',#502,#507,#221,.T.);
#620=EDGE_CURVE('',#508,#504,#222,.T.);
#621=EDGE_CURVE('',#509,#510,#223,.T.);
#622=EDGE_CURVE('',#510,#511,#224,.T.);
#623=EDGE_CURVE('',#511,#512,#225,.T.);
#624=EDGE_CURVE('',#512,#513,#226,.T.);
#625=EDGE_CURVE('',#513,#514,#227,.T.);
#626=EDGE_CURVE('',#514,#515,#228,.T.);
#627=EDGE_CURVE('',#515,#516,#229,.T.);
#628=EDGE_CURVE('',#516,#517,#230,.T.);
#629=EDGE_CURVE('',#517,#518,#231,.T.);
#630=EDGE_CURVE('',#518,#519,#232,.T.);
#631=EDGE_CURVE('',#519,#520,#233,.T.);
#632=EDGE_CURVE('',#520,#509,#234,.T.);
#633=EDGE_CURVE('',#521,#522,#479,.T.);
#634=EDGE_CURVE('',#521,#523,#235,.T.);
#635=EDGE_CURVE('',#524,#523,#480,.T.);
#636=EDGE_CURVE('',#522,#524,#236,.T.);
#637=EDGE_CURVE('',#522,#525,#237,.T.);
#638=EDGE_CURVE('',#526,#524,#238,.T.);
#639=EDGE_CURVE('',#525,#526,#239,.T.);
#640=EDGE_CURVE('',#525,#515,#481,.T.);
#641=EDGE_CURVE('',#516,#526,#482,.T.);
#642=EDGE_CURVE('',#527,#521,#240,.T.);
#643=EDGE_CURVE('',#528,#527,#241,.T.);
#644=EDGE_CURVE('',#523,#528,#242,.T.);
#645=EDGE_CURVE('',#510,#529,#483,.T.);
#646=EDGE_CURVE('',#530,#509,#484,.T.);
#647=EDGE_CURVE('',#529,#530,#243,.T.);
#648=EDGE_CURVE('',#529,#531,#244,.T.);
#649=EDGE_CURVE('',#532,#530,#245,.T.);
#650=EDGE_CURVE('',#531,#532,#246,.T.);
#651=EDGE_CURVE('',#531,#527,#485,.T.);
#652=EDGE_CURVE('',#528,#532,#486,.T.);
#653=EDGE_CURVE('',#533,#534,#247,.T.);
#654=EDGE_CURVE('',#534,#535,#248,.T.);
#655=EDGE_CURVE('',#535,#536,#249,.T.);
#656=EDGE_CURVE('',#536,#537,#250,.T.);
#657=EDGE_CURVE('',#537,#533,#251,.T.);
#658=EDGE_CURVE('',#536,#538,#252,.T.);
#659=EDGE_CURVE('',#539,#538,#253,.T.);
#660=EDGE_CURVE('',#539,#537,#254,.T.);
#661=EDGE_CURVE('',#540,#535,#255,.T.);
#662=EDGE_CURVE('',#541,#540,#256,.T.);
#663=EDGE_CURVE('',#542,#541,#257,.T.);
#664=EDGE_CURVE('',#543,#542,#258,.T.);
#665=EDGE_CURVE('',#544,#543,#259,.T.);
#666=EDGE_CURVE('',#538,#544,#260,.T.);
#667=EDGE_CURVE('',#545,#546,#261,.T.);
#668=EDGE_CURVE('',#547,#545,#262,.T.);
#669=EDGE_CURVE('',#548,#547,#263,.T.);
#670=EDGE_CURVE('',#546,#548,#264,.T.);
#671=EDGE_CURVE('',#549,#550,#265,.T.);
#672=EDGE_CURVE('',#550,#551,#266,.T.);
#673=EDGE_CURVE('',#551,#552,#267,.T.);
#674=EDGE_CURVE('',#552,#549,#268,.T.);
#675=EDGE_CURVE('',#553,#553,#487,.T.);
#676=EDGE_CURVE('',#534,#554,#269,.T.);
#677=EDGE_CURVE('',#540,#554,#270,.T.);
#678=EDGE_CURVE('',#555,#556,#271,.T.);
#679=EDGE_CURVE('',#556,#541,#272,.T.);
#680=EDGE_CURVE('',#554,#555,#273,.T.);
#681=EDGE_CURVE('',#556,#557,#274,.T.);
#682=EDGE_CURVE('',#542,#557,#275,.T.);
#683=EDGE_CURVE('',#558,#559,#276,.T.);
#684=EDGE_CURVE('',#559,#543,#277,.T.);
#685=EDGE_CURVE('',#557,#558,#278,.T.);
#686=EDGE_CURVE('',#559,#560,#279,.T.);
#687=EDGE_CURVE('',#544,#560,#280,.T.);
#688=EDGE_CURVE('',#561,#539,#281,.T.);
#689=EDGE_CURVE('',#560,#561,#282,.T.);
#690=EDGE_CURVE('',#514,#533,#283,.T.);
#691=EDGE_CURVE('',#561,#511,#284,.T.);
#692=EDGE_CURVE('',#512,#558,#285,.T.);
#693=EDGE_CURVE('',#546,#562,#286,.T.);
#694=EDGE_CURVE('',#562,#563,#287,.T.);
#695=EDGE_CURVE('',#545,#563,#288,.T.);
#696=EDGE_CURVE('',#548,#564,#289,.T.);
#697=EDGE_CURVE('',#564,#562,#290,.T.);
#698=EDGE_CURVE('',#547,#565,#291,.T.);
#699=EDGE_CURVE('',#565,#564,#292,.T.);
#700=EDGE_CURVE('',#563,#565,#293,.T.);
#701=EDGE_CURVE('',#566,#567,#294,.T.);
#702=EDGE_CURVE('',#566,#568,#295,.T.);
#703=EDGE_CURVE('',#569,#568,#296,.T.);
#704=EDGE_CURVE('',#567,#569,#297,.T.);
#705=EDGE_CURVE('',#567,#570,#298,.T.);
#706=EDGE_CURVE('',#571,#569,#299,.T.);
#707=EDGE_CURVE('',#570,#571,#300,.T.);
#708=EDGE_CURVE('',#570,#572,#301,.T.);
#709=EDGE_CURVE('',#573,#571,#302,.T.);
#710=EDGE_CURVE('',#572,#573,#303,.T.);
#711=EDGE_CURVE('',#572,#566,#304,.T.);
#712=EDGE_CURVE('',#568,#573,#305,.T.);
#713=EDGE_CURVE('',#574,#575,#306,.T.);
#714=EDGE_CURVE('',#574,#576,#307,.T.);
#715=EDGE_CURVE('',#577,#576,#308,.T.);
#716=EDGE_CURVE('',#575,#577,#309,.T.);
#717=EDGE_CURVE('',#575,#578,#310,.T.);
#718=EDGE_CURVE('',#579,#577,#311,.T.);
#719=EDGE_CURVE('',#578,#579,#312,.T.);
#720=EDGE_CURVE('',#578,#580,#313,.T.);
#721=EDGE_CURVE('',#581,#579,#314,.T.);
#722=EDGE_CURVE('',#580,#581,#315,.T.);
#723=EDGE_CURVE('',#580,#574,#316,.T.);
#724=EDGE_CURVE('',#576,#581,#317,.T.);
#725=EDGE_CURVE('',#582,#583,#318,.T.);
#726=EDGE_CURVE('',#583,#584,#319,.T.);
#727=EDGE_CURVE('',#584,#585,#320,.T.);
#728=EDGE_CURVE('',#585,#582,#321,.T.);
#729=EDGE_CURVE('',#586,#587,#322,.T.);
#730=EDGE_CURVE('',#588,#586,#323,.T.);
#731=EDGE_CURVE('',#589,#588,#324,.T.);
#732=EDGE_CURVE('',#587,#589,#325,.T.);
#733=EDGE_CURVE('',#590,#590,#488,.T.);
#734=EDGE_CURVE('',#553,#590,#326,.T.);
#735=EDGE_CURVE('',#586,#549,#327,.T.);
#736=EDGE_CURVE('',#588,#552,#328,.T.);
#737=EDGE_CURVE('',#589,#551,#329,.T.);
#738=EDGE_CURVE('',#587,#550,#330,.T.);
#739=EDGE_CURVE('',#583,#519,#331,.T.);
#740=EDGE_CURVE('',#520,#582,#332,.T.);
#741=EDGE_CURVE('',#517,#585,#333,.T.);
#742=EDGE_CURVE('',#518,#584,#334,.T.);
#743=EDGE_CURVE('',#513,#555,#335,.T.);
#744=ORIENTED_EDGE('',*,*,#591,.T.);
#745=ORIENTED_EDGE('',*,*,#592,.T.);
#746=ORIENTED_EDGE('',*,*,#593,.T.);
#747=ORIENTED_EDGE('',*,*,#594,.T.);
#748=ORIENTED_EDGE('',*,*,#592,.F.);
#749=ORIENTED_EDGE('',*,*,#595,.T.);
#750=ORIENTED_EDGE('',*,*,#596,.F.);
#751=ORIENTED_EDGE('',*,*,#597,.F.);
#752=ORIENTED_EDGE('',*,*,#598,.F.);
#753=ORIENTED_EDGE('',*,*,#593,.F.);
#754=ORIENTED_EDGE('',*,*,#597,.T.);
#755=ORIENTED_EDGE('',*,*,#599,.F.);
#756=ORIENTED_EDGE('',*,*,#600,.F.);
#757=ORIENTED_EDGE('',*,*,#601,.F.);
#758=ORIENTED_EDGE('',*,*,#600,.T.);
#759=ORIENTED_EDGE('',*,*,#602,.F.);
#760=ORIENTED_EDGE('',*,*,#603,.F.);
#761=ORIENTED_EDGE('',*,*,#604,.F.);
#762=ORIENTED_EDGE('',*,*,#603,.T.);
#763=ORIENTED_EDGE('',*,*,#605,.F.);
#764=ORIENTED_EDGE('',*,*,#595,.F.);
#765=ORIENTED_EDGE('',*,*,#591,.F.);
#766=ORIENTED_EDGE('',*,*,#606,.T.);
#767=ORIENTED_EDGE('',*,*,#607,.T.);
#768=ORIENTED_EDGE('',*,*,#608,.T.);
#769=ORIENTED_EDGE('',*,*,#609,.T.);
#770=ORIENTED_EDGE('',*,*,#607,.F.);
#771=ORIENTED_EDGE('',*,*,#610,.T.);
#772=ORIENTED_EDGE('',*,*,#611,.F.);
#773=ORIENTED_EDGE('',*,*,#612,.F.);
#774=ORIENTED_EDGE('',*,*,#613,.F.);
#775=ORIENTED_EDGE('',*,*,#614,.T.);
#776=ORIENTED_EDGE('',*,*,#615,.F.);
#777=ORIENTED_EDGE('',*,*,#610,.F.);
#778=ORIENTED_EDGE('',*,*,#606,.F.);
#779=ORIENTED_EDGE('',*,*,#616,.F.);
#780=ORIENTED_EDGE('',*,*,#617,.T.);
#781=ORIENTED_EDGE('',*,*,#618,.F.);
#782=ORIENTED_EDGE('',*,*,#614,.F.);
#783=ORIENTED_EDGE('',*,*,#619,.F.);
#784=ORIENTED_EDGE('',*,*,#608,.F.);
#785=ORIENTED_EDGE('',*,*,#612,.T.);
#786=ORIENTED_EDGE('',*,*,#620,.F.);
#787=ORIENTED_EDGE('',*,*,#617,.F.);
#788=ORIENTED_EDGE('',*,*,#621,.T.);
#789=ORIENTED_EDGE('',*,*,#622,.T.);
#790=ORIENTED_EDGE('',*,*,#623,.T.);
#791=ORIENTED_EDGE('',*,*,#624,.T.);
#792=ORIENTED_EDGE('',*,*,#625,.T.);
#793=ORIENTED_EDGE('',*,*,#626,.T.);
#794=ORIENTED_EDGE('',*,*,#627,.T.);
#795=ORIENTED_EDGE('',*,*,#628,.T.);
#796=ORIENTED_EDGE('',*,*,#629,.T.);
#797=ORIENTED_EDGE('',*,*,#630,.T.);
#798=ORIENTED_EDGE('',*,*,#631,.T.);
#799=ORIENTED_EDGE('',*,*,#632,.T.);
#800=ORIENTED_EDGE('',*,*,#633,.F.);
#801=ORIENTED_EDGE('',*,*,#634,.T.);
#802=ORIENTED_EDGE('',*,*,#635,.F.);
#803=ORIENTED_EDGE('',*,*,#636,.F.);
#804=ORIENTED_EDGE('',*,*,#637,.F.);
#805=ORIENTED_EDGE('',*,*,#636,.T.);
#806=ORIENTED_EDGE('',*,*,#638,.F.);
#807=ORIENTED_EDGE('',*,*,#639,.F.);
#808=ORIENTED_EDGE('',*,*,#640,.F.);
#809=ORIENTED_EDGE('',*,*,#639,.T.);
#810=ORIENTED_EDGE('',*,*,#641,.F.);
#811=ORIENTED_EDGE('',*,*,#627,.F.);
#812=ORIENTED_EDGE('',*,*,#642,.F.);
#813=ORIENTED_EDGE('',*,*,#643,.F.);
#814=ORIENTED_EDGE('',*,*,#644,.F.);
#815=ORIENTED_EDGE('',*,*,#634,.F.);
#816=ORIENTED_EDGE('',*,*,#645,.F.);
#817=ORIENTED_EDGE('',*,*,#621,.F.);
#818=ORIENTED_EDGE('',*,*,#646,.F.);
#819=ORIENTED_EDGE('',*,*,#647,.F.);
#820=ORIENTED_EDGE('',*,*,#648,.F.);
#821=ORIENTED_EDGE('',*,*,#647,.T.);
#822=ORIENTED_EDGE('',*,*,#649,.F.);
#823=ORIENTED_EDGE('',*,*,#650,.F.);
#824=ORIENTED_EDGE('',*,*,#651,.F.);
#825=ORIENTED_EDGE('',*,*,#650,.T.);
#826=ORIENTED_EDGE('',*,*,#652,.F.);
#827=ORIENTED_EDGE('',*,*,#643,.T.);
#828=ORIENTED_EDGE('',*,*,#653,.T.);
#829=ORIENTED_EDGE('',*,*,#654,.T.);
#830=ORIENTED_EDGE('',*,*,#655,.T.);
#831=ORIENTED_EDGE('',*,*,#656,.T.);
#832=ORIENTED_EDGE('',*,*,#657,.T.);
#833=ORIENTED_EDGE('',*,*,#656,.F.);
#834=ORIENTED_EDGE('',*,*,#658,.T.);
#835=ORIENTED_EDGE('',*,*,#659,.F.);
#836=ORIENTED_EDGE('',*,*,#660,.T.);
#837=ORIENTED_EDGE('',*,*,#655,.F.);
#838=ORIENTED_EDGE('',*,*,#661,.F.);
#839=ORIENTED_EDGE('',*,*,#662,.F.);
#840=ORIENTED_EDGE('',*,*,#663,.F.);
#841=ORIENTED_EDGE('',*,*,#664,.F.);
#842=ORIENTED_EDGE('',*,*,#665,.F.);
#843=ORIENTED_EDGE('',*,*,#666,.F.);
#844=ORIENTED_EDGE('',*,*,#658,.F.);
#845=ORIENTED_EDGE('',*,*,#667,.F.);
#846=ORIENTED_EDGE('',*,*,#668,.F.);
#847=ORIENTED_EDGE('',*,*,#669,.F.);
#848=ORIENTED_EDGE('',*,*,#670,.F.);
#849=ORIENTED_EDGE('',*,*,#671,.T.);
#850=ORIENTED_EDGE('',*,*,#672,.T.);
#851=ORIENTED_EDGE('',*,*,#673,.T.);
#852=ORIENTED_EDGE('',*,*,#674,.T.);
#853=ORIENTED_EDGE('',*,*,#675,.T.);
#854=ORIENTED_EDGE('',*,*,#654,.F.);
#855=ORIENTED_EDGE('',*,*,#676,.T.);
#856=ORIENTED_EDGE('',*,*,#677,.F.);
#857=ORIENTED_EDGE('',*,*,#661,.T.);
#858=ORIENTED_EDGE('',*,*,#678,.T.);
#859=ORIENTED_EDGE('',*,*,#679,.T.);
#860=ORIENTED_EDGE('',*,*,#662,.T.);
#861=ORIENTED_EDGE('',*,*,#677,.T.);
#862=ORIENTED_EDGE('',*,*,#680,.T.);
#863=ORIENTED_EDGE('',*,*,#679,.F.);
#864=ORIENTED_EDGE('',*,*,#681,.T.);
#865=ORIENTED_EDGE('',*,*,#682,.F.);
#866=ORIENTED_EDGE('',*,*,#663,.T.);
#867=ORIENTED_EDGE('',*,*,#683,.T.);
#868=ORIENTED_EDGE('',*,*,#684,.T.);
#869=ORIENTED_EDGE('',*,*,#664,.T.);
#870=ORIENTED_EDGE('',*,*,#682,.T.);
#871=ORIENTED_EDGE('',*,*,#685,.T.);
#872=ORIENTED_EDGE('',*,*,#684,.F.);
#873=ORIENTED_EDGE('',*,*,#686,.T.);
#874=ORIENTED_EDGE('',*,*,#687,.F.);
#875=ORIENTED_EDGE('',*,*,#665,.T.);
#876=ORIENTED_EDGE('',*,*,#688,.T.);
#877=ORIENTED_EDGE('',*,*,#659,.T.);
#878=ORIENTED_EDGE('',*,*,#666,.T.);
#879=ORIENTED_EDGE('',*,*,#687,.T.);
#880=ORIENTED_EDGE('',*,*,#689,.T.);
#881=ORIENTED_EDGE('',*,*,#640,.T.);
#882=ORIENTED_EDGE('',*,*,#626,.F.);
#883=ORIENTED_EDGE('',*,*,#690,.T.);
#884=ORIENTED_EDGE('',*,*,#657,.F.);
#885=ORIENTED_EDGE('',*,*,#660,.F.);
#886=ORIENTED_EDGE('',*,*,#688,.F.);
#887=ORIENTED_EDGE('',*,*,#691,.T.);
#888=ORIENTED_EDGE('',*,*,#622,.F.);
#889=ORIENTED_EDGE('',*,*,#645,.T.);
#890=ORIENTED_EDGE('',*,*,#648,.T.);
#891=ORIENTED_EDGE('',*,*,#651,.T.);
#892=ORIENTED_EDGE('',*,*,#642,.T.);
#893=ORIENTED_EDGE('',*,*,#633,.T.);
#894=ORIENTED_EDGE('',*,*,#637,.T.);
#895=ORIENTED_EDGE('',*,*,#683,.F.);
#896=ORIENTED_EDGE('',*,*,#692,.F.);
#897=ORIENTED_EDGE('',*,*,#623,.F.);
#898=ORIENTED_EDGE('',*,*,#691,.F.);
#899=ORIENTED_EDGE('',*,*,#689,.F.);
#900=ORIENTED_EDGE('',*,*,#686,.F.);
#901=ORIENTED_EDGE('',*,*,#611,.T.);
#902=ORIENTED_EDGE('',*,*,#615,.T.);
#903=ORIENTED_EDGE('',*,*,#618,.T.);
#904=ORIENTED_EDGE('',*,*,#620,.T.);
#905=ORIENTED_EDGE('',*,*,#667,.T.);
#906=ORIENTED_EDGE('',*,*,#693,.T.);
#907=ORIENTED_EDGE('',*,*,#694,.T.);
#908=ORIENTED_EDGE('',*,*,#695,.F.);
#909=ORIENTED_EDGE('',*,*,#670,.T.);
#910=ORIENTED_EDGE('',*,*,#696,.T.);
#911=ORIENTED_EDGE('',*,*,#697,.T.);
#912=ORIENTED_EDGE('',*,*,#693,.F.);
#913=ORIENTED_EDGE('',*,*,#669,.T.);
#914=ORIENTED_EDGE('',*,*,#698,.T.);
#915=ORIENTED_EDGE('',*,*,#699,.T.);
#916=ORIENTED_EDGE('',*,*,#696,.F.);
#917=ORIENTED_EDGE('',*,*,#700,.T.);
#918=ORIENTED_EDGE('',*,*,#698,.F.);
#919=ORIENTED_EDGE('',*,*,#668,.T.);
#920=ORIENTED_EDGE('',*,*,#695,.T.);
#921=ORIENTED_EDGE('',*,*,#701,.F.);
#922=ORIENTED_EDGE('',*,*,#702,.T.);
#923=ORIENTED_EDGE('',*,*,#703,.F.);
#924=ORIENTED_EDGE('',*,*,#704,.F.);
#925=ORIENTED_EDGE('',*,*,#705,.F.);
#926=ORIENTED_EDGE('',*,*,#704,.T.);
#927=ORIENTED_EDGE('',*,*,#706,.F.);
#928=ORIENTED_EDGE('',*,*,#707,.F.);
#929=ORIENTED_EDGE('',*,*,#708,.F.);
#930=ORIENTED_EDGE('',*,*,#707,.T.);
#931=ORIENTED_EDGE('',*,*,#709,.F.);
#932=ORIENTED_EDGE('',*,*,#710,.F.);
#933=ORIENTED_EDGE('',*,*,#711,.F.);
#934=ORIENTED_EDGE('',*,*,#710,.T.);
#935=ORIENTED_EDGE('',*,*,#712,.F.);
#936=ORIENTED_EDGE('',*,*,#702,.F.);
#937=ORIENTED_EDGE('',*,*,#713,.F.);
#938=ORIENTED_EDGE('',*,*,#714,.T.);
#939=ORIENTED_EDGE('',*,*,#715,.F.);
#940=ORIENTED_EDGE('',*,*,#716,.F.);
#941=ORIENTED_EDGE('',*,*,#717,.F.);
#942=ORIENTED_EDGE('',*,*,#716,.T.);
#943=ORIENTED_EDGE('',*,*,#718,.F.);
#944=ORIENTED_EDGE('',*,*,#719,.F.);
#945=ORIENTED_EDGE('',*,*,#720,.F.);
#946=ORIENTED_EDGE('',*,*,#719,.T.);
#947=ORIENTED_EDGE('',*,*,#721,.F.);
#948=ORIENTED_EDGE('',*,*,#722,.F.);
#949=ORIENTED_EDGE('',*,*,#723,.F.);
#950=ORIENTED_EDGE('',*,*,#722,.T.);
#951=ORIENTED_EDGE('',*,*,#724,.F.);
#952=ORIENTED_EDGE('',*,*,#714,.F.);
#953=ORIENTED_EDGE('',*,*,#724,.T.);
#954=ORIENTED_EDGE('',*,*,#721,.T.);
#955=ORIENTED_EDGE('',*,*,#718,.T.);
#956=ORIENTED_EDGE('',*,*,#715,.T.);
#957=ORIENTED_EDGE('',*,*,#712,.T.);
#958=ORIENTED_EDGE('',*,*,#709,.T.);
#959=ORIENTED_EDGE('',*,*,#706,.T.);
#960=ORIENTED_EDGE('',*,*,#703,.T.);
#961=ORIENTED_EDGE('',*,*,#725,.T.);
#962=ORIENTED_EDGE('',*,*,#726,.T.);
#963=ORIENTED_EDGE('',*,*,#727,.T.);
#964=ORIENTED_EDGE('',*,*,#728,.T.);
#965=ORIENTED_EDGE('',*,*,#729,.F.);
#966=ORIENTED_EDGE('',*,*,#730,.F.);
#967=ORIENTED_EDGE('',*,*,#731,.F.);
#968=ORIENTED_EDGE('',*,*,#732,.F.);
#969=ORIENTED_EDGE('',*,*,#733,.F.);
#970=ORIENTED_EDGE('',*,*,#713,.T.);
#971=ORIENTED_EDGE('',*,*,#717,.T.);
#972=ORIENTED_EDGE('',*,*,#720,.T.);
#973=ORIENTED_EDGE('',*,*,#723,.T.);
#974=ORIENTED_EDGE('',*,*,#701,.T.);
#975=ORIENTED_EDGE('',*,*,#705,.T.);
#976=ORIENTED_EDGE('',*,*,#708,.T.);
#977=ORIENTED_EDGE('',*,*,#711,.T.);
#978=ORIENTED_EDGE('',*,*,#694,.F.);
#979=ORIENTED_EDGE('',*,*,#697,.F.);
#980=ORIENTED_EDGE('',*,*,#699,.F.);
#981=ORIENTED_EDGE('',*,*,#700,.F.);
#982=ORIENTED_EDGE('',*,*,#675,.F.);
#983=ORIENTED_EDGE('',*,*,#734,.T.);
#984=ORIENTED_EDGE('',*,*,#733,.T.);
#985=ORIENTED_EDGE('',*,*,#734,.F.);
#986=ORIENTED_EDGE('',*,*,#730,.T.);
#987=ORIENTED_EDGE('',*,*,#735,.T.);
#988=ORIENTED_EDGE('',*,*,#674,.F.);
#989=ORIENTED_EDGE('',*,*,#736,.F.);
#990=ORIENTED_EDGE('',*,*,#731,.T.);
#991=ORIENTED_EDGE('',*,*,#736,.T.);
#992=ORIENTED_EDGE('',*,*,#673,.F.);
#993=ORIENTED_EDGE('',*,*,#737,.F.);
#994=ORIENTED_EDGE('',*,*,#732,.T.);
#995=ORIENTED_EDGE('',*,*,#737,.T.);
#996=ORIENTED_EDGE('',*,*,#672,.F.);
#997=ORIENTED_EDGE('',*,*,#738,.F.);
#998=ORIENTED_EDGE('',*,*,#729,.T.);
#999=ORIENTED_EDGE('',*,*,#738,.T.);
#1000=ORIENTED_EDGE('',*,*,#671,.F.);
#1001=ORIENTED_EDGE('',*,*,#735,.F.);
#1002=ORIENTED_EDGE('',*,*,#739,.F.);
#1003=ORIENTED_EDGE('',*,*,#725,.F.);
#1004=ORIENTED_EDGE('',*,*,#740,.F.);
#1005=ORIENTED_EDGE('',*,*,#631,.F.);
#1006=ORIENTED_EDGE('',*,*,#619,.T.);
#1007=ORIENTED_EDGE('',*,*,#616,.T.);
#1008=ORIENTED_EDGE('',*,*,#613,.T.);
#1009=ORIENTED_EDGE('',*,*,#609,.F.);
#1010=ORIENTED_EDGE('',*,*,#646,.T.);
#1011=ORIENTED_EDGE('',*,*,#632,.F.);
#1012=ORIENTED_EDGE('',*,*,#740,.T.);
#1013=ORIENTED_EDGE('',*,*,#728,.F.);
#1014=ORIENTED_EDGE('',*,*,#741,.F.);
#1015=ORIENTED_EDGE('',*,*,#628,.F.);
#1016=ORIENTED_EDGE('',*,*,#641,.T.);
#1017=ORIENTED_EDGE('',*,*,#638,.T.);
#1018=ORIENTED_EDGE('',*,*,#635,.T.);
#1019=ORIENTED_EDGE('',*,*,#644,.T.);
#1020=ORIENTED_EDGE('',*,*,#652,.T.);
#1021=ORIENTED_EDGE('',*,*,#649,.T.);
#1022=ORIENTED_EDGE('',*,*,#741,.T.);
#1023=ORIENTED_EDGE('',*,*,#727,.F.);
#1024=ORIENTED_EDGE('',*,*,#742,.F.);
#1025=ORIENTED_EDGE('',*,*,#629,.F.);
#1026=ORIENTED_EDGE('',*,*,#598,.T.);
#1027=ORIENTED_EDGE('',*,*,#601,.T.);
#1028=ORIENTED_EDGE('',*,*,#604,.T.);
#1029=ORIENTED_EDGE('',*,*,#594,.F.);
#1030=ORIENTED_EDGE('',*,*,#742,.T.);
#1031=ORIENTED_EDGE('',*,*,#726,.F.);
#1032=ORIENTED_EDGE('',*,*,#739,.T.);
#1033=ORIENTED_EDGE('',*,*,#630,.F.);
#1034=ORIENTED_EDGE('',*,*,#678,.F.);
#1035=ORIENTED_EDGE('',*,*,#743,.F.);
#1036=ORIENTED_EDGE('',*,*,#624,.F.);
#1037=ORIENTED_EDGE('',*,*,#692,.T.);
#1038=ORIENTED_EDGE('',*,*,#685,.F.);
#1039=ORIENTED_EDGE('',*,*,#681,.F.);
#1040=ORIENTED_EDGE('',*,*,#653,.F.);
#1041=ORIENTED_EDGE('',*,*,#690,.F.);
#1042=ORIENTED_EDGE('',*,*,#625,.F.);
#1043=ORIENTED_EDGE('',*,*,#743,.T.);
#1044=ORIENTED_EDGE('',*,*,#680,.F.);
#1045=ORIENTED_EDGE('',*,*,#676,.F.);
#1046=ORIENTED_EDGE('',*,*,#596,.T.);
#1047=ORIENTED_EDGE('',*,*,#605,.T.);
#1048=ORIENTED_EDGE('',*,*,#602,.T.);
#1049=ORIENTED_EDGE('',*,*,#599,.T.);
#1050=CYLINDRICAL_SURFACE('',#1114,0.5);
#1051=CYLINDRICAL_SURFACE('',#1121,0.5);
#1052=CYLINDRICAL_SURFACE('',#1129,1.50000000000002);
#1053=CYLINDRICAL_SURFACE('',#1133,1.50000000000002);
#1054=CYLINDRICAL_SURFACE('',#1137,1.50000000000002);
#1055=CYLINDRICAL_SURFACE('',#1141,1.50000000000002);
#1056=CYLINDRICAL_SURFACE('',#1172,8.00000000000001);
#1057=ADVANCED_FACE('',(#75),#1050,.T.);
#1058=ADVANCED_FACE('',(#76),#27,.T.);
#1059=ADVANCED_FACE('',(#77),#28,.T.);
#1060=ADVANCED_FACE('',(#78),#29,.T.);
#1061=ADVANCED_FACE('',(#79),#30,.T.);
#1062=ADVANCED_FACE('',(#80),#1051,.T.);
#1063=ADVANCED_FACE('',(#81),#31,.F.);
#1064=ADVANCED_FACE('',(#82),#32,.F.);
#1065=ADVANCED_FACE('',(#83),#33,.F.);
#1066=ADVANCED_FACE('',(#84),#34,.F.);
#1067=ADVANCED_FACE('',(#85),#35,.T.);
#1068=ADVANCED_FACE('',(#86),#1052,.F.);
#1069=ADVANCED_FACE('',(#87),#36,.F.);
#1070=ADVANCED_FACE('',(#88),#1053,.F.);
#1071=ADVANCED_FACE('',(#89),#37,.F.);
#1072=ADVANCED_FACE('',(#90),#1054,.F.);
#1073=ADVANCED_FACE('',(#91),#38,.F.);
#1074=ADVANCED_FACE('',(#92),#1055,.F.);
#1075=ADVANCED_FACE('',(#93),#39,.T.);
#1076=ADVANCED_FACE('',(#94),#40,.T.);
#1077=ADVANCED_FACE('',(#95,#15,#16,#17),#41,.T.);
#1078=ADVANCED_FACE('',(#96),#42,.T.);
#1079=ADVANCED_FACE('',(#97),#43,.T.);
#1080=ADVANCED_FACE('',(#98),#44,.T.);
#1081=ADVANCED_FACE('',(#99),#45,.T.);
#1082=ADVANCED_FACE('',(#100),#46,.T.);
#1083=ADVANCED_FACE('',(#101),#47,.T.);
#1084=ADVANCED_FACE('',(#102),#48,.T.);
#1085=ADVANCED_FACE('',(#103,#18),#49,.T.);
#1086=ADVANCED_FACE('',(#104),#50,.T.);
#1087=ADVANCED_FACE('',(#105),#51,.T.);
#1088=ADVANCED_FACE('',(#106),#52,.T.);
#1089=ADVANCED_FACE('',(#107),#53,.T.);
#1090=ADVANCED_FACE('',(#108),#54,.T.);
#1091=ADVANCED_FACE('',(#109),#55,.T.);
#1092=ADVANCED_FACE('',(#110),#56,.T.);
#1093=ADVANCED_FACE('',(#111),#57,.T.);
#1094=ADVANCED_FACE('',(#112),#58,.T.);
#1095=ADVANCED_FACE('',(#113),#59,.T.);
#1096=ADVANCED_FACE('',(#114),#60,.T.);
#1097=ADVANCED_FACE('',(#115),#61,.T.);
#1098=ADVANCED_FACE('',(#116,#19),#62,.T.);
#1099=ADVANCED_FACE('',(#117,#20,#21,#22),#63,.F.);
#1100=ADVANCED_FACE('',(#118,#23),#64,.F.);
#1101=ADVANCED_FACE('',(#119),#1056,.F.);
#1102=ADVANCED_FACE('',(#120),#65,.T.);
#1103=ADVANCED_FACE('',(#121),#66,.T.);
#1104=ADVANCED_FACE('',(#122),#67,.T.);
#1105=ADVANCED_FACE('',(#123),#68,.T.);
#1106=ADVANCED_FACE('',(#124,#24),#69,.T.);
#1107=ADVANCED_FACE('',(#125),#70,.T.);
#1108=ADVANCED_FACE('',(#126,#25),#71,.T.);
#1109=ADVANCED_FACE('',(#127),#72,.T.);
#1110=ADVANCED_FACE('',(#128),#73,.T.);
#1111=ADVANCED_FACE('',(#129,#26),#74,.T.);
#1112=CLOSED_SHELL('',(#1057,#1058,#1059,#1060,#1061,#1062,#1063,#1064,
#1065,#1066,#1067,#1068,#1069,#1070,#1071,#1072,#1073,#1074,#1075,#1076,
#1077,#1078,#1079,#1080,#1081,#1082,#1083,#1084,#1085,#1086,#1087,#1088,
#1089,#1090,#1091,#1092,#1093,#1094,#1095,#1096,#1097,#1098,#1099,#1100,
#1101,#1102,#1103,#1104,#1105,#1106,#1107,#1108,#1109,#1110,#1111));
#1113=AXIS2_PLACEMENT_3D('',#1462,#1183,#1184);
#1114=AXIS2_PLACEMENT_3D('',#1463,#1185,#1186);
#1115=AXIS2_PLACEMENT_3D('',#1466,#1187,#1188);
#1116=AXIS2_PLACEMENT_3D('',#1470,#1190,#1191);
#1117=AXIS2_PLACEMENT_3D('',#1472,#1193,#1194);
#1118=AXIS2_PLACEMENT_3D('',#1478,#1198,#1199);
#1119=AXIS2_PLACEMENT_3D('',#1484,#1203,#1204);
#1120=AXIS2_PLACEMENT_3D('',#1490,#1208,#1209);
#1121=AXIS2_PLACEMENT_3D('',#1493,#1212,#1213);
#1122=AXIS2_PLACEMENT_3D('',#1496,#1214,#1215);
#1123=AXIS2_PLACEMENT_3D('',#1500,#1217,#1218);
#1124=AXIS2_PLACEMENT_3D('',#1502,#1220,#1221);
#1125=AXIS2_PLACEMENT_3D('',#1508,#1225,#1226);
#1126=AXIS2_PLACEMENT_3D('',#1514,#1230,#1231);
#1127=AXIS2_PLACEMENT_3D('',#1520,#1235,#1236);
#1128=AXIS2_PLACEMENT_3D('',#1523,#1239,#1240);
#1129=AXIS2_PLACEMENT_3D('',#1548,#1253,#1254);
#1130=AXIS2_PLACEMENT_3D('',#1551,#1255,#1256);
#1131=AXIS2_PLACEMENT_3D('',#1555,#1258,#1259);
#1132=AXIS2_PLACEMENT_3D('',#1557,#1261,#1262);
#1133=AXIS2_PLACEMENT_3D('',#1563,#1266,#1267);
#1134=AXIS2_PLACEMENT_3D('',#1564,#1268,#1269);
#1135=AXIS2_PLACEMENT_3D('',#1565,#1270,#1271);
#1136=AXIS2_PLACEMENT_3D('',#1566,#1272,#1273);
#1137=AXIS2_PLACEMENT_3D('',#1572,#1277,#1278);
#1138=AXIS2_PLACEMENT_3D('',#1574,#1279,#1280);
#1139=AXIS2_PLACEMENT_3D('',#1576,#1281,#1282);
#1140=AXIS2_PLACEMENT_3D('',#1578,#1284,#1285);
#1141=AXIS2_PLACEMENT_3D('',#1584,#1289,#1290);
#1142=AXIS2_PLACEMENT_3D('',#1585,#1291,#1292);
#1143=AXIS2_PLACEMENT_3D('',#1586,#1293,#1294);
#1144=AXIS2_PLACEMENT_3D('',#1587,#1295,#1296);
#1145=AXIS2_PLACEMENT_3D('',#1598,#1302,#1303);
#1146=AXIS2_PLACEMENT_3D('',#1604,#1307,#1308);
#1147=AXIS2_PLACEMENT_3D('',#1633,#1323,#1324);
#1148=AXIS2_PLACEMENT_3D('',#1634,#1325,#1326);
#1149=AXIS2_PLACEMENT_3D('',#1638,#1329,#1330);
#1150=AXIS2_PLACEMENT_3D('',#1644,#1334,#1335);
#1151=AXIS2_PLACEMENT_3D('',#1648,#1338,#1339);
#1152=AXIS2_PLACEMENT_3D('',#1654,#1343,#1344);
#1153=AXIS2_PLACEMENT_3D('',#1658,#1347,#1348);
#1154=AXIS2_PLACEMENT_3D('',#1662,#1351,#1352);
#1155=AXIS2_PLACEMENT_3D('',#1665,#1355,#1356);
#1156=AXIS2_PLACEMENT_3D('',#1667,#1358,#1359);
#1157=AXIS2_PLACEMENT_3D('',#1673,#1363,#1364);
#1158=AXIS2_PLACEMENT_3D('',#1677,#1367,#1368);
#1159=AXIS2_PLACEMENT_3D('',#1681,#1371,#1372);
#1160=AXIS2_PLACEMENT_3D('',#1683,#1374,#1375);
#1161=AXIS2_PLACEMENT_3D('',#1692,#1380,#1381);
#1162=AXIS2_PLACEMENT_3D('',#1698,#1385,#1386);
#1163=AXIS2_PLACEMENT_3D('',#1704,#1390,#1391);
#1164=AXIS2_PLACEMENT_3D('',#1707,#1394,#1395);
#1165=AXIS2_PLACEMENT_3D('',#1716,#1400,#1401);
#1166=AXIS2_PLACEMENT_3D('',#1722,#1405,#1406);
#1167=AXIS2_PLACEMENT_3D('',#1728,#1410,#1411);
#1168=AXIS2_PLACEMENT_3D('',#1731,#1414,#1415);
#1169=AXIS2_PLACEMENT_3D('',#1732,#1416,#1417);
#1170=AXIS2_PLACEMENT_3D('',#1750,#1426,#1427);
#1171=AXIS2_PLACEMENT_3D('',#1751,#1428,#1429);
#1172=AXIS2_PLACEMENT_3D('',#1752,#1430,#1431);
#1173=AXIS2_PLACEMENT_3D('',#1754,#1433,#1434);
#1174=AXIS2_PLACEMENT_3D('',#1757,#1437,#1438);
#1175=AXIS2_PLACEMENT_3D('',#1759,#1440,#1441);
#1176=AXIS2_PLACEMENT_3D('',#1761,#1443,#1444);
#1177=AXIS2_PLACEMENT_3D('',#1762,#1445,#1446);
#1178=AXIS2_PLACEMENT_3D('',#1765,#1449,#1450);
#1179=AXIS2_PLACEMENT_3D('',#1767,#1452,#1453);
#1180=AXIS2_PLACEMENT_3D('',#1769,#1455,#1456);
#1181=AXIS2_PLACEMENT_3D('',#1770,#1457,#1458);
#1182=AXIS2_PLACEMENT_3D('',#1772,#1460,#1461);
#1183=DIRECTION('axis',(0.,0.,1.));
#1184=DIRECTION('refdir',(1.,0.,0.));
#1185=DIRECTION('center_axis',(0.,-1.,0.));
#1186=DIRECTION('ref_axis',(0.707106781186528,0.,0.707106781186567));
#1187=DIRECTION('center_axis',(0.,1.,0.));
#1188=DIRECTION('ref_axis',(0.707106781186528,0.,0.707106781186567));
#1189=DIRECTION('',(0.,-1.,0.));
#1190=DIRECTION('center_axis',(0.,-1.,0.));
#1191=DIRECTION('ref_axis',(0.707106781186528,0.,0.707106781186567));
#1192=DIRECTION('',(0.,1.,0.));
#1193=DIRECTION('center_axis',(0.,0.,1.));
#1194=DIRECTION('ref_axis',(0.,1.,0.));
#1195=DIRECTION('',(-1.,0.,0.));
#1196=DIRECTION('',(0.,1.,0.));
#1197=DIRECTION('',(-1.,0.,0.));
#1198=DIRECTION('center_axis',(0.,1.,0.));
#1199=DIRECTION('ref_axis',(0.,0.,-1.));
#1200=DIRECTION('',(0.,0.,1.));
#1201=DIRECTION('',(0.,0.,-1.));
#1202=DIRECTION('',(-1.,0.,0.));
#1203=DIRECTION('center_axis',(0.,0.,-1.));
#1204=DIRECTION('ref_axis',(0.,-1.,0.));
#1205=DIRECTION('',(0.,1.,0.));
#1206=DIRECTION('',(0.,-1.,0.));
#1207=DIRECTION('',(-1.,0.,0.));
#1208=DIRECTION('center_axis',(0.,-1.,0.));
#1209=DIRECTION('ref_axis',(0.,0.,1.));
#1210=DIRECTION('',(0.,0.,-1.));
#1211=DIRECTION('',(0.,0.,1.));
#1212=DIRECTION('center_axis',(0.,1.,0.));
#1213=DIRECTION('ref_axis',(-0.707106781186528,0.,0.707106781186567));
#1214=DIRECTION('center_axis',(0.,-1.,0.));
#1215=DIRECTION('ref_axis',(-0.707106781186528,0.,0.707106781186567));
#1216=DIRECTION('',(0.,1.,0.));
#1217=DIRECTION('center_axis',(0.,1.,0.));
#1218=DIRECTION('ref_axis',(-0.707106781186528,0.,0.707106781186567));
#1219=DIRECTION('',(0.,-1.,0.));
#1220=DIRECTION('center_axis',(0.,0.,-1.));
#1221=DIRECTION('ref_axis',(0.,1.,0.));
#1222=DIRECTION('',(1.,0.,0.));
#1223=DIRECTION('',(0.,-1.,0.));
#1224=DIRECTION('',(1.,0.,0.));
#1225=DIRECTION('center_axis',(0.,-1.,0.));
#1226=DIRECTION('ref_axis',(0.,0.,-1.));
#1227=DIRECTION('',(0.,0.,-1.));
#1228=DIRECTION('',(1.,0.,0.));
#1229=DIRECTION('',(0.,0.,1.));
#1230=DIRECTION('center_axis',(0.,0.,1.));
#1231=DIRECTION('ref_axis',(0.,-1.,0.));
#1232=DIRECTION('',(0.,-1.,0.));
#1233=DIRECTION('',(1.,0.,0.));
#1234=DIRECTION('',(0.,1.,0.));
#1235=DIRECTION('center_axis',(0.,1.,0.));
#1236=DIRECTION('ref_axis',(0.,0.,1.));
#1237=DIRECTION('',(0.,0.,1.));
#1238=DIRECTION('',(0.,0.,-1.));
#1239=DIRECTION('center_axis',(0.,0.,-1.));
#1240=DIRECTION('ref_axis',(-1.,0.,0.));
#1241=DIRECTION('',(0.,1.,3.05311331771918E-15));
#1242=DIRECTION('',(1.,6.18508648816243E-17,0.));
#1243=DIRECTION('',(0.,-1.,0.));
#1244=DIRECTION('',(-1.,0.,0.));
#1245=DIRECTION('',(0.,1.,0.));
#1246=DIRECTION('',(1.,6.18508648816243E-17,0.));
#1247=DIRECTION('',(0.,-1.,-3.05311331771918E-15));
#1248=DIRECTION('',(-1.,0.,0.));
#1249=DIRECTION('',(0.,-1.,0.));
#1250=DIRECTION('',(1.,0.,0.));
#1251=DIRECTION('',(0.,1.,0.));
#1252=DIRECTION('',(-1.,0.,0.));
#1253=DIRECTION('center_axis',(0.,1.,3.05311331771918E-15));
#1254=DIRECTION('ref_axis',(-1.,-3.155443620884E-29,1.0362081563168E-14));
#1255=DIRECTION('center_axis',(6.18508648816243E-17,-1.,0.));
#1256=DIRECTION('ref_axis',(-1.,-3.155443620884E-29,1.0362081563168E-14));
#1257=DIRECTION('',(0.,-1.,-3.33066907387548E-15));
#1258=DIRECTION('center_axis',(0.,1.,0.));
#1259=DIRECTION('ref_axis',(-1.,-3.45126646034188E-29,1.0362081563168E-14));
#1260=DIRECTION('',(0.,-1.,-3.33066907387548E-15));
#1261=DIRECTION('center_axis',(-1.,1.40302445699707E-44,-4.59538939761725E-30));
#1262=DIRECTION('ref_axis',(-4.59538939761725E-30,-3.1290738134997E-15,
1.));
#1263=DIRECTION('',(4.59538939761725E-30,2.84228808710474E-46,-1.));
#1264=DIRECTION('',(-4.59538939761725E-30,0.,1.));
#1265=DIRECTION('',(0.,-1.,-3.33066907387548E-15));
#1266=DIRECTION('center_axis',(0.,1.,3.05311331771918E-15));
#1267=DIRECTION('ref_axis',(-1.18423789293348E-14,3.05311331771918E-15,
-1.));
#1268=DIRECTION('center_axis',(6.18508648816243E-17,-1.,0.));
#1269=DIRECTION('ref_axis',(-1.18423789293348E-14,3.05311331771918E-15,
-1.));
#1270=DIRECTION('center_axis',(0.,1.,0.));
#1271=DIRECTION('ref_axis',(-1.18423789293348E-14,3.33066907387548E-15,
-1.));
#1272=DIRECTION('center_axis',(-4.48383304652014E-30,-3.05311331771918E-15,
1.));
#1273=DIRECTION('ref_axis',(1.,-1.4686100972727E-15,-1.75162308040602E-46));
#1274=DIRECTION('',(-1.,-6.18508648816243E-17,-4.67267074580267E-30));
#1275=DIRECTION('',(0.,1.,3.05311331771918E-15));
#1276=DIRECTION('',(1.,0.,4.89145423256744E-30));
#1277=DIRECTION('center_axis',(0.,1.,3.05311331771918E-15));
#1278=DIRECTION('ref_axis',(1.,3.27048583622873E-29,-1.07321559047097E-14));
#1279=DIRECTION('center_axis',(6.18508648816243E-17,-1.,0.));
#1280=DIRECTION('ref_axis',(1.,3.27048583622873E-29,-1.07321559047097E-14));
#1281=DIRECTION('center_axis',(0.,1.,0.));
#1282=DIRECTION('ref_axis',(1.,3.58274327787871E-29,-1.07321559047097E-14));
#1283=DIRECTION('',(0.,-1.,-3.33066907387548E-15));
#1284=DIRECTION('center_axis',(1.,-1.40302445699707E-44,4.59538939761725E-30));
#1285=DIRECTION('ref_axis',(4.59538939761725E-30,3.1290738134997E-15,-1.));
#1286=DIRECTION('',(-4.59538939761725E-30,-2.84228808710474E-46,1.));
#1287=DIRECTION('',(4.59538939761725E-30,0.,-1.));
#1288=DIRECTION('',(0.,-1.,-3.33066907387548E-15));
#1289=DIRECTION('center_axis',(0.,1.,3.05311331771918E-15));
#1290=DIRECTION('ref_axis',(1.18423789293349E-14,-3.05311331771918E-15,
1.));
#1291=DIRECTION('center_axis',(6.18508648816243E-17,-1.,0.));
#1292=DIRECTION('ref_axis',(1.18423789293349E-14,-3.05311331771918E-15,
1.));
#1293=DIRECTION('center_axis',(0.,1.,0.));
#1294=DIRECTION('ref_axis',(1.18423789293349E-14,-3.33066907387548E-15,
1.));
#1295=DIRECTION('center_axis',(-0.408248290463865,0.408248290463861,0.816496580927726));
#1296=DIRECTION('ref_axis',(0.894427190999915,0.,0.44721359549996));
#1297=DIRECTION('',(0.,-0.894427190999916,0.447213595499957));
#1298=DIRECTION('',(0.577350269189624,-0.577350269189627,0.577350269189626));
#1299=DIRECTION('',(0.707106781186544,0.707106781186551,0.));
#1300=DIRECTION('',(-0.577350269189624,0.577350269189627,-0.577350269189626));
#1301=DIRECTION('',(-0.894427190999915,-5.53210953369865E-17,-0.44721359549996));
#1302=DIRECTION('center_axis',(-4.37351659800494E-17,0.707106781186547,
0.707106781186548));
#1303=DIRECTION('ref_axis',(1.,0.,6.18508648816243E-17));
#1304=DIRECTION('',(1.,6.18508648816243E-17,0.));
#1305=DIRECTION('',(-0.577350269189624,-0.577350269189627,0.577350269189626));
#1306=DIRECTION('',(-1.,-6.18508648816243E-17,0.));
#1307=DIRECTION('center_axis',(0.,0.,1.));
#1308=DIRECTION('ref_axis',(-1.,0.,0.));
#1309=DIRECTION('',(0.,1.,0.));
#1310=DIRECTION('',(-0.707106781186548,0.707106781186548,0.));
#1311=DIRECTION('',(-1.,0.,0.));
#1312=DIRECTION('',(-0.70710678118654,-0.707106781186555,0.));
#1313=DIRECTION('',(0.,-1.,0.));
#1314=DIRECTION('',(0.707106781186533,-0.707106781186562,0.));
#1315=DIRECTION('',(1.,0.,0.));
#1316=DIRECTION('',(0.,-1.,0.));
#1317=DIRECTION('',(-1.,0.,0.));
#1318=DIRECTION('',(0.,1.,0.));
#1319=DIRECTION('',(-1.,0.,0.));
#1320=DIRECTION('',(0.,1.,0.));
#1321=DIRECTION('',(1.,0.,0.));
#1322=DIRECTION('',(0.,-1.,0.));
#1323=DIRECTION('center_axis',(0.,0.,-1.));
#1324=DIRECTION('ref_axis',(-1.,0.,0.));
#1325=DIRECTION('center_axis',(-0.707106781186549,0.,0.707106781186546));
#1326=DIRECTION('ref_axis',(0.707106781186546,0.,0.707106781186549));
#1327=DIRECTION('',(0.,-1.,0.));
#1328=DIRECTION('',(-0.577350269189625,-0.577350269189625,-0.577350269189627));
#1329=DIRECTION('center_axis',(-0.408248290463864,-0.408248290463864,0.816496580927725));
#1330=DIRECTION('ref_axis',(0.894427190999915,0.,0.447213595499959));
#1331=DIRECTION('',(0.894427190999915,0.,0.447213595499959));
#1332=DIRECTION('',(0.577350269189625,0.577350269189625,0.577350269189627));
#1333=DIRECTION('',(0.,-0.894427190999915,-0.447213595499959));
#1334=DIRECTION('center_axis',(0.,-0.707106781186549,0.707106781186546));
#1335=DIRECTION('ref_axis',(1.,0.,0.));
#1336=DIRECTION('',(1.,0.,0.));
#1337=DIRECTION('',(0.577350269189625,-0.577350269189625,-0.577350269189627));
#1338=DIRECTION('center_axis',(0.408248290463868,-0.40824829046386,0.816496580927725));
#1339=DIRECTION('ref_axis',(0.894427190999913,0.,-0.447213595499963));
#1340=DIRECTION('',(0.,0.894427190999917,0.447213595499955));
#1341=DIRECTION('',(-0.577350269189625,0.577350269189625,0.577350269189627));
#1342=DIRECTION('',(0.894427190999913,0.,-0.447213595499963));
#1343=DIRECTION('center_axis',(0.707106781186549,0.,0.707106781186546));
#1344=DIRECTION('ref_axis',(0.707106781186546,0.,-0.707106781186549));
#1345=DIRECTION('',(0.,1.,0.));
#1346=DIRECTION('',(0.577350269189624,0.577350269189627,-0.577350269189626));
#1347=DIRECTION('center_axis',(0.408248290463871,0.408248290463855,0.816496580927726));
#1348=DIRECTION('ref_axis',(0.894427190999912,0.,-0.447213595499965));
#1349=DIRECTION('',(-0.894427190999912,-5.53210953369864E-17,0.447213595499965));
#1350=DIRECTION('',(0.,0.894427190999919,-0.447213595499951));
#1351=DIRECTION('center_axis',(-6.18508648816243E-17,1.,0.));
#1352=DIRECTION('ref_axis',(-1.,-6.18508648816243E-17,0.));
#1353=DIRECTION('',(0.,0.,1.));
#1354=DIRECTION('',(0.,0.,-1.));
#1355=DIRECTION('center_axis',(1.,0.,0.));
#1356=DIRECTION('ref_axis',(0.,1.,0.));
#1357=DIRECTION('',(0.,0.,1.));
#1358=DIRECTION('center_axis',(0.,0.707106781186547,0.707106781186548));
#1359=DIRECTION('ref_axis',(1.,0.,0.));
#1360=DIRECTION('',(-0.577350269189624,0.577350269189627,-0.577350269189626));
#1361=DIRECTION('',(-1.,0.,0.));
#1362=DIRECTION('',(0.577350269189624,0.577350269189627,-0.577350269189626));
#1363=DIRECTION('center_axis',(-0.707106781186549,0.,0.707106781186546));
#1364=DIRECTION('ref_axis',(0.707106781186546,0.,0.707106781186549));
#1365=DIRECTION('',(-0.577350269189624,-0.577350269189627,-0.577350269189626));
#1366=DIRECTION('',(0.,-1.,0.));
#1367=DIRECTION('center_axis',(0.,-0.707106781186547,0.707106781186548));
#1368=DIRECTION('ref_axis',(1.,0.,0.));
#1369=DIRECTION('',(0.577350269189624,-0.577350269189627,-0.577350269189626));
#1370=DIRECTION('',(1.,0.,0.));
#1371=DIRECTION('center_axis',(0.707106781186549,0.,0.707106781186546));
#1372=DIRECTION('ref_axis',(0.707106781186546,0.,-0.707106781186549));
#1373=DIRECTION('',(0.,1.,0.));
#1374=DIRECTION('center_axis',(0.,1.,0.));
#1375=DIRECTION('ref_axis',(1.,0.,0.));
#1376=DIRECTION('',(-1.,0.,0.));
#1377=DIRECTION('',(0.,0.,-1.));
#1378=DIRECTION('',(1.,0.,0.));
#1379=DIRECTION('',(0.,0.,-1.));
#1380=DIRECTION('center_axis',(1.,0.,0.));
#1381=DIRECTION('ref_axis',(0.,-1.,0.));
#1382=DIRECTION('',(0.,1.,0.));
#1383=DIRECTION('',(0.,-1.,0.));
#1384=DIRECTION('',(0.,0.,-1.));
#1385=DIRECTION('center_axis',(0.,-1.,0.));
#1386=DIRECTION('ref_axis',(-1.,0.,0.));
#1387=DIRECTION('',(1.,0.,0.));
#1388=DIRECTION('',(-1.,0.,0.));
#1389=DIRECTION('',(0.,0.,-1.));
#1390=DIRECTION('center_axis',(-1.,0.,0.));
#1391=DIRECTION('ref_axis',(0.,1.,0.));
#1392=DIRECTION('',(0.,-1.,0.));
#1393=DIRECTION('',(0.,1.,0.));
#1394=DIRECTION('center_axis',(0.,-1.,0.));
#1395=DIRECTION('ref_axis',(-1.,0.,0.));
#1396=DIRECTION('',(1.,0.,0.));
#1397=DIRECTION('',(0.,0.,-1.));
#1398=DIRECTION('',(-1.,0.,0.));
#1399=DIRECTION('',(0.,0.,-1.));
#1400=DIRECTION('center_axis',(1.,0.,0.));
#1401=DIRECTION('ref_axis',(0.,-1.,0.));
#1402=DIRECTION('',(0.,1.,0.));
#1403=DIRECTION('',(0.,-1.,0.));
#1404=DIRECTION('',(0.,0.,-1.));
#1405=DIRECTION('center_axis',(0.,1.,0.));
#1406=DIRECTION('ref_axis',(1.,0.,0.));
#1407=DIRECTION('',(-1.,0.,0.));
#1408=DIRECTION('',(1.,0.,0.));
#1409=DIRECTION('',(0.,0.,-1.));
#1410=DIRECTION('center_axis',(-1.,0.,0.));
#1411=DIRECTION('ref_axis',(0.,1.,0.));
#1412=DIRECTION('',(0.,-1.,0.));
#1413=DIRECTION('',(0.,1.,0.));
#1414=DIRECTION('center_axis',(0.,0.,-1.));
#1415=DIRECTION('ref_axis',(-1.,0.,0.));
#1416=DIRECTION('center_axis',(0.,0.,1.));
#1417=DIRECTION('ref_axis',(-1.,0.,0.));
#1418=DIRECTION('',(0.,-1.,0.));
#1419=DIRECTION('',(-1.,0.,0.));
#1420=DIRECTION('',(0.,1.,0.));
#1421=DIRECTION('',(1.,0.,0.));
#1422=DIRECTION('',(-1.,0.,0.));
#1423=DIRECTION('',(0.,-1.,0.));
#1424=DIRECTION('',(1.,0.,0.));
#1425=DIRECTION('',(0.,1.,0.));
#1426=DIRECTION('center_axis',(0.,0.,-1.));
#1427=DIRECTION('ref_axis',(-1.,0.,0.));
#1428=DIRECTION('center_axis',(0.,0.,1.));
#1429=DIRECTION('ref_axis',(-1.,0.,0.));
#1430=DIRECTION('center_axis',(0.,0.,1.));
#1431=DIRECTION('ref_axis',(-1.,0.,0.));
#1432=DIRECTION('',(0.,0.,-1.));
#1433=DIRECTION('center_axis',(-1.,0.,0.));
#1434=DIRECTION('ref_axis',(0.,-1.,0.));
#1435=DIRECTION('',(0.,0.,1.));
#1436=DIRECTION('',(0.,0.,1.));
#1437=DIRECTION('center_axis',(0.,-1.,0.));
#1438=DIRECTION('ref_axis',(1.,0.,0.));
#1439=DIRECTION('',(0.,0.,1.));
#1440=DIRECTION('center_axis',(1.,0.,0.));
#1441=DIRECTION('ref_axis',(0.,1.,0.));
#1442=DIRECTION('',(0.,0.,1.));
#1443=DIRECTION('center_axis',(0.,1.,0.));
#1444=DIRECTION('ref_axis',(-1.,0.,0.));
#1445=DIRECTION('center_axis',(-1.,0.,0.));
#1446=DIRECTION('ref_axis',(0.,-1.,0.));
#1447=DIRECTION('',(0.,0.,-1.));
#1448=DIRECTION('',(0.,0.,1.));
#1449=DIRECTION('center_axis',(0.,-1.,0.));
#1450=DIRECTION('ref_axis',(1.,0.,0.));
#1451=DIRECTION('',(0.,0.,1.));
#1452=DIRECTION('center_axis',(1.,0.,0.));
#1453=DIRECTION('ref_axis',(0.,1.,0.));
#1454=DIRECTION('',(0.,0.,1.));
#1455=DIRECTION('center_axis',(0.,1.,0.));
#1456=DIRECTION('ref_axis',(-1.,0.,0.));
#1457=DIRECTION('center_axis',(0.,-1.,0.));
#1458=DIRECTION('ref_axis',(1.,0.,0.));
#1459=DIRECTION('',(0.,0.,1.));
#1460=DIRECTION('center_axis',(-1.,0.,0.));
#1461=DIRECTION('ref_axis',(0.,-1.,0.));
#1462=CARTESIAN_POINT('',(0.,0.,0.));
#1463=CARTESIAN_POINT('Origin',(102.099999999993,-87.9500000000003,-4.052));
#1464=CARTESIAN_POINT('',(102.599999999993,-62.5000000000003,-4.052));
#1465=CARTESIAN_POINT('',(102.099999999993,-62.5000000000003,-3.552));
#1466=CARTESIAN_POINT('Origin',(102.099999999993,-62.5000000000003,-4.052));
#1467=CARTESIAN_POINT('',(102.099999999993,-68.5000000000003,-3.552));
#1468=CARTESIAN_POINT('',(102.099999999993,-87.9500000000003,-3.552));
#1469=CARTESIAN_POINT('',(102.599999999993,-68.5000000000003,-4.052));
#1470=CARTESIAN_POINT('Origin',(102.099999999993,-68.5000000000003,-4.052));
#1471=CARTESIAN_POINT('',(102.599999999993,-87.9500000000003,-4.052));
#1472=CARTESIAN_POINT('Origin',(102.599999999993,-68.5000000000003,-3.552));
#1473=CARTESIAN_POINT('',(100.599999999993,-62.5000000000003,-3.552));
#1474=CARTESIAN_POINT('',(102.599999999993,-62.5000000000003,-3.552));
#1475=CARTESIAN_POINT('',(100.599999999993,-68.5000000000003,-3.552));
#1476=CARTESIAN_POINT('',(100.599999999993,-45.0500000000003,-3.552));
#1477=CARTESIAN_POINT('',(102.599999999993,-68.5000000000003,-3.552));
#1478=CARTESIAN_POINT('Origin',(102.599999999993,-68.5000000000003,-1.552));
#1479=CARTESIAN_POINT('',(102.599999999993,-68.5000000000003,-1.552));
#1480=CARTESIAN_POINT('',(102.599999999993,-68.5000000000003,-0.0210000000000002));
#1481=CARTESIAN_POINT('',(100.599999999993,-68.5000000000003,-1.552));
#1482=CARTESIAN_POINT('',(100.599999999993,-68.5000000000003,-0.0210000000000002));
#1483=CARTESIAN_POINT('',(102.599999999993,-68.5000000000003,-1.552));
#1484=CARTESIAN_POINT('Origin',(102.599999999993,-62.5000000000003,-1.552));
#1485=CARTESIAN_POINT('',(102.599999999993,-62.5000000000003,-1.552));
#1486=CARTESIAN_POINT('',(102.599999999993,-84.9500000000003,-1.552));
#1487=CARTESIAN_POINT('',(100.599999999993,-62.5000000000003,-1.552));
#1488=CARTESIAN_POINT('',(100.599999999993,-42.0500000000003,-1.552));
#1489=CARTESIAN_POINT('',(102.599999999993,-62.5000000000003,-1.552));
#1490=CARTESIAN_POINT('Origin',(102.599999999993,-62.5000000000003,-3.552));
#1491=CARTESIAN_POINT('',(102.599999999993,-62.5000000000003,-1.021));
#1492=CARTESIAN_POINT('',(100.599999999993,-62.5000000000003,-1.021));
#1493=CARTESIAN_POINT('Origin',(170.899999999993,-46.0500000000003,-4.052));
#1494=CARTESIAN_POINT('',(170.399999999993,-68.5000000000003,-4.052));
#1495=CARTESIAN_POINT('',(170.899999999993,-68.5000000000003,-3.552));
#1496=CARTESIAN_POINT('Origin',(170.899999999993,-68.5000000000003,-4.052));
#1497=CARTESIAN_POINT('',(170.899999999993,-62.5000000000003,-3.552));
#1498=CARTESIAN_POINT('',(170.899999999993,-46.0500000000003,-3.552));
#1499=CARTESIAN_POINT('',(170.399999999993,-62.5000000000003,-4.052));
#1500=CARTESIAN_POINT('Origin',(170.899999999993,-62.5000000000003,-4.052));
#1501=CARTESIAN_POINT('',(170.399999999993,-46.0500000000003,-4.052));
#1502=CARTESIAN_POINT('Origin',(170.399999999993,-68.5000000000003,-3.552));
#1503=CARTESIAN_POINT('',(172.399999999993,-68.5000000000003,-3.552));
#1504=CARTESIAN_POINT('',(170.399999999993,-68.5000000000003,-3.552));
#1505=CARTESIAN_POINT('',(172.399999999993,-62.5000000000003,-3.552));
#1506=CARTESIAN_POINT('',(172.399999999993,-88.9500000000003,-3.552));
#1507=CARTESIAN_POINT('',(170.399999999993,-62.5000000000003,-3.552));
#1508=CARTESIAN_POINT('Origin',(170.399999999993,-68.5000000000003,-1.552));
#1509=CARTESIAN_POINT('',(170.399999999993,-68.5000000000003,-1.552));
#1510=CARTESIAN_POINT('',(170.399999999993,-68.5000000000003,-0.0210000000000002));
#1511=CARTESIAN_POINT('',(172.399999999993,-68.5000000000003,-1.552));
#1512=CARTESIAN_POINT('',(170.399999999993,-68.5000000000003,-1.552));
#1513=CARTESIAN_POINT('',(172.399999999993,-68.5000000000003,-0.0210000000000002));
#1514=CARTESIAN_POINT('Origin',(170.399999999993,-62.5000000000003,-1.552));
#1515=CARTESIAN_POINT('',(170.399999999993,-62.5000000000003,-1.552));
#1516=CARTESIAN_POINT('',(170.399999999993,-43.0500000000003,-1.552));
#1517=CARTESIAN_POINT('',(172.399999999993,-62.5000000000003,-1.552));
#1518=CARTESIAN_POINT('',(170.399999999993,-62.5000000000003,-1.552));
#1519=CARTESIAN_POINT('',(172.399999999993,-85.9500000000003,-1.552));
#1520=CARTESIAN_POINT('Origin',(170.399999999993,-62.5000000000003,-3.552));
#1521=CARTESIAN_POINT('',(170.399999999993,-62.5000000000003,-1.021));
#1522=CARTESIAN_POINT('',(172.399999999993,-62.5000000000003,-1.021));
#1523=CARTESIAN_POINT('Origin',(136.499999999993,-65.5000000000003,-4.552));
#1524=CARTESIAN_POINT('',(142.062059813152,-23.6000000000003,-4.552));
#1525=CARTESIAN_POINT('',(142.062059813152,-21.6000000000003,-4.552));
#1526=CARTESIAN_POINT('',(142.062059813152,-23.12,-4.552));
#1527=CARTESIAN_POINT('',(172.399999999993,-21.6000000000003,-4.552));
#1528=CARTESIAN_POINT('',(100.599999999993,-21.6000000000003,-4.552));
#1529=CARTESIAN_POINT('',(172.399999999993,-109.4,-4.552));
#1530=CARTESIAN_POINT('',(172.399999999993,-21.6000000000003,-4.552));
#1531=CARTESIAN_POINT('',(100.599999999993,-109.4,-4.552));
#1532=CARTESIAN_POINT('',(172.399999999993,-109.4,-4.552));
#1533=CARTESIAN_POINT('',(100.599999999993,-21.6000000000003,-4.552));
#1534=CARTESIAN_POINT('',(100.599999999993,-109.4,-4.552));
#1535=CARTESIAN_POINT('',(131.687940186848,-21.6000000000003,-4.552));
#1536=CARTESIAN_POINT('',(100.599999999993,-21.6000000000003,-4.552));
#1537=CARTESIAN_POINT('',(131.687940186848,-23.6000000000003,-4.552));
#1538=CARTESIAN_POINT('',(131.687940186848,-23.12,-4.552));
#1539=CARTESIAN_POINT('',(102.599999999993,-23.6000000000003,-4.552));
#1540=CARTESIAN_POINT('',(102.599999999993,-23.6000000000003,-4.552));
#1541=CARTESIAN_POINT('',(102.599999999993,-107.4,-4.552));
#1542=CARTESIAN_POINT('',(102.599999999993,-107.4,-4.552));
#1543=CARTESIAN_POINT('',(170.399999999993,-107.4,-4.552));
#1544=CARTESIAN_POINT('',(170.399999999993,-107.4,-4.552));
#1545=CARTESIAN_POINT('',(170.399999999993,-23.6000000000003,-4.552));
#1546=CARTESIAN_POINT('',(170.399999999993,-23.6000000000003,-4.552));
#1547=CARTESIAN_POINT('',(102.599999999993,-23.6000000000003,-4.552));
#1548=CARTESIAN_POINT('Origin',(132.875,-23.12,-2.13499999999999));
#1549=CARTESIAN_POINT('',(132.875,-21.6000000000003,-0.634999999999967));
#1550=CARTESIAN_POINT('',(131.375,-21.6000000000003,-2.13499999999997));
#1551=CARTESIAN_POINT('Origin',(132.875,-21.6000000000003,-2.13499999999999));
#1552=CARTESIAN_POINT('',(132.875,-23.6000000000003,-0.634999999999973));
#1553=CARTESIAN_POINT('',(132.875,-23.12,-0.634999999999971));
#1554=CARTESIAN_POINT('',(131.375,-23.6000000000003,-2.13499999999998));
#1555=CARTESIAN_POINT('Origin',(132.875,-23.6000000000003,-2.13499999999999));
#1556=CARTESIAN_POINT('',(131.375,-23.12,-2.13499999999998));
#1557=CARTESIAN_POINT('Origin',(131.375,-23.12,-3.63499999999998));
#1558=CARTESIAN_POINT('',(131.375,-21.6000000000003,-3.63499999999997));
#1559=CARTESIAN_POINT('',(131.375,-21.6000000000003,-1.06249999999999));
#1560=CARTESIAN_POINT('',(131.375,-23.6000000000003,-3.63499999999998));
#1561=CARTESIAN_POINT('',(131.375,-23.6000000000003,-0.312499999999988));
#1562=CARTESIAN_POINT('',(131.375,-23.12,-3.63499999999998));
#1563=CARTESIAN_POINT('Origin',(132.875,-23.12,-3.63499999999996));
#1564=CARTESIAN_POINT('Origin',(132.875,-21.6000000000003,-3.63499999999996));
#1565=CARTESIAN_POINT('Origin',(132.875,-23.6000000000003,-3.63499999999996));
#1566=CARTESIAN_POINT('Origin',(132.875,-23.12,-0.634999999999977));
#1567=CARTESIAN_POINT('',(140.875,-21.6000000000003,-0.634999999999972));
#1568=CARTESIAN_POINT('',(152.637499999996,-21.6000000000003,-0.634999999999972));
#1569=CARTESIAN_POINT('',(140.875,-23.6000000000003,-0.634999999999978));
#1570=CARTESIAN_POINT('',(140.875,-23.12,-0.634999999999977));
#1571=CARTESIAN_POINT('',(121.737499999997,-23.6000000000003,-0.634999999999978));
#1572=CARTESIAN_POINT('Origin',(140.875,-23.12,-3.63499999999996));
#1573=CARTESIAN_POINT('',(142.375,-21.6000000000003,-3.63499999999997));
#1574=CARTESIAN_POINT('Origin',(140.875,-21.6000000000003,-3.63499999999996));
#1575=CARTESIAN_POINT('',(142.375,-23.6000000000003,-3.63499999999998));
#1576=CARTESIAN_POINT('Origin',(140.875,-23.6000000000003,-3.63499999999996));
#1577=CARTESIAN_POINT('',(142.375,-23.12,-3.63499999999998));
#1578=CARTESIAN_POINT('Origin',(142.375,-23.12,-2.13499999999998));
#1579=CARTESIAN_POINT('',(142.375,-21.6000000000003,-2.13499999999997));
#1580=CARTESIAN_POINT('',(142.375,-21.6000000000003,-0.312499999999988));
#1581=CARTESIAN_POINT('',(142.375,-23.6000000000003,-2.13499999999998));
#1582=CARTESIAN_POINT('',(142.375,-23.6000000000003,-1.06249999999999));
#1583=CARTESIAN_POINT('',(142.375,-23.12,-2.13499999999998));
#1584=CARTESIAN_POINT('Origin',(140.875,-23.12,-2.13499999999999));
#1585=CARTESIAN_POINT('Origin',(140.875,-21.6000000000003,-2.13499999999999));
#1586=CARTESIAN_POINT('Origin',(140.875,-23.6000000000003,-2.13499999999999));
#1587=CARTESIAN_POINT('Origin',(114.308248290457,-35.3082482904642,23.9935034190723));
#1588=CARTESIAN_POINT('',(100.599999999993,-21.6000000000003,10.2852551286084));
#1589=CARTESIAN_POINT('',(100.599999999993,-24.0494897427835,11.51));
#1590=CARTESIAN_POINT('',(100.599999999993,-28.069897948557,13.5202041028867));
#1591=CARTESIAN_POINT('',(102.599999999993,-26.0494897427835,13.51));
#1592=CARTESIAN_POINT('',(113.083503419065,-36.5329931618558,23.9935034190723));
#1593=CARTESIAN_POINT('',(105.049489742776,-23.6000000000003,13.51));
#1594=CARTESIAN_POINT('',(101.824744871384,-26.8247448713921,13.51));
#1595=CARTESIAN_POINT('',(103.049489742776,-21.6000000000003,11.51));
#1596=CARTESIAN_POINT('',(115.532993161848,-34.0835034190726,23.9935034190723));
#1597=CARTESIAN_POINT('',(135.78989794855,-21.6000000000003,27.8802041028868));
#1598=CARTESIAN_POINT('Origin',(154.449999999993,-22.6000000000003,12.51));
#1599=CARTESIAN_POINT('',(167.95051025721,-23.6000000000003,13.51));
#1600=CARTESIAN_POINT('',(154.449999999993,-23.6000000000003,13.51));
#1601=CARTESIAN_POINT('',(169.95051025721,-21.6000000000003,11.51));
#1602=CARTESIAN_POINT('',(156.133673504804,-35.416836752406,25.3268367524057));
#1603=CARTESIAN_POINT('',(154.449999999993,-21.6000000000003,11.51));
#1604=CARTESIAN_POINT('Origin',(136.499999999993,-65.5000000000003,13.51));
#1605=CARTESIAN_POINT('',(102.599999999993,-104.950510257217,13.51));
#1606=CARTESIAN_POINT('',(102.599999999993,-43.5500000000003,13.51));
#1607=CARTESIAN_POINT('',(105.049489742776,-107.4,13.51));
#1608=CARTESIAN_POINT('',(101.824744871385,-104.175255128609,13.51));
#1609=CARTESIAN_POINT('',(167.95051025721,-107.4,13.51));
#1610=CARTESIAN_POINT('',(118.549999999993,-107.4,13.51));
#1611=CARTESIAN_POINT('',(170.399999999993,-104.950510257217,13.51));
#1612=CARTESIAN_POINT('',(171.175255128602,-104.175255128608,13.51));
#1613=CARTESIAN_POINT('',(170.399999999993,-26.0494897427835,13.51));
#1614=CARTESIAN_POINT('',(170.399999999993,-87.4500000000003,13.51));
#1615=CARTESIAN_POINT('',(171.175255128602,-26.8247448713925,13.51));
#1616=CARTESIAN_POINT('',(112.400005433708,-42.1499991025776,13.51));
#1617=CARTESIAN_POINT('',(142.199996866286,-42.1499991025776,13.51));
#1618=CARTESIAN_POINT('',(138.349998433139,-42.1499991025776,13.51));
#1619=CARTESIAN_POINT('',(112.400005433708,-26.8500013703015,13.51));
#1620=CARTESIAN_POINT('',(112.400005433708,-52.8249995512889,13.51));
#1621=CARTESIAN_POINT('',(142.199996866286,-26.8500013703015,13.51));
#1622=CARTESIAN_POINT('',(125.450002716851,-26.8500013703015,13.51));
#1623=CARTESIAN_POINT('',(142.199996866286,-47.1750006851509,13.51));
#1624=CARTESIAN_POINT('',(166.000002473593,-103.00000153482,13.51));
#1625=CARTESIAN_POINT('',(108.000001609325,-103.00000153482,13.51));
#1626=CARTESIAN_POINT('',(166.000002473593,-103.00000153482,13.51));
#1627=CARTESIAN_POINT('',(108.000001609325,-45.0000006705523,13.51));
#1628=CARTESIAN_POINT('',(108.000001609325,-103.00000153482,13.51));
#1629=CARTESIAN_POINT('',(166.000002473593,-45.0000006705523,13.51));
#1630=CARTESIAN_POINT('',(108.000001609325,-45.0000006705523,13.51));
#1631=CARTESIAN_POINT('',(166.000002473593,-45.0000006705523,13.51));
#1632=CARTESIAN_POINT('',(166.051198899651,-34.6980430619422,13.51));
#1633=CARTESIAN_POINT('Origin',(158.051198899651,-34.6980430619422,13.51));
#1634=CARTESIAN_POINT('Origin',(101.599999999993,-43.5500000000003,12.51));
#1635=CARTESIAN_POINT('',(100.599999999993,-106.950510257217,11.51));
#1636=CARTESIAN_POINT('',(100.599999999993,-43.5500000000003,11.51));
#1637=CARTESIAN_POINT('',(114.416836752399,-93.1336735048116,25.3268367524056));
#1638=CARTESIAN_POINT('Origin',(115.64158162379,-94.3584183762032,25.3268367524056));
#1639=CARTESIAN_POINT('',(100.599999999993,-109.4,10.2852551286084));
#1640=CARTESIAN_POINT('',(103.049489742776,-109.4,11.51));
#1641=CARTESIAN_POINT('',(107.86989794855,-109.4,13.9202041028867));
#1642=CARTESIAN_POINT('',(116.866326495182,-95.5831632475948,25.3268367524056));
#1643=CARTESIAN_POINT('',(100.599999999993,-67.0101020514438,31.4802041028868));
#1644=CARTESIAN_POINT('Origin',(118.549999999993,-108.4,12.51));
#1645=CARTESIAN_POINT('',(169.95051025721,-109.4,11.51));
#1646=CARTESIAN_POINT('',(118.549999999993,-109.4,11.51));
#1647=CARTESIAN_POINT('',(157.467006838138,-96.9164965809281,23.9935034190723));
#1648=CARTESIAN_POINT('Origin',(158.691751709529,-95.6917517095365,23.9935034190723));
#1649=CARTESIAN_POINT('',(172.399999999993,-109.4,10.2852551286084));
#1650=CARTESIAN_POINT('',(172.399999999993,-106.950510257217,11.51));
#1651=CARTESIAN_POINT('',(172.399999999993,-102.930102051444,13.5202041028867));
#1652=CARTESIAN_POINT('',(159.916496580921,-94.4670068381449,23.9935034190723));
#1653=CARTESIAN_POINT('',(137.210102051437,-109.4,27.8802041028869));
#1654=CARTESIAN_POINT('Origin',(171.399999999993,-87.4500000000003,12.51));
#1655=CARTESIAN_POINT('',(172.399999999993,-24.0494897427835,11.51));
#1656=CARTESIAN_POINT('',(172.399999999993,-87.4500000000003,11.51));
#1657=CARTESIAN_POINT('',(158.583163247587,-37.8663264951891,25.3268367524056));
#1658=CARTESIAN_POINT('Origin',(157.358418376196,-36.6415816237976,25.3268367524056));
#1659=CARTESIAN_POINT('',(172.399999999993,-21.6000000000003,10.2852551286084));
#1660=CARTESIAN_POINT('',(165.130102051436,-21.6000000000003,13.9202041028868));
#1661=CARTESIAN_POINT('',(172.399999999993,-63.9898979485573,31.4802041028865));
#1662=CARTESIAN_POINT('Origin',(172.399999999993,-21.6000000000003,1.51));
#1663=CARTESIAN_POINT('',(100.599999999993,-21.6000000000003,1.51));
#1664=CARTESIAN_POINT('',(172.399999999993,-21.6000000000003,1.51));
#1665=CARTESIAN_POINT('Origin',(172.399999999993,-109.4,1.51));
#1666=CARTESIAN_POINT('',(172.399999999993,-109.4,1.51));
#1667=CARTESIAN_POINT('Origin',(138.349998433139,-41.1499991025776,12.51));
#1668=CARTESIAN_POINT('',(140.199996866286,-40.1499991025776,11.51));
#1669=CARTESIAN_POINT('',(142.199996866286,-42.1499991025776,13.51));
#1670=CARTESIAN_POINT('',(114.400005433708,-40.1499991025776,11.51));
#1671=CARTESIAN_POINT('',(140.199996866286,-40.1499991025776,11.51));
#1672=CARTESIAN_POINT('',(112.400005433708,-42.1499991025776,13.51));
#1673=CARTESIAN_POINT('Origin',(141.199996866286,-47.1750006851509,12.51));
#1674=CARTESIAN_POINT('',(140.199996866286,-28.8500013703015,11.51));
#1675=CARTESIAN_POINT('',(142.199996866286,-26.8500013703015,13.51));
#1676=CARTESIAN_POINT('',(140.199996866286,-28.8500013703015,11.51));
#1677=CARTESIAN_POINT('Origin',(125.450002716851,-27.8500013703015,12.51));
#1678=CARTESIAN_POINT('',(114.400005433708,-28.8500013703015,11.51));
#1679=CARTESIAN_POINT('',(112.400005433708,-26.8500013703015,13.51));
#1680=CARTESIAN_POINT('',(114.400005433708,-28.8500013703015,11.51));
#1681=CARTESIAN_POINT('Origin',(113.400005433708,-52.8249995512889,12.51));
#1682=CARTESIAN_POINT('',(114.400005433708,-40.1499991025776,11.51));
#1683=CARTESIAN_POINT('Origin',(114.390005433233,-40.1600019074976,11.51));
#1684=CARTESIAN_POINT('',(140.210006659618,-40.1600019074976,11.51));
#1685=CARTESIAN_POINT('',(114.390005433233,-40.1600019074976,11.51));
#1686=CARTESIAN_POINT('',(125.445002716613,-40.1600019074976,11.51));
#1687=CARTESIAN_POINT('',(140.210006659618,-40.1600019074976,6.61));
#1688=CARTESIAN_POINT('',(140.210006659618,-40.1600019074976,11.51));
#1689=CARTESIAN_POINT('',(114.390005433233,-40.1600019074976,6.61));
#1690=CARTESIAN_POINT('',(140.210006659618,-40.1600019074976,6.61));
#1691=CARTESIAN_POINT('',(114.390005433233,-40.1600019074976,11.51));
#1692=CARTESIAN_POINT('Origin',(114.390005433233,-28.8400013698265,11.51));
#1693=CARTESIAN_POINT('',(114.390005433233,-28.8400013698265,11.51));
#1694=CARTESIAN_POINT('',(114.390005433233,-47.1700006849134,11.51));
#1695=CARTESIAN_POINT('',(114.390005433233,-28.8400013698265,6.61));
#1696=CARTESIAN_POINT('',(114.390005433233,-40.1600019074976,6.61));
#1697=CARTESIAN_POINT('',(114.390005433233,-28.8400013698265,11.51));
#1698=CARTESIAN_POINT('Origin',(140.210006659618,-28.8400013698265,11.51));
#1699=CARTESIAN_POINT('',(140.210006659618,-28.8400013698265,11.51));
#1700=CARTESIAN_POINT('',(138.355003329805,-28.8400013698265,11.51));
#1701=CARTESIAN_POINT('',(140.210006659618,-28.8400013698265,6.61));
#1702=CARTESIAN_POINT('',(114.390005433233,-28.8400013698265,6.61));
#1703=CARTESIAN_POINT('',(140.210006659618,-28.8400013698265,11.51));
#1704=CARTESIAN_POINT('Origin',(140.210006659618,-40.1600019074976,11.51));
#1705=CARTESIAN_POINT('',(140.210006659618,-52.830000953749,11.51));
#1706=CARTESIAN_POINT('',(140.210006659618,-28.8400013698265,6.61));
#1707=CARTESIAN_POINT('Origin',(140.610006659618,-40.5600019074976,11.51));
#1708=CARTESIAN_POINT('',(113.990005433233,-40.5600019074976,11.51));
#1709=CARTESIAN_POINT('',(140.610006659618,-40.5600019074976,11.51));
#1710=CARTESIAN_POINT('',(138.555003329805,-40.5600019074976,11.51));
#1711=CARTESIAN_POINT('',(113.990005433233,-40.5600019074976,6.61));
#1712=CARTESIAN_POINT('',(113.990005433233,-40.5600019074976,11.51));
#1713=CARTESIAN_POINT('',(140.610006659618,-40.5600019074976,6.61));
#1714=CARTESIAN_POINT('',(140.610006659618,-40.5600019074976,6.61));
#1715=CARTESIAN_POINT('',(140.610006659618,-40.5600019074976,11.51));
#1716=CARTESIAN_POINT('Origin',(140.610006659618,-28.4400013698265,11.51));
#1717=CARTESIAN_POINT('',(140.610006659618,-28.4400013698265,11.51));
#1718=CARTESIAN_POINT('',(140.610006659618,-46.9700006849134,11.51));
#1719=CARTESIAN_POINT('',(140.610006659618,-28.4400013698265,6.61));
#1720=CARTESIAN_POINT('',(140.610006659618,-28.4400013698265,6.61));
#1721=CARTESIAN_POINT('',(140.610006659618,-28.4400013698265,11.51));
#1722=CARTESIAN_POINT('Origin',(113.990005433233,-28.4400013698265,11.51));
#1723=CARTESIAN_POINT('',(113.990005433233,-28.4400013698265,11.51));
#1724=CARTESIAN_POINT('',(125.245002716613,-28.4400013698265,11.51));
#1725=CARTESIAN_POINT('',(113.990005433233,-28.4400013698265,6.61));
#1726=CARTESIAN_POINT('',(113.990005433233,-28.4400013698265,6.61));
#1727=CARTESIAN_POINT('',(113.990005433233,-28.4400013698265,11.51));
#1728=CARTESIAN_POINT('Origin',(113.990005433233,-40.5600019074976,11.51));
#1729=CARTESIAN_POINT('',(113.990005433233,-53.030000953749,11.51));
#1730=CARTESIAN_POINT('',(113.990005433233,-40.5600019074976,6.61));
#1731=CARTESIAN_POINT('Origin',(127.300006046426,-34.5000016386621,6.61));
#1732=CARTESIAN_POINT('Origin',(136.499999999993,-65.5000000000003,11.51));
#1733=CARTESIAN_POINT('',(170.399999999993,-23.6000000000003,11.51));
#1734=CARTESIAN_POINT('',(170.399999999993,-107.4,11.51));
#1735=CARTESIAN_POINT('',(170.399999999993,-23.6000000000003,11.51));
#1736=CARTESIAN_POINT('',(102.599999999993,-107.4,11.51));
#1737=CARTESIAN_POINT('',(170.399999999993,-107.4,11.51));
#1738=CARTESIAN_POINT('',(102.599999999993,-23.6000000000003,11.51));
#1739=CARTESIAN_POINT('',(102.599999999993,-107.4,11.51));
#1740=CARTESIAN_POINT('',(102.599999999993,-23.6000000000003,11.51));
#1741=CARTESIAN_POINT('',(166.000002473593,-103.00000153482,11.51));
#1742=CARTESIAN_POINT('',(108.000001609325,-103.00000153482,11.51));
#1743=CARTESIAN_POINT('',(166.000002473593,-103.00000153482,11.51));
#1744=CARTESIAN_POINT('',(166.000002473593,-45.0000006705523,11.51));
#1745=CARTESIAN_POINT('',(166.000002473593,-45.0000006705523,11.51));
#1746=CARTESIAN_POINT('',(108.000001609325,-45.0000006705523,11.51));
#1747=CARTESIAN_POINT('',(108.000001609325,-45.0000006705523,11.51));
#1748=CARTESIAN_POINT('',(108.000001609325,-103.00000153482,11.51));
#1749=CARTESIAN_POINT('',(166.051198899651,-34.6980430619422,11.51));
#1750=CARTESIAN_POINT('Origin',(158.051198899651,-34.6980430619422,11.51));
#1751=CARTESIAN_POINT('Origin',(136.499999999993,-65.5000000000003,11.51));
#1752=CARTESIAN_POINT('Origin',(158.051198899651,-34.6980430619422,11.51));
#1753=CARTESIAN_POINT('',(166.051198899651,-34.6980430619422,11.51));
#1754=CARTESIAN_POINT('Origin',(166.000002473593,-45.0000006705523,11.51));
#1755=CARTESIAN_POINT('',(166.000002473593,-103.00000153482,11.51));
#1756=CARTESIAN_POINT('',(166.000002473593,-45.0000006705523,11.51));
#1757=CARTESIAN_POINT('Origin',(108.000001609325,-45.0000006705523,11.51));
#1758=CARTESIAN_POINT('',(108.000001609325,-45.0000006705523,11.51));
#1759=CARTESIAN_POINT('Origin',(108.000001609325,-103.00000153482,11.51));
#1760=CARTESIAN_POINT('',(108.000001609325,-103.00000153482,11.51));
#1761=CARTESIAN_POINT('Origin',(166.000002473593,-103.00000153482,11.51));
#1762=CARTESIAN_POINT('Origin',(170.399999999993,-23.6000000000003,1.51));
#1763=CARTESIAN_POINT('',(170.399999999993,-107.4,1.51));
#1764=CARTESIAN_POINT('',(170.399999999993,-23.6000000000003,1.51));
#1765=CARTESIAN_POINT('Origin',(102.599999999993,-23.6000000000003,1.51));
#1766=CARTESIAN_POINT('',(102.599999999993,-23.6000000000003,1.51));
#1767=CARTESIAN_POINT('Origin',(102.599999999993,-107.4,1.51));
#1768=CARTESIAN_POINT('',(102.599999999993,-107.4,1.51));
#1769=CARTESIAN_POINT('Origin',(170.399999999993,-107.4,1.51));
#1770=CARTESIAN_POINT('Origin',(100.599999999993,-109.4,1.51));
#1771=CARTESIAN_POINT('',(100.599999999993,-109.4,1.51));
#1772=CARTESIAN_POINT('Origin',(100.599999999993,-21.6000000000003,1.51));
#1773=UNCERTAINTY_MEASURE_WITH_UNIT(LENGTH_MEASURE(0.01),#1777,
'DISTANCE_ACCURACY_VALUE',
'Maximum model space distance between geometric entities at asserted c
onnectivities');
#1774=UNCERTAINTY_MEASURE_WITH_UNIT(LENGTH_MEASURE(0.01),#1777,
'DISTANCE_ACCURACY_VALUE',
'Maximum model space distance between geometric entities at asserted c
onnectivities');
#1775=(
GEOMETRIC_REPRESENTATION_CONTEXT(3)
GLOBAL_UNCERTAINTY_ASSIGNED_CONTEXT((#1773))
GLOBAL_UNIT_ASSIGNED_CONTEXT((#1777,#1778,#1779))
REPRESENTATION_CONTEXT('','3D')
);
#1776=(
GEOMETRIC_REPRESENTATION_CONTEXT(3)
GLOBAL_UNCERTAINTY_ASSIGNED_CONTEXT((#1774))
GLOBAL_UNIT_ASSIGNED_CONTEXT((#1777,#1778,#1779))
REPRESENTATION_CONTEXT('','3D')
);
#1777=(
LENGTH_UNIT()
NAMED_UNIT(*)
SI_UNIT(.MILLI.,.METRE.)
);
#1778=(
NAMED_UNIT(*)
PLANE_ANGLE_UNIT()
SI_UNIT($,.RADIAN.)
);
#1779=(
NAMED_UNIT(*)
SI_UNIT($,.STERADIAN.)
SOLID_ANGLE_UNIT()
);
#1780=SHAPE_DEFINITION_REPRESENTATION(#1781,#1782);
#1781=PRODUCT_DEFINITION_SHAPE('',$,#1784);
#1782=SHAPE_REPRESENTATION('',(#1113),#1775);
#1783=PRODUCT_DEFINITION_CONTEXT('part definition',#1788,'design');
#1784=PRODUCT_DEFINITION('2026-08-28-16-42-06-021','Hackpad',#1785,#1783);
#1785=PRODUCT_DEFINITION_FORMATION('',$,#1790);
#1786=PRODUCT_RELATED_PRODUCT_CATEGORY('Hackpad','Hackpad',(#1790));
#1787=APPLICATION_PROTOCOL_DEFINITION('international standard',
'automotive_design',2009,#1788);
#1788=APPLICATION_CONTEXT(
'Core Data for Automotive Mechanical Design Process');
#1789=PRODUCT_CONTEXT('part definition',#1788,'mechanical');
#1790=PRODUCT('2026-08-28-16-42-06-021','Hackpad',
'KiCad electronic assembly',(#1789));
#1791=PRESENTATION_STYLE_ASSIGNMENT((#1794));
#1792=PRESENTATION_STYLE_ASSIGNMENT((#1795));
#1793=PRESENTATION_STYLE_ASSIGNMENT((#1796));
#1794=SURFACE_STYLE_USAGE(.BOTH.,#1797);
#1795=SURFACE_STYLE_USAGE(.BOTH.,#1798);
#1796=SURFACE_STYLE_USAGE(.BOTH.,#1799);
#1797=SURFACE_SIDE_STYLE('',(#1800));
#1798=SURFACE_SIDE_STYLE('',(#1801));
#1799=SURFACE_SIDE_STYLE('',(#1802));
#1800=SURFACE_STYLE_FILL_AREA(#1803);
#1801=SURFACE_STYLE_FILL_AREA(#1804);
#1802=SURFACE_STYLE_FILL_AREA(#1805);
#1803=FILL_AREA_STYLE('Opaque(160,160,160)',(#1806));
#1804=FILL_AREA_STYLE('Steel - Satin',(#1807));
#1805=FILL_AREA_STYLE('ABS (White)',(#1808));
#1806=FILL_AREA_STYLE_COLOUR('Opaque(160,160,160)',#1809);
#1807=FILL_AREA_STYLE_COLOUR('Steel - Satin',#1810);
#1808=FILL_AREA_STYLE_COLOUR('ABS (White)',#1811);
#1809=COLOUR_RGB('Opaque(160,160,160)',0.627450980392157,0.627450980392157,
0.627450980392157);
#1810=COLOUR_RGB('Steel - Satin',0.627450980392157,0.627450980392157,0.627450980392157);
#1811=COLOUR_RGB('ABS (White)',0.964705882352941,0.964705882352941,0.952941176470588);
ENDSEC;
END-ISO-10303-21;
