ISO-10303-21;
HEADER;
/* Generated by software containing ST-Developer
 * from STEP Tools, Inc. (www.steptools.com) 
 */

FILE_DESCRIPTION(
/* description */ ('KiCad electronic assembly'),
/* implementation_level */ '2;1');

FILE_NAME(
/* name */ 'Case_Bottom.step',
/* time_stamp */ '2026-09-01T17:14:36-04:00',
/* author */ (''),
/* organization */ (''),
/* preprocessor_version */ 'ST-DEVELOPER v20.1',
/* originating_system */ 'Autodesk Translation Framework v15.8.0.0',
/* authorisation */ '');

FILE_SCHEMA (('AUTOMOTIVE_DESIGN { 1 0 10303 214 3 1 1 }'));
ENDSEC;

DATA;
#10=MECHANICAL_DESIGN_GEOMETRIC_PRESENTATION_REPRESENTATION('',(#21,#22,
#23,#24,#25),#1819);
#11=ITEM_DEFINED_TRANSFORMATION($,$,#1111,#1200);
#12=(
REPRESENTATION_RELATIONSHIP($,$,#1830,#1829)
REPRESENTATION_RELATIONSHIP_WITH_TRANSFORMATION(#11)
SHAPE_REPRESENTATION_RELATIONSHIP()
);
#13=CONTEXT_DEPENDENT_SHAPE_REPRESENTATION(#12,#1828);
#14=NEXT_ASSEMBLY_USAGE_OCCURRENCE('Component35:1','Component35:1',
'Component35:1',#1832,#1833,'Component35:1');
#15=SHAPE_REPRESENTATION_RELATIONSHIP('SRR','None',#1830,#16);
#16=ADVANCED_BREP_SHAPE_REPRESENTATION('',(#26,#27,#28,#29,#30),#1818);
#17=FACE_BOUND('',#180,.T.);
#18=FACE_BOUND('',#186,.T.);
#19=FACE_BOUND('',#192,.T.);
#20=FACE_BOUND('',#198,.T.);
#21=STYLED_ITEM('',(#1846),#26);
#22=STYLED_ITEM('',(#1845),#27);
#23=STYLED_ITEM('',(#1845),#28);
#24=STYLED_ITEM('',(#1845),#29);
#25=STYLED_ITEM('',(#1845),#30);
#26=MANIFOLD_SOLID_BREP('Body1',#1093);
#27=MANIFOLD_SOLID_BREP('Body2',#1094);
#28=MANIFOLD_SOLID_BREP('Body3',#1095);
#29=MANIFOLD_SOLID_BREP('Body4',#1096);
#30=MANIFOLD_SOLID_BREP('Body5',#1097);
#31=CYLINDRICAL_SURFACE('',#1116,0.5);
#32=CYLINDRICAL_SURFACE('',#1126,0.5);
#33=CYLINDRICAL_SURFACE('',#1141,1.50000000000002);
#34=CYLINDRICAL_SURFACE('',#1145,1.50000000000002);
#35=CYLINDRICAL_SURFACE('',#1168,1.99999999999999);
#36=CYLINDRICAL_SURFACE('',#1170,3.00000117300051);
#37=CYLINDRICAL_SURFACE('',#1177,1.99999999999999);
#38=CYLINDRICAL_SURFACE('',#1179,3.00000117298691);
#39=CYLINDRICAL_SURFACE('',#1186,1.99999999999999);
#40=CYLINDRICAL_SURFACE('',#1188,3.00000117299035);
#41=CYLINDRICAL_SURFACE('',#1195,1.99999999999999);
#42=CYLINDRICAL_SURFACE('',#1197,3.0000011729806);
#43=CIRCLE('',#1115,0.5);
#44=CIRCLE('',#1117,0.5);
#45=CIRCLE('',#1127,0.5);
#46=CIRCLE('',#1128,0.5);
#47=CIRCLE('',#1142,1.50000000000002);
#48=CIRCLE('',#1143,1.50000000000002);
#49=CIRCLE('',#1146,1.50000000000002);
#50=CIRCLE('',#1147,1.50000000000002);
#51=CIRCLE('',#1165,1.99999999999999);
#52=CIRCLE('',#1167,3.00000117300051);
#53=CIRCLE('',#1169,1.99999999999999);
#54=CIRCLE('',#1171,3.00000117300051);
#55=CIRCLE('',#1174,1.99999999999999);
#56=CIRCLE('',#1176,3.00000117298691);
#57=CIRCLE('',#1178,1.99999999999999);
#58=CIRCLE('',#1180,3.00000117298691);
#59=CIRCLE('',#1183,1.99999999999999);
#60=CIRCLE('',#1185,3.00000117299035);
#61=CIRCLE('',#1187,1.99999999999999);
#62=CIRCLE('',#1189,3.00000117299035);
#63=CIRCLE('',#1192,1.99999999999999);
#64=CIRCLE('',#1194,3.0000011729806);
#65=CIRCLE('',#1196,1.99999999999999);
#66=CIRCLE('',#1198,3.0000011729806);
#67=FACE_OUTER_BOUND('',#131,.T.);
#68=FACE_OUTER_BOUND('',#132,.T.);
#69=FACE_OUTER_BOUND('',#133,.T.);
#70=FACE_OUTER_BOUND('',#134,.T.);
#71=FACE_OUTER_BOUND('',#135,.T.);
#72=FACE_OUTER_BOUND('',#136,.T.);
#73=FACE_OUTER_BOUND('',#137,.T.);
#74=FACE_OUTER_BOUND('',#138,.T.);
#75=FACE_OUTER_BOUND('',#139,.T.);
#76=FACE_OUTER_BOUND('',#140,.T.);
#77=FACE_OUTER_BOUND('',#141,.T.);
#78=FACE_OUTER_BOUND('',#142,.T.);
#79=FACE_OUTER_BOUND('',#143,.T.);
#80=FACE_OUTER_BOUND('',#144,.T.);
#81=FACE_OUTER_BOUND('',#145,.T.);
#82=FACE_OUTER_BOUND('',#146,.T.);
#83=FACE_OUTER_BOUND('',#147,.T.);
#84=FACE_OUTER_BOUND('',#148,.T.);
#85=FACE_OUTER_BOUND('',#149,.T.);
#86=FACE_OUTER_BOUND('',#150,.T.);
#87=FACE_OUTER_BOUND('',#151,.T.);
#88=FACE_OUTER_BOUND('',#152,.T.);
#89=FACE_OUTER_BOUND('',#153,.T.);
#90=FACE_OUTER_BOUND('',#154,.T.);
#91=FACE_OUTER_BOUND('',#155,.T.);
#92=FACE_OUTER_BOUND('',#156,.T.);
#93=FACE_OUTER_BOUND('',#157,.T.);
#94=FACE_OUTER_BOUND('',#158,.T.);
#95=FACE_OUTER_BOUND('',#159,.T.);
#96=FACE_OUTER_BOUND('',#160,.T.);
#97=FACE_OUTER_BOUND('',#161,.T.);
#98=FACE_OUTER_BOUND('',#162,.T.);
#99=FACE_OUTER_BOUND('',#163,.T.);
#100=FACE_OUTER_BOUND('',#164,.T.);
#101=FACE_OUTER_BOUND('',#165,.T.);
#102=FACE_OUTER_BOUND('',#166,.T.);
#103=FACE_OUTER_BOUND('',#167,.T.);
#104=FACE_OUTER_BOUND('',#168,.T.);
#105=FACE_OUTER_BOUND('',#169,.T.);
#106=FACE_OUTER_BOUND('',#170,.T.);
#107=FACE_OUTER_BOUND('',#171,.T.);
#108=FACE_OUTER_BOUND('',#172,.T.);
#109=FACE_OUTER_BOUND('',#173,.T.);
#110=FACE_OUTER_BOUND('',#174,.T.);
#111=FACE_OUTER_BOUND('',#175,.T.);
#112=FACE_OUTER_BOUND('',#176,.T.);
#113=FACE_OUTER_BOUND('',#177,.T.);
#114=FACE_OUTER_BOUND('',#178,.T.);
#115=FACE_OUTER_BOUND('',#179,.T.);
#116=FACE_OUTER_BOUND('',#181,.T.);
#117=FACE_OUTER_BOUND('',#182,.T.);
#118=FACE_OUTER_BOUND('',#183,.T.);
#119=FACE_OUTER_BOUND('',#184,.T.);
#120=FACE_OUTER_BOUND('',#185,.T.);
#121=FACE_OUTER_BOUND('',#187,.T.);
#122=FACE_OUTER_BOUND('',#188,.T.);
#123=FACE_OUTER_BOUND('',#189,.T.);
#124=FACE_OUTER_BOUND('',#190,.T.);
#125=FACE_OUTER_BOUND('',#191,.T.);
#126=FACE_OUTER_BOUND('',#193,.T.);
#127=FACE_OUTER_BOUND('',#194,.T.);
#128=FACE_OUTER_BOUND('',#195,.T.);
#129=FACE_OUTER_BOUND('',#196,.T.);
#130=FACE_OUTER_BOUND('',#197,.T.);
#131=EDGE_LOOP('',(#685,#686,#687,#688));
#132=EDGE_LOOP('',(#689,#690,#691,#692));
#133=EDGE_LOOP('',(#693,#694,#695,#696,#697,#698,#699,#700,#701,#702));
#134=EDGE_LOOP('',(#703,#704,#705,#706));
#135=EDGE_LOOP('',(#707,#708,#709,#710,#711,#712,#713,#714,#715,#716));
#136=EDGE_LOOP('',(#717,#718,#719,#720));
#137=EDGE_LOOP('',(#721,#722,#723,#724));
#138=EDGE_LOOP('',(#725,#726,#727,#728));
#139=EDGE_LOOP('',(#729,#730,#731,#732));
#140=EDGE_LOOP('',(#733,#734,#735,#736));
#141=EDGE_LOOP('',(#737,#738,#739,#740));
#142=EDGE_LOOP('',(#741,#742,#743,#744));
#143=EDGE_LOOP('',(#745,#746,#747,#748));
#144=EDGE_LOOP('',(#749,#750,#751,#752));
#145=EDGE_LOOP('',(#753,#754,#755,#756,#757,#758,#759,#760,#761,#762));
#146=EDGE_LOOP('',(#763,#764,#765,#766));
#147=EDGE_LOOP('',(#767,#768,#769,#770));
#148=EDGE_LOOP('',(#771,#772,#773,#774));
#149=EDGE_LOOP('',(#775,#776,#777,#778));
#150=EDGE_LOOP('',(#779,#780,#781,#782));
#151=EDGE_LOOP('',(#783,#784,#785,#786));
#152=EDGE_LOOP('',(#787,#788,#789,#790,#791,#792,#793,#794,#795,#796));
#153=EDGE_LOOP('',(#797,#798,#799,#800));
#154=EDGE_LOOP('',(#801,#802,#803,#804));
#155=EDGE_LOOP('',(#805,#806,#807,#808,#809,#810,#811,#812,#813,#814,#815,
#816,#817,#818,#819,#820));
#156=EDGE_LOOP('',(#821,#822,#823,#824));
#157=EDGE_LOOP('',(#825,#826,#827,#828));
#158=EDGE_LOOP('',(#829,#830,#831,#832));
#159=EDGE_LOOP('',(#833,#834,#835,#836,#837));
#160=EDGE_LOOP('',(#838,#839,#840,#841,#842,#843,#844,#845));
#161=EDGE_LOOP('',(#846,#847,#848,#849));
#162=EDGE_LOOP('',(#850,#851,#852,#853,#854,#855));
#163=EDGE_LOOP('',(#856,#857,#858,#859,#860));
#164=EDGE_LOOP('',(#861,#862,#863,#864,#865,#866,#867,#868,#869,#870));
#165=EDGE_LOOP('',(#871,#872,#873,#874,#875));
#166=EDGE_LOOP('',(#876,#877,#878,#879,#880,#881));
#167=EDGE_LOOP('',(#882,#883,#884,#885));
#168=EDGE_LOOP('',(#886,#887,#888,#889,#890));
#169=EDGE_LOOP('',(#891,#892,#893,#894,#895,#896));
#170=EDGE_LOOP('',(#897,#898,#899,#900));
#171=EDGE_LOOP('',(#901,#902,#903,#904));
#172=EDGE_LOOP('',(#905,#906,#907,#908,#909,#910,#911,#912,#913,#914,#915,
#916));
#173=EDGE_LOOP('',(#917,#918,#919,#920,#921,#922,#923,#924));
#174=EDGE_LOOP('',(#925,#926,#927,#928));
#175=EDGE_LOOP('',(#929));
#176=EDGE_LOOP('',(#930));
#177=EDGE_LOOP('',(#931,#932,#933,#934));
#178=EDGE_LOOP('',(#935,#936,#937,#938));
#179=EDGE_LOOP('',(#939));
#180=EDGE_LOOP('',(#940));
#181=EDGE_LOOP('',(#941));
#182=EDGE_LOOP('',(#942));
#183=EDGE_LOOP('',(#943,#944,#945,#946));
#184=EDGE_LOOP('',(#947,#948,#949,#950));
#185=EDGE_LOOP('',(#951));
#186=EDGE_LOOP('',(#952));
#187=EDGE_LOOP('',(#953));
#188=EDGE_LOOP('',(#954));
#189=EDGE_LOOP('',(#955,#956,#957,#958));
#190=EDGE_LOOP('',(#959,#960,#961,#962));
#191=EDGE_LOOP('',(#963));
#192=EDGE_LOOP('',(#964));
#193=EDGE_LOOP('',(#965));
#194=EDGE_LOOP('',(#966));
#195=EDGE_LOOP('',(#967,#968,#969,#970));
#196=EDGE_LOOP('',(#971,#972,#973,#974));
#197=EDGE_LOOP('',(#975));
#198=EDGE_LOOP('',(#976));
#199=LINE('',#1510,#321);
#200=LINE('',#1512,#322);
#201=LINE('',#1514,#323);
#202=LINE('',#1515,#324);
#203=LINE('',#1518,#325);
#204=LINE('',#1520,#326);
#205=LINE('',#1521,#327);
#206=LINE('',#1524,#328);
#207=LINE('',#1526,#329);
#208=LINE('',#1528,#330);
#209=LINE('',#1530,#331);
#210=LINE('',#1532,#332);
#211=LINE('',#1534,#333);
#212=LINE('',#1537,#334);
#213=LINE('',#1542,#335);
#214=LINE('',#1543,#336);
#215=LINE('',#1545,#337);
#216=LINE('',#1547,#338);
#217=LINE('',#1549,#339);
#218=LINE('',#1551,#340);
#219=LINE('',#1553,#341);
#220=LINE('',#1555,#342);
#221=LINE('',#1556,#343);
#222=LINE('',#1558,#344);
#223=LINE('',#1561,#345);
#224=LINE('',#1562,#346);
#225=LINE('',#1564,#347);
#226=LINE('',#1568,#348);
#227=LINE('',#1570,#349);
#228=LINE('',#1571,#350);
#229=LINE('',#1574,#351);
#230=LINE('',#1576,#352);
#231=LINE('',#1577,#353);
#232=LINE('',#1583,#354);
#233=LINE('',#1586,#355);
#234=LINE('',#1589,#356);
#235=LINE('',#1591,#357);
#236=LINE('',#1592,#358);
#237=LINE('',#1595,#359);
#238=LINE('',#1597,#360);
#239=LINE('',#1599,#361);
#240=LINE('',#1601,#362);
#241=LINE('',#1603,#363);
#242=LINE('',#1605,#364);
#243=LINE('',#1607,#365);
#244=LINE('',#1608,#366);
#245=LINE('',#1612,#367);
#246=LINE('',#1613,#368);
#247=LINE('',#1614,#369);
#248=LINE('',#1617,#370);
#249=LINE('',#1618,#371);
#250=LINE('',#1620,#372);
#251=LINE('',#1623,#373);
#252=LINE('',#1625,#374);
#253=LINE('',#1626,#375);
#254=LINE('',#1629,#376);
#255=LINE('',#1630,#377);
#256=LINE('',#1632,#378);
#257=LINE('',#1635,#379);
#258=LINE('',#1636,#380);
#259=LINE('',#1639,#381);
#260=LINE('',#1641,#382);
#261=LINE('',#1642,#383);
#262=LINE('',#1645,#384);
#263=LINE('',#1647,#385);
#264=LINE('',#1648,#386);
#265=LINE('',#1652,#387);
#266=LINE('',#1654,#388);
#267=LINE('',#1656,#389);
#268=LINE('',#1658,#390);
#269=LINE('',#1660,#391);
#270=LINE('',#1662,#392);
#271=LINE('',#1664,#393);
#272=LINE('',#1665,#394);
#273=LINE('',#1666,#395);
#274=LINE('',#1667,#396);
#275=LINE('',#1672,#397);
#276=LINE('',#1676,#398);
#277=LINE('',#1678,#399);
#278=LINE('',#1679,#400);
#279=LINE('',#1686,#401);
#280=LINE('',#1688,#402);
#281=LINE('',#1690,#403);
#282=LINE('',#1692,#404);
#283=LINE('',#1693,#405);
#284=LINE('',#1696,#406);
#285=LINE('',#1698,#407);
#286=LINE('',#1700,#408);
#287=LINE('',#1702,#409);
#288=LINE('',#1704,#410);
#289=LINE('',#1706,#411);
#290=LINE('',#1707,#412);
#291=LINE('',#1710,#413);
#292=LINE('',#1711,#414);
#293=LINE('',#1713,#415);
#294=LINE('',#1715,#416);
#295=LINE('',#1716,#417);
#296=LINE('',#1719,#418);
#297=LINE('',#1720,#419);
#298=LINE('',#1723,#420);
#299=LINE('',#1725,#421);
#300=LINE('',#1726,#422);
#301=LINE('',#1729,#423);
#302=LINE('',#1730,#424);
#303=LINE('',#1731,#425);
#304=LINE('',#1734,#426);
#305=LINE('',#1736,#427);
#306=LINE('',#1737,#428);
#307=LINE('',#1741,#429);
#308=LINE('',#1742,#430);
#309=LINE('',#1743,#431);
#310=LINE('',#1745,#432);
#311=LINE('',#1749,#433);
#312=LINE('',#1750,#434);
#313=LINE('',#1761,#435);
#314=LINE('',#1765,#436);
#315=LINE('',#1776,#437);
#316=LINE('',#1780,#438);
#317=LINE('',#1791,#439);
#318=LINE('',#1795,#440);
#319=LINE('',#1806,#441);
#320=LINE('',#1810,#442);
#321=VECTOR('',#1207,10.);
#322=VECTOR('',#1208,10.);
#323=VECTOR('',#1209,10.);
#324=VECTOR('',#1210,10.);
#325=VECTOR('',#1213,10.);
#326=VECTOR('',#1214,10.);
#327=VECTOR('',#1215,10.);
#328=VECTOR('',#1218,10.);
#329=VECTOR('',#1219,10.);
#330=VECTOR('',#1220,10.);
#331=VECTOR('',#1221,10.);
#332=VECTOR('',#1222,10.);
#333=VECTOR('',#1223,10.);
#334=VECTOR('',#1226,10.);
#335=VECTOR('',#1231,10.);
#336=VECTOR('',#1232,10.);
#337=VECTOR('',#1235,10.);
#338=VECTOR('',#1236,10.);
#339=VECTOR('',#1237,10.);
#340=VECTOR('',#1238,10.);
#341=VECTOR('',#1239,10.);
#342=VECTOR('',#1240,10.);
#343=VECTOR('',#1241,10.);
#344=VECTOR('',#1244,10.);
#345=VECTOR('',#1249,10.);
#346=VECTOR('',#1250,10.);
#347=VECTOR('',#1253,10.);
#348=VECTOR('',#1258,10.);
#349=VECTOR('',#1259,10.);
#350=VECTOR('',#1260,10.);
#351=VECTOR('',#1263,10.);
#352=VECTOR('',#1264,10.);
#353=VECTOR('',#1265,10.);
#354=VECTOR('',#1270,10.);
#355=VECTOR('',#1273,10.);
#356=VECTOR('',#1276,10.);
#357=VECTOR('',#1277,10.);
#358=VECTOR('',#1278,10.);
#359=VECTOR('',#1281,10.);
#360=VECTOR('',#1282,10.);
#361=VECTOR('',#1283,10.);
#362=VECTOR('',#1284,10.);
#363=VECTOR('',#1285,10.);
#364=VECTOR('',#1286,10.);
#365=VECTOR('',#1287,10.);
#366=VECTOR('',#1288,10.);
#367=VECTOR('',#1291,10.);
#368=VECTOR('',#1292,10.);
#369=VECTOR('',#1293,10.);
#370=VECTOR('',#1296,10.);
#371=VECTOR('',#1297,10.);
#372=VECTOR('',#1300,10.);
#373=VECTOR('',#1303,10.);
#374=VECTOR('',#1304,10.);
#375=VECTOR('',#1305,10.);
#376=VECTOR('',#1308,10.);
#377=VECTOR('',#1309,10.);
#378=VECTOR('',#1312,10.);
#379=VECTOR('',#1315,10.);
#380=VECTOR('',#1316,10.);
#381=VECTOR('',#1319,10.);
#382=VECTOR('',#1320,10.);
#383=VECTOR('',#1321,10.);
#384=VECTOR('',#1324,10.);
#385=VECTOR('',#1325,10.);
#386=VECTOR('',#1326,10.);
#387=VECTOR('',#1329,10.);
#388=VECTOR('',#1330,10.);
#389=VECTOR('',#1331,10.);
#390=VECTOR('',#1332,10.);
#391=VECTOR('',#1333,10.);
#392=VECTOR('',#1334,10.);
#393=VECTOR('',#1335,10.);
#394=VECTOR('',#1336,10.);
#395=VECTOR('',#1337,10.);
#396=VECTOR('',#1338,10.);
#397=VECTOR('',#1343,10.);
#398=VECTOR('',#1348,10.);
#399=VECTOR('',#1349,10.);
#400=VECTOR('',#1350,10.);
#401=VECTOR('',#1359,10.);
#402=VECTOR('',#1360,10.);
#403=VECTOR('',#1361,10.);
#404=VECTOR('',#1362,10.);
#405=VECTOR('',#1363,10.);
#406=VECTOR('',#1366,10.);
#407=VECTOR('',#1367,10.);
#408=VECTOR('',#1368,10.);
#409=VECTOR('',#1369,10.);
#410=VECTOR('',#1370,10.);
#411=VECTOR('',#1371,10.);
#412=VECTOR('',#1372,10.);
#413=VECTOR('',#1375,10.);
#414=VECTOR('',#1376,10.);
#415=VECTOR('',#1379,10.);
#416=VECTOR('',#1380,10.);
#417=VECTOR('',#1381,10.);
#418=VECTOR('',#1384,10.);
#419=VECTOR('',#1385,10.);
#420=VECTOR('',#1388,10.);
#421=VECTOR('',#1389,10.);
#422=VECTOR('',#1390,10.);
#423=VECTOR('',#1393,10.);
#424=VECTOR('',#1394,10.);
#425=VECTOR('',#1395,10.);
#426=VECTOR('',#1398,10.);
#427=VECTOR('',#1399,10.);
#428=VECTOR('',#1400,10.);
#429=VECTOR('',#1405,10.);
#430=VECTOR('',#1406,10.);
#431=VECTOR('',#1407,10.);
#432=VECTOR('',#1410,10.);
#433=VECTOR('',#1417,10.);
#434=VECTOR('',#1418,10.);
#435=VECTOR('',#1433,1.99999999999999);
#436=VECTOR('',#1438,3.00000117300051);
#437=VECTOR('',#1453,1.99999999999999);
#438=VECTOR('',#1458,3.00000117298691);
#439=VECTOR('',#1473,1.99999999999999);
#440=VECTOR('',#1478,3.00000117299035);
#441=VECTOR('',#1493,1.99999999999999);
#442=VECTOR('',#1498,3.0000011729806);
#443=VERTEX_POINT('',#1508);
#444=VERTEX_POINT('',#1509);
#445=VERTEX_POINT('',#1511);
#446=VERTEX_POINT('',#1513);
#447=VERTEX_POINT('',#1517);
#448=VERTEX_POINT('',#1519);
#449=VERTEX_POINT('',#1523);
#450=VERTEX_POINT('',#1525);
#451=VERTEX_POINT('',#1527);
#452=VERTEX_POINT('',#1529);
#453=VERTEX_POINT('',#1531);
#454=VERTEX_POINT('',#1533);
#455=VERTEX_POINT('',#1535);
#456=VERTEX_POINT('',#1539);
#457=VERTEX_POINT('',#1540);
#458=VERTEX_POINT('',#1546);
#459=VERTEX_POINT('',#1548);
#460=VERTEX_POINT('',#1550);
#461=VERTEX_POINT('',#1552);
#462=VERTEX_POINT('',#1554);
#463=VERTEX_POINT('',#1567);
#464=VERTEX_POINT('',#1569);
#465=VERTEX_POINT('',#1573);
#466=VERTEX_POINT('',#1575);
#467=VERTEX_POINT('',#1579);
#468=VERTEX_POINT('',#1580);
#469=VERTEX_POINT('',#1582);
#470=VERTEX_POINT('',#1584);
#471=VERTEX_POINT('',#1588);
#472=VERTEX_POINT('',#1590);
#473=VERTEX_POINT('',#1594);
#474=VERTEX_POINT('',#1596);
#475=VERTEX_POINT('',#1598);
#476=VERTEX_POINT('',#1600);
#477=VERTEX_POINT('',#1602);
#478=VERTEX_POINT('',#1604);
#479=VERTEX_POINT('',#1606);
#480=VERTEX_POINT('',#1610);
#481=VERTEX_POINT('',#1611);
#482=VERTEX_POINT('',#1616);
#483=VERTEX_POINT('',#1622);
#484=VERTEX_POINT('',#1624);
#485=VERTEX_POINT('',#1628);
#486=VERTEX_POINT('',#1634);
#487=VERTEX_POINT('',#1638);
#488=VERTEX_POINT('',#1640);
#489=VERTEX_POINT('',#1644);
#490=VERTEX_POINT('',#1646);
#491=VERTEX_POINT('',#1650);
#492=VERTEX_POINT('',#1651);
#493=VERTEX_POINT('',#1653);
#494=VERTEX_POINT('',#1655);
#495=VERTEX_POINT('',#1657);
#496=VERTEX_POINT('',#1659);
#497=VERTEX_POINT('',#1661);
#498=VERTEX_POINT('',#1663);
#499=VERTEX_POINT('',#1669);
#500=VERTEX_POINT('',#1671);
#501=VERTEX_POINT('',#1675);
#502=VERTEX_POINT('',#1677);
#503=VERTEX_POINT('',#1684);
#504=VERTEX_POINT('',#1685);
#505=VERTEX_POINT('',#1687);
#506=VERTEX_POINT('',#1689);
#507=VERTEX_POINT('',#1691);
#508=VERTEX_POINT('',#1695);
#509=VERTEX_POINT('',#1697);
#510=VERTEX_POINT('',#1699);
#511=VERTEX_POINT('',#1701);
#512=VERTEX_POINT('',#1703);
#513=VERTEX_POINT('',#1705);
#514=VERTEX_POINT('',#1709);
#515=VERTEX_POINT('',#1714);
#516=VERTEX_POINT('',#1718);
#517=VERTEX_POINT('',#1722);
#518=VERTEX_POINT('',#1724);
#519=VERTEX_POINT('',#1728);
#520=VERTEX_POINT('',#1733);
#521=VERTEX_POINT('',#1735);
#522=VERTEX_POINT('',#1740);
#523=VERTEX_POINT('',#1754);
#524=VERTEX_POINT('',#1757);
#525=VERTEX_POINT('',#1760);
#526=VERTEX_POINT('',#1764);
#527=VERTEX_POINT('',#1769);
#528=VERTEX_POINT('',#1772);
#529=VERTEX_POINT('',#1775);
#530=VERTEX_POINT('',#1779);
#531=VERTEX_POINT('',#1784);
#532=VERTEX_POINT('',#1787);
#533=VERTEX_POINT('',#1790);
#534=VERTEX_POINT('',#1794);
#535=VERTEX_POINT('',#1799);
#536=VERTEX_POINT('',#1802);
#537=VERTEX_POINT('',#1805);
#538=VERTEX_POINT('',#1809);
#539=EDGE_CURVE('',#443,#444,#199,.T.);
#540=EDGE_CURVE('',#444,#445,#200,.T.);
#541=EDGE_CURVE('',#445,#446,#201,.T.);
#542=EDGE_CURVE('',#446,#443,#202,.T.);
#543=EDGE_CURVE('',#444,#447,#203,.T.);
#544=EDGE_CURVE('',#448,#447,#204,.T.);
#545=EDGE_CURVE('',#445,#448,#205,.T.);
#546=EDGE_CURVE('',#449,#443,#206,.T.);
#547=EDGE_CURVE('',#450,#449,#207,.T.);
#548=EDGE_CURVE('',#451,#450,#208,.T.);
#549=EDGE_CURVE('',#452,#451,#209,.T.);
#550=EDGE_CURVE('',#453,#452,#210,.T.);
#551=EDGE_CURVE('',#454,#453,#211,.T.);
#552=EDGE_CURVE('',#455,#454,#43,.T.);
#553=EDGE_CURVE('',#447,#455,#212,.T.);
#554=EDGE_CURVE('',#456,#457,#44,.T.);
#555=EDGE_CURVE('',#457,#455,#213,.T.);
#556=EDGE_CURVE('',#454,#456,#214,.T.);
#557=EDGE_CURVE('',#457,#448,#215,.T.);
#558=EDGE_CURVE('',#458,#456,#216,.T.);
#559=EDGE_CURVE('',#458,#459,#217,.T.);
#560=EDGE_CURVE('',#459,#460,#218,.T.);
#561=EDGE_CURVE('',#461,#460,#219,.T.);
#562=EDGE_CURVE('',#462,#461,#220,.T.);
#563=EDGE_CURVE('',#462,#446,#221,.T.);
#564=EDGE_CURVE('',#453,#458,#222,.T.);
#565=EDGE_CURVE('',#451,#460,#223,.T.);
#566=EDGE_CURVE('',#459,#452,#224,.T.);
#567=EDGE_CURVE('',#449,#462,#225,.T.);
#568=EDGE_CURVE('',#463,#450,#226,.T.);
#569=EDGE_CURVE('',#464,#463,#227,.T.);
#570=EDGE_CURVE('',#464,#451,#228,.T.);
#571=EDGE_CURVE('',#460,#465,#229,.T.);
#572=EDGE_CURVE('',#465,#466,#230,.T.);
#573=EDGE_CURVE('',#461,#466,#231,.T.);
#574=EDGE_CURVE('',#467,#468,#45,.T.);
#575=EDGE_CURVE('',#468,#469,#232,.T.);
#576=EDGE_CURVE('',#469,#470,#46,.T.);
#577=EDGE_CURVE('',#470,#467,#233,.T.);
#578=EDGE_CURVE('',#470,#471,#234,.T.);
#579=EDGE_CURVE('',#471,#472,#235,.T.);
#580=EDGE_CURVE('',#472,#467,#236,.T.);
#581=EDGE_CURVE('',#473,#469,#237,.T.);
#582=EDGE_CURVE('',#474,#473,#238,.T.);
#583=EDGE_CURVE('',#475,#474,#239,.T.);
#584=EDGE_CURVE('',#476,#475,#240,.T.);
#585=EDGE_CURVE('',#477,#476,#241,.T.);
#586=EDGE_CURVE('',#478,#477,#242,.T.);
#587=EDGE_CURVE('',#479,#478,#243,.T.);
#588=EDGE_CURVE('',#471,#479,#244,.T.);
#589=EDGE_CURVE('',#480,#481,#245,.T.);
#590=EDGE_CURVE('',#481,#475,#246,.T.);
#591=EDGE_CURVE('',#474,#480,#247,.T.);
#592=EDGE_CURVE('',#482,#473,#248,.T.);
#593=EDGE_CURVE('',#480,#482,#249,.T.);
#594=EDGE_CURVE('',#468,#482,#250,.T.);
#595=EDGE_CURVE('',#478,#483,#251,.T.);
#596=EDGE_CURVE('',#484,#483,#252,.T.);
#597=EDGE_CURVE('',#479,#484,#253,.T.);
#598=EDGE_CURVE('',#485,#481,#254,.T.);
#599=EDGE_CURVE('',#476,#485,#255,.T.);
#600=EDGE_CURVE('',#472,#484,#256,.T.);
#601=EDGE_CURVE('',#486,#483,#257,.T.);
#602=EDGE_CURVE('',#485,#486,#258,.T.);
#603=EDGE_CURVE('',#487,#477,#259,.T.);
#604=EDGE_CURVE('',#488,#487,#260,.T.);
#605=EDGE_CURVE('',#488,#478,#261,.T.);
#606=EDGE_CURVE('',#483,#489,#262,.T.);
#607=EDGE_CURVE('',#489,#490,#263,.T.);
#608=EDGE_CURVE('',#486,#490,#264,.T.);
#609=EDGE_CURVE('',#491,#492,#265,.T.);
#610=EDGE_CURVE('',#493,#492,#266,.T.);
#611=EDGE_CURVE('',#494,#493,#267,.T.);
#612=EDGE_CURVE('',#495,#494,#268,.T.);
#613=EDGE_CURVE('',#496,#495,#269,.T.);
#614=EDGE_CURVE('',#497,#496,#270,.T.);
#615=EDGE_CURVE('',#497,#498,#271,.T.);
#616=EDGE_CURVE('',#489,#498,#272,.T.);
#617=EDGE_CURVE('',#465,#488,#273,.T.);
#618=EDGE_CURVE('',#491,#464,#274,.T.);
#619=EDGE_CURVE('',#499,#491,#47,.T.);
#620=EDGE_CURVE('',#500,#499,#275,.T.);
#621=EDGE_CURVE('',#492,#500,#48,.T.);
#622=EDGE_CURVE('',#500,#501,#276,.T.);
#623=EDGE_CURVE('',#502,#499,#277,.T.);
#624=EDGE_CURVE('',#501,#502,#278,.T.);
#625=EDGE_CURVE('',#501,#497,#49,.T.);
#626=EDGE_CURVE('',#498,#502,#50,.T.);
#627=EDGE_CURVE('',#503,#504,#279,.T.);
#628=EDGE_CURVE('',#504,#505,#280,.T.);
#629=EDGE_CURVE('',#505,#506,#281,.T.);
#630=EDGE_CURVE('',#506,#507,#282,.T.);
#631=EDGE_CURVE('',#507,#503,#283,.T.);
#632=EDGE_CURVE('',#508,#505,#284,.T.);
#633=EDGE_CURVE('',#509,#508,#285,.T.);
#634=EDGE_CURVE('',#510,#509,#286,.T.);
#635=EDGE_CURVE('',#511,#510,#287,.T.);
#636=EDGE_CURVE('',#512,#511,#288,.T.);
#637=EDGE_CURVE('',#513,#512,#289,.T.);
#638=EDGE_CURVE('',#506,#513,#290,.T.);
#639=EDGE_CURVE('',#504,#514,#291,.T.);
#640=EDGE_CURVE('',#508,#514,#292,.T.);
#641=EDGE_CURVE('',#494,#503,#293,.T.);
#642=EDGE_CURVE('',#493,#515,#294,.T.);
#643=EDGE_CURVE('',#514,#515,#295,.T.);
#644=EDGE_CURVE('',#515,#516,#296,.T.);
#645=EDGE_CURVE('',#516,#509,#297,.T.);
#646=EDGE_CURVE('',#496,#517,#298,.T.);
#647=EDGE_CURVE('',#518,#517,#299,.T.);
#648=EDGE_CURVE('',#516,#518,#300,.T.);
#649=EDGE_CURVE('',#517,#519,#301,.T.);
#650=EDGE_CURVE('',#519,#511,#302,.T.);
#651=EDGE_CURVE('',#510,#518,#303,.T.);
#652=EDGE_CURVE('',#495,#520,#304,.T.);
#653=EDGE_CURVE('',#521,#520,#305,.T.);
#654=EDGE_CURVE('',#519,#521,#306,.T.);
#655=EDGE_CURVE('',#520,#522,#307,.T.);
#656=EDGE_CURVE('',#522,#513,#308,.T.);
#657=EDGE_CURVE('',#512,#521,#309,.T.);
#658=EDGE_CURVE('',#522,#507,#310,.T.);
#659=EDGE_CURVE('',#466,#487,#311,.T.);
#660=EDGE_CURVE('',#490,#463,#312,.T.);
#661=EDGE_CURVE('',#523,#523,#51,.T.);
#662=EDGE_CURVE('',#524,#524,#52,.T.);
#663=EDGE_CURVE('',#523,#525,#313,.T.);
#664=EDGE_CURVE('',#525,#525,#53,.T.);
#665=EDGE_CURVE('',#524,#526,#314,.T.);
#666=EDGE_CURVE('',#526,#526,#54,.T.);
#667=EDGE_CURVE('',#527,#527,#55,.T.);
#668=EDGE_CURVE('',#528,#528,#56,.T.);
#669=EDGE_CURVE('',#527,#529,#315,.T.);
#670=EDGE_CURVE('',#529,#529,#57,.T.);
#671=EDGE_CURVE('',#528,#530,#316,.T.);
#672=EDGE_CURVE('',#530,#530,#58,.T.);
#673=EDGE_CURVE('',#531,#531,#59,.T.);
#674=EDGE_CURVE('',#532,#532,#60,.T.);
#675=EDGE_CURVE('',#531,#533,#317,.T.);
#676=EDGE_CURVE('',#533,#533,#61,.T.);
#677=EDGE_CURVE('',#532,#534,#318,.T.);
#678=EDGE_CURVE('',#534,#534,#62,.T.);
#679=EDGE_CURVE('',#535,#535,#63,.T.);
#680=EDGE_CURVE('',#536,#536,#64,.T.);
#681=EDGE_CURVE('',#535,#537,#319,.T.);
#682=EDGE_CURVE('',#537,#537,#65,.T.);
#683=EDGE_CURVE('',#536,#538,#320,.T.);
#684=EDGE_CURVE('',#538,#538,#66,.T.);
#685=ORIENTED_EDGE('',*,*,#539,.T.);
#686=ORIENTED_EDGE('',*,*,#540,.T.);
#687=ORIENTED_EDGE('',*,*,#541,.T.);
#688=ORIENTED_EDGE('',*,*,#542,.T.);
#689=ORIENTED_EDGE('',*,*,#540,.F.);
#690=ORIENTED_EDGE('',*,*,#543,.T.);
#691=ORIENTED_EDGE('',*,*,#544,.F.);
#692=ORIENTED_EDGE('',*,*,#545,.F.);
#693=ORIENTED_EDGE('',*,*,#539,.F.);
#694=ORIENTED_EDGE('',*,*,#546,.F.);
#695=ORIENTED_EDGE('',*,*,#547,.F.);
#696=ORIENTED_EDGE('',*,*,#548,.F.);
#697=ORIENTED_EDGE('',*,*,#549,.F.);
#698=ORIENTED_EDGE('',*,*,#550,.F.);
#699=ORIENTED_EDGE('',*,*,#551,.F.);
#700=ORIENTED_EDGE('',*,*,#552,.F.);
#701=ORIENTED_EDGE('',*,*,#553,.F.);
#702=ORIENTED_EDGE('',*,*,#543,.F.);
#703=ORIENTED_EDGE('',*,*,#554,.T.);
#704=ORIENTED_EDGE('',*,*,#555,.T.);
#705=ORIENTED_EDGE('',*,*,#552,.T.);
#706=ORIENTED_EDGE('',*,*,#556,.T.);
#707=ORIENTED_EDGE('',*,*,#541,.F.);
#708=ORIENTED_EDGE('',*,*,#545,.T.);
#709=ORIENTED_EDGE('',*,*,#557,.F.);
#710=ORIENTED_EDGE('',*,*,#554,.F.);
#711=ORIENTED_EDGE('',*,*,#558,.F.);
#712=ORIENTED_EDGE('',*,*,#559,.T.);
#713=ORIENTED_EDGE('',*,*,#560,.T.);
#714=ORIENTED_EDGE('',*,*,#561,.F.);
#715=ORIENTED_EDGE('',*,*,#562,.F.);
#716=ORIENTED_EDGE('',*,*,#563,.T.);
#717=ORIENTED_EDGE('',*,*,#556,.F.);
#718=ORIENTED_EDGE('',*,*,#551,.T.);
#719=ORIENTED_EDGE('',*,*,#564,.T.);
#720=ORIENTED_EDGE('',*,*,#558,.T.);
#721=ORIENTED_EDGE('',*,*,#555,.F.);
#722=ORIENTED_EDGE('',*,*,#557,.T.);
#723=ORIENTED_EDGE('',*,*,#544,.T.);
#724=ORIENTED_EDGE('',*,*,#553,.T.);
#725=ORIENTED_EDGE('',*,*,#565,.T.);
#726=ORIENTED_EDGE('',*,*,#560,.F.);
#727=ORIENTED_EDGE('',*,*,#566,.T.);
#728=ORIENTED_EDGE('',*,*,#549,.T.);
#729=ORIENTED_EDGE('',*,*,#542,.F.);
#730=ORIENTED_EDGE('',*,*,#563,.F.);
#731=ORIENTED_EDGE('',*,*,#567,.F.);
#732=ORIENTED_EDGE('',*,*,#546,.T.);
#733=ORIENTED_EDGE('',*,*,#564,.F.);
#734=ORIENTED_EDGE('',*,*,#550,.T.);
#735=ORIENTED_EDGE('',*,*,#566,.F.);
#736=ORIENTED_EDGE('',*,*,#559,.F.);
#737=ORIENTED_EDGE('',*,*,#548,.T.);
#738=ORIENTED_EDGE('',*,*,#568,.F.);
#739=ORIENTED_EDGE('',*,*,#569,.F.);
#740=ORIENTED_EDGE('',*,*,#570,.T.);
#741=ORIENTED_EDGE('',*,*,#561,.T.);
#742=ORIENTED_EDGE('',*,*,#571,.T.);
#743=ORIENTED_EDGE('',*,*,#572,.T.);
#744=ORIENTED_EDGE('',*,*,#573,.F.);
#745=ORIENTED_EDGE('',*,*,#574,.T.);
#746=ORIENTED_EDGE('',*,*,#575,.T.);
#747=ORIENTED_EDGE('',*,*,#576,.T.);
#748=ORIENTED_EDGE('',*,*,#577,.T.);
#749=ORIENTED_EDGE('',*,*,#577,.F.);
#750=ORIENTED_EDGE('',*,*,#578,.T.);
#751=ORIENTED_EDGE('',*,*,#579,.T.);
#752=ORIENTED_EDGE('',*,*,#580,.T.);
#753=ORIENTED_EDGE('',*,*,#576,.F.);
#754=ORIENTED_EDGE('',*,*,#581,.F.);
#755=ORIENTED_EDGE('',*,*,#582,.F.);
#756=ORIENTED_EDGE('',*,*,#583,.F.);
#757=ORIENTED_EDGE('',*,*,#584,.F.);
#758=ORIENTED_EDGE('',*,*,#585,.F.);
#759=ORIENTED_EDGE('',*,*,#586,.F.);
#760=ORIENTED_EDGE('',*,*,#587,.F.);
#761=ORIENTED_EDGE('',*,*,#588,.F.);
#762=ORIENTED_EDGE('',*,*,#578,.F.);
#763=ORIENTED_EDGE('',*,*,#589,.T.);
#764=ORIENTED_EDGE('',*,*,#590,.T.);
#765=ORIENTED_EDGE('',*,*,#583,.T.);
#766=ORIENTED_EDGE('',*,*,#591,.T.);
#767=ORIENTED_EDGE('',*,*,#591,.F.);
#768=ORIENTED_EDGE('',*,*,#582,.T.);
#769=ORIENTED_EDGE('',*,*,#592,.F.);
#770=ORIENTED_EDGE('',*,*,#593,.F.);
#771=ORIENTED_EDGE('',*,*,#575,.F.);
#772=ORIENTED_EDGE('',*,*,#594,.T.);
#773=ORIENTED_EDGE('',*,*,#592,.T.);
#774=ORIENTED_EDGE('',*,*,#581,.T.);
#775=ORIENTED_EDGE('',*,*,#595,.T.);
#776=ORIENTED_EDGE('',*,*,#596,.F.);
#777=ORIENTED_EDGE('',*,*,#597,.F.);
#778=ORIENTED_EDGE('',*,*,#587,.T.);
#779=ORIENTED_EDGE('',*,*,#590,.F.);
#780=ORIENTED_EDGE('',*,*,#598,.F.);
#781=ORIENTED_EDGE('',*,*,#599,.F.);
#782=ORIENTED_EDGE('',*,*,#584,.T.);
#783=ORIENTED_EDGE('',*,*,#579,.F.);
#784=ORIENTED_EDGE('',*,*,#588,.T.);
#785=ORIENTED_EDGE('',*,*,#597,.T.);
#786=ORIENTED_EDGE('',*,*,#600,.F.);
#787=ORIENTED_EDGE('',*,*,#574,.F.);
#788=ORIENTED_EDGE('',*,*,#580,.F.);
#789=ORIENTED_EDGE('',*,*,#600,.T.);
#790=ORIENTED_EDGE('',*,*,#596,.T.);
#791=ORIENTED_EDGE('',*,*,#601,.F.);
#792=ORIENTED_EDGE('',*,*,#602,.F.);
#793=ORIENTED_EDGE('',*,*,#598,.T.);
#794=ORIENTED_EDGE('',*,*,#589,.F.);
#795=ORIENTED_EDGE('',*,*,#593,.T.);
#796=ORIENTED_EDGE('',*,*,#594,.F.);
#797=ORIENTED_EDGE('',*,*,#586,.T.);
#798=ORIENTED_EDGE('',*,*,#603,.F.);
#799=ORIENTED_EDGE('',*,*,#604,.F.);
#800=ORIENTED_EDGE('',*,*,#605,.T.);
#801=ORIENTED_EDGE('',*,*,#601,.T.);
#802=ORIENTED_EDGE('',*,*,#606,.T.);
#803=ORIENTED_EDGE('',*,*,#607,.T.);
#804=ORIENTED_EDGE('',*,*,#608,.F.);
#805=ORIENTED_EDGE('',*,*,#609,.T.);
#806=ORIENTED_EDGE('',*,*,#610,.F.);
#807=ORIENTED_EDGE('',*,*,#611,.F.);
#808=ORIENTED_EDGE('',*,*,#612,.F.);
#809=ORIENTED_EDGE('',*,*,#613,.F.);
#810=ORIENTED_EDGE('',*,*,#614,.F.);
#811=ORIENTED_EDGE('',*,*,#615,.T.);
#812=ORIENTED_EDGE('',*,*,#616,.F.);
#813=ORIENTED_EDGE('',*,*,#606,.F.);
#814=ORIENTED_EDGE('',*,*,#595,.F.);
#815=ORIENTED_EDGE('',*,*,#605,.F.);
#816=ORIENTED_EDGE('',*,*,#617,.F.);
#817=ORIENTED_EDGE('',*,*,#571,.F.);
#818=ORIENTED_EDGE('',*,*,#565,.F.);
#819=ORIENTED_EDGE('',*,*,#570,.F.);
#820=ORIENTED_EDGE('',*,*,#618,.F.);
#821=ORIENTED_EDGE('',*,*,#609,.F.);
#822=ORIENTED_EDGE('',*,*,#619,.F.);
#823=ORIENTED_EDGE('',*,*,#620,.F.);
#824=ORIENTED_EDGE('',*,*,#621,.F.);
#825=ORIENTED_EDGE('',*,*,#622,.F.);
#826=ORIENTED_EDGE('',*,*,#620,.T.);
#827=ORIENTED_EDGE('',*,*,#623,.F.);
#828=ORIENTED_EDGE('',*,*,#624,.F.);
#829=ORIENTED_EDGE('',*,*,#615,.F.);
#830=ORIENTED_EDGE('',*,*,#625,.F.);
#831=ORIENTED_EDGE('',*,*,#624,.T.);
#832=ORIENTED_EDGE('',*,*,#626,.F.);
#833=ORIENTED_EDGE('',*,*,#627,.T.);
#834=ORIENTED_EDGE('',*,*,#628,.T.);
#835=ORIENTED_EDGE('',*,*,#629,.T.);
#836=ORIENTED_EDGE('',*,*,#630,.T.);
#837=ORIENTED_EDGE('',*,*,#631,.T.);
#838=ORIENTED_EDGE('',*,*,#629,.F.);
#839=ORIENTED_EDGE('',*,*,#632,.F.);
#840=ORIENTED_EDGE('',*,*,#633,.F.);
#841=ORIENTED_EDGE('',*,*,#634,.F.);
#842=ORIENTED_EDGE('',*,*,#635,.F.);
#843=ORIENTED_EDGE('',*,*,#636,.F.);
#844=ORIENTED_EDGE('',*,*,#637,.F.);
#845=ORIENTED_EDGE('',*,*,#638,.F.);
#846=ORIENTED_EDGE('',*,*,#628,.F.);
#847=ORIENTED_EDGE('',*,*,#639,.T.);
#848=ORIENTED_EDGE('',*,*,#640,.F.);
#849=ORIENTED_EDGE('',*,*,#632,.T.);
#850=ORIENTED_EDGE('',*,*,#627,.F.);
#851=ORIENTED_EDGE('',*,*,#641,.F.);
#852=ORIENTED_EDGE('',*,*,#611,.T.);
#853=ORIENTED_EDGE('',*,*,#642,.T.);
#854=ORIENTED_EDGE('',*,*,#643,.F.);
#855=ORIENTED_EDGE('',*,*,#639,.F.);
#856=ORIENTED_EDGE('',*,*,#644,.T.);
#857=ORIENTED_EDGE('',*,*,#645,.T.);
#858=ORIENTED_EDGE('',*,*,#633,.T.);
#859=ORIENTED_EDGE('',*,*,#640,.T.);
#860=ORIENTED_EDGE('',*,*,#643,.T.);
#861=ORIENTED_EDGE('',*,*,#625,.T.);
#862=ORIENTED_EDGE('',*,*,#614,.T.);
#863=ORIENTED_EDGE('',*,*,#646,.T.);
#864=ORIENTED_EDGE('',*,*,#647,.F.);
#865=ORIENTED_EDGE('',*,*,#648,.F.);
#866=ORIENTED_EDGE('',*,*,#644,.F.);
#867=ORIENTED_EDGE('',*,*,#642,.F.);
#868=ORIENTED_EDGE('',*,*,#610,.T.);
#869=ORIENTED_EDGE('',*,*,#621,.T.);
#870=ORIENTED_EDGE('',*,*,#622,.T.);
#871=ORIENTED_EDGE('',*,*,#649,.T.);
#872=ORIENTED_EDGE('',*,*,#650,.T.);
#873=ORIENTED_EDGE('',*,*,#635,.T.);
#874=ORIENTED_EDGE('',*,*,#651,.T.);
#875=ORIENTED_EDGE('',*,*,#647,.T.);
#876=ORIENTED_EDGE('',*,*,#649,.F.);
#877=ORIENTED_EDGE('',*,*,#646,.F.);
#878=ORIENTED_EDGE('',*,*,#613,.T.);
#879=ORIENTED_EDGE('',*,*,#652,.T.);
#880=ORIENTED_EDGE('',*,*,#653,.F.);
#881=ORIENTED_EDGE('',*,*,#654,.F.);
#882=ORIENTED_EDGE('',*,*,#645,.F.);
#883=ORIENTED_EDGE('',*,*,#648,.T.);
#884=ORIENTED_EDGE('',*,*,#651,.F.);
#885=ORIENTED_EDGE('',*,*,#634,.T.);
#886=ORIENTED_EDGE('',*,*,#655,.T.);
#887=ORIENTED_EDGE('',*,*,#656,.T.);
#888=ORIENTED_EDGE('',*,*,#637,.T.);
#889=ORIENTED_EDGE('',*,*,#657,.T.);
#890=ORIENTED_EDGE('',*,*,#653,.T.);
#891=ORIENTED_EDGE('',*,*,#631,.F.);
#892=ORIENTED_EDGE('',*,*,#658,.F.);
#893=ORIENTED_EDGE('',*,*,#655,.F.);
#894=ORIENTED_EDGE('',*,*,#652,.F.);
#895=ORIENTED_EDGE('',*,*,#612,.T.);
#896=ORIENTED_EDGE('',*,*,#641,.T.);
#897=ORIENTED_EDGE('',*,*,#650,.F.);
#898=ORIENTED_EDGE('',*,*,#654,.T.);
#899=ORIENTED_EDGE('',*,*,#657,.F.);
#900=ORIENTED_EDGE('',*,*,#636,.T.);
#901=ORIENTED_EDGE('',*,*,#630,.F.);
#902=ORIENTED_EDGE('',*,*,#638,.T.);
#903=ORIENTED_EDGE('',*,*,#656,.F.);
#904=ORIENTED_EDGE('',*,*,#658,.T.);
#905=ORIENTED_EDGE('',*,*,#562,.T.);
#906=ORIENTED_EDGE('',*,*,#573,.T.);
#907=ORIENTED_EDGE('',*,*,#659,.T.);
#908=ORIENTED_EDGE('',*,*,#603,.T.);
#909=ORIENTED_EDGE('',*,*,#585,.T.);
#910=ORIENTED_EDGE('',*,*,#599,.T.);
#911=ORIENTED_EDGE('',*,*,#602,.T.);
#912=ORIENTED_EDGE('',*,*,#608,.T.);
#913=ORIENTED_EDGE('',*,*,#660,.T.);
#914=ORIENTED_EDGE('',*,*,#568,.T.);
#915=ORIENTED_EDGE('',*,*,#547,.T.);
#916=ORIENTED_EDGE('',*,*,#567,.T.);
#917=ORIENTED_EDGE('',*,*,#619,.T.);
#918=ORIENTED_EDGE('',*,*,#618,.T.);
#919=ORIENTED_EDGE('',*,*,#569,.T.);
#920=ORIENTED_EDGE('',*,*,#660,.F.);
#921=ORIENTED_EDGE('',*,*,#607,.F.);
#922=ORIENTED_EDGE('',*,*,#616,.T.);
#923=ORIENTED_EDGE('',*,*,#626,.T.);
#924=ORIENTED_EDGE('',*,*,#623,.T.);
#925=ORIENTED_EDGE('',*,*,#617,.T.);
#926=ORIENTED_EDGE('',*,*,#604,.T.);
#927=ORIENTED_EDGE('',*,*,#659,.F.);
#928=ORIENTED_EDGE('',*,*,#572,.F.);
#929=ORIENTED_EDGE('',*,*,#661,.T.);
#930=ORIENTED_EDGE('',*,*,#662,.T.);
#931=ORIENTED_EDGE('',*,*,#661,.F.);
#932=ORIENTED_EDGE('',*,*,#663,.T.);
#933=ORIENTED_EDGE('',*,*,#664,.T.);
#934=ORIENTED_EDGE('',*,*,#663,.F.);
#935=ORIENTED_EDGE('',*,*,#662,.F.);
#936=ORIENTED_EDGE('',*,*,#665,.T.);
#937=ORIENTED_EDGE('',*,*,#666,.T.);
#938=ORIENTED_EDGE('',*,*,#665,.F.);
#939=ORIENTED_EDGE('',*,*,#666,.F.);
#940=ORIENTED_EDGE('',*,*,#664,.F.);
#941=ORIENTED_EDGE('',*,*,#667,.T.);
#942=ORIENTED_EDGE('',*,*,#668,.T.);
#943=ORIENTED_EDGE('',*,*,#667,.F.);
#944=ORIENTED_EDGE('',*,*,#669,.T.);
#945=ORIENTED_EDGE('',*,*,#670,.T.);
#946=ORIENTED_EDGE('',*,*,#669,.F.);
#947=ORIENTED_EDGE('',*,*,#668,.F.);
#948=ORIENTED_EDGE('',*,*,#671,.T.);
#949=ORIENTED_EDGE('',*,*,#672,.T.);
#950=ORIENTED_EDGE('',*,*,#671,.F.);
#951=ORIENTED_EDGE('',*,*,#672,.F.);
#952=ORIENTED_EDGE('',*,*,#670,.F.);
#953=ORIENTED_EDGE('',*,*,#673,.T.);
#954=ORIENTED_EDGE('',*,*,#674,.T.);
#955=ORIENTED_EDGE('',*,*,#673,.F.);
#956=ORIENTED_EDGE('',*,*,#675,.T.);
#957=ORIENTED_EDGE('',*,*,#676,.T.);
#958=ORIENTED_EDGE('',*,*,#675,.F.);
#959=ORIENTED_EDGE('',*,*,#674,.F.);
#960=ORIENTED_EDGE('',*,*,#677,.T.);
#961=ORIENTED_EDGE('',*,*,#678,.T.);
#962=ORIENTED_EDGE('',*,*,#677,.F.);
#963=ORIENTED_EDGE('',*,*,#678,.F.);
#964=ORIENTED_EDGE('',*,*,#676,.F.);
#965=ORIENTED_EDGE('',*,*,#679,.T.);
#966=ORIENTED_EDGE('',*,*,#680,.T.);
#967=ORIENTED_EDGE('',*,*,#679,.F.);
#968=ORIENTED_EDGE('',*,*,#681,.T.);
#969=ORIENTED_EDGE('',*,*,#682,.T.);
#970=ORIENTED_EDGE('',*,*,#681,.F.);
#971=ORIENTED_EDGE('',*,*,#680,.F.);
#972=ORIENTED_EDGE('',*,*,#683,.T.);
#973=ORIENTED_EDGE('',*,*,#684,.T.);
#974=ORIENTED_EDGE('',*,*,#683,.F.);
#975=ORIENTED_EDGE('',*,*,#684,.F.);
#976=ORIENTED_EDGE('',*,*,#682,.F.);
#977=PLANE('',#1112);
#978=PLANE('',#1113);
#979=PLANE('',#1114);
#980=PLANE('',#1118);
#981=PLANE('',#1119);
#982=PLANE('',#1120);
#983=PLANE('',#1121);
#984=PLANE('',#1122);
#985=PLANE('',#1123);
#986=PLANE('',#1124);
#987=PLANE('',#1125);
#988=PLANE('',#1129);
#989=PLANE('',#1130);
#990=PLANE('',#1131);
#991=PLANE('',#1132);
#992=PLANE('',#1133);
#993=PLANE('',#1134);
#994=PLANE('',#1135);
#995=PLANE('',#1136);
#996=PLANE('',#1137);
#997=PLANE('',#1138);
#998=PLANE('',#1139);
#999=PLANE('',#1140);
#1000=PLANE('',#1144);
#1001=PLANE('',#1148);
#1002=PLANE('',#1149);
#1003=PLANE('',#1150);
#1004=PLANE('',#1151);
#1005=PLANE('',#1152);
#1006=PLANE('',#1153);
#1007=PLANE('',#1154);
#1008=PLANE('',#1155);
#1009=PLANE('',#1156);
#1010=PLANE('',#1157);
#1011=PLANE('',#1158);
#1012=PLANE('',#1159);
#1013=PLANE('',#1160);
#1014=PLANE('',#1161);
#1015=PLANE('',#1162);
#1016=PLANE('',#1163);
#1017=PLANE('',#1164);
#1018=PLANE('',#1166);
#1019=PLANE('',#1172);
#1020=PLANE('',#1173);
#1021=PLANE('',#1175);
#1022=PLANE('',#1181);
#1023=PLANE('',#1182);
#1024=PLANE('',#1184);
#1025=PLANE('',#1190);
#1026=PLANE('',#1191);
#1027=PLANE('',#1193);
#1028=PLANE('',#1199);
#1029=ADVANCED_FACE('',(#67),#977,.T.);
#1030=ADVANCED_FACE('',(#68),#978,.F.);
#1031=ADVANCED_FACE('',(#69),#979,.F.);
#1032=ADVANCED_FACE('',(#70),#31,.T.);
#1033=ADVANCED_FACE('',(#71),#980,.T.);
#1034=ADVANCED_FACE('',(#72),#981,.T.);
#1035=ADVANCED_FACE('',(#73),#982,.T.);
#1036=ADVANCED_FACE('',(#74),#983,.F.);
#1037=ADVANCED_FACE('',(#75),#984,.F.);
#1038=ADVANCED_FACE('',(#76),#985,.F.);
#1039=ADVANCED_FACE('',(#77),#986,.T.);
#1040=ADVANCED_FACE('',(#78),#987,.T.);
#1041=ADVANCED_FACE('',(#79),#32,.T.);
#1042=ADVANCED_FACE('',(#80),#988,.T.);
#1043=ADVANCED_FACE('',(#81),#989,.F.);
#1044=ADVANCED_FACE('',(#82),#990,.T.);
#1045=ADVANCED_FACE('',(#83),#991,.T.);
#1046=ADVANCED_FACE('',(#84),#992,.T.);
#1047=ADVANCED_FACE('',(#85),#993,.T.);
#1048=ADVANCED_FACE('',(#86),#994,.T.);
#1049=ADVANCED_FACE('',(#87),#995,.T.);
#1050=ADVANCED_FACE('',(#88),#996,.T.);
#1051=ADVANCED_FACE('',(#89),#997,.T.);
#1052=ADVANCED_FACE('',(#90),#998,.T.);
#1053=ADVANCED_FACE('',(#91),#999,.F.);
#1054=ADVANCED_FACE('',(#92),#33,.F.);
#1055=ADVANCED_FACE('',(#93),#1000,.F.);
#1056=ADVANCED_FACE('',(#94),#34,.F.);
#1057=ADVANCED_FACE('',(#95),#1001,.T.);
#1058=ADVANCED_FACE('',(#96),#1002,.T.);
#1059=ADVANCED_FACE('',(#97),#1003,.T.);
#1060=ADVANCED_FACE('',(#98),#1004,.T.);
#1061=ADVANCED_FACE('',(#99),#1005,.T.);
#1062=ADVANCED_FACE('',(#100),#1006,.T.);
#1063=ADVANCED_FACE('',(#101),#1007,.T.);
#1064=ADVANCED_FACE('',(#102),#1008,.T.);
#1065=ADVANCED_FACE('',(#103),#1009,.T.);
#1066=ADVANCED_FACE('',(#104),#1010,.T.);
#1067=ADVANCED_FACE('',(#105),#1011,.T.);
#1068=ADVANCED_FACE('',(#106),#1012,.T.);
#1069=ADVANCED_FACE('',(#107),#1013,.T.);
#1070=ADVANCED_FACE('',(#108),#1014,.F.);
#1071=ADVANCED_FACE('',(#109),#1015,.T.);
#1072=ADVANCED_FACE('',(#110),#1016,.T.);
#1073=ADVANCED_FACE('',(#111),#1017,.F.);
#1074=ADVANCED_FACE('',(#112),#1018,.T.);
#1075=ADVANCED_FACE('',(#113),#35,.F.);
#1076=ADVANCED_FACE('',(#114),#36,.T.);
#1077=ADVANCED_FACE('',(#115,#17),#1019,.F.);
#1078=ADVANCED_FACE('',(#116),#1020,.F.);
#1079=ADVANCED_FACE('',(#117),#1021,.T.);
#1080=ADVANCED_FACE('',(#118),#37,.F.);
#1081=ADVANCED_FACE('',(#119),#38,.T.);
#1082=ADVANCED_FACE('',(#120,#18),#1022,.F.);
#1083=ADVANCED_FACE('',(#121),#1023,.F.);
#1084=ADVANCED_FACE('',(#122),#1024,.T.);
#1085=ADVANCED_FACE('',(#123),#39,.F.);
#1086=ADVANCED_FACE('',(#124),#40,.T.);
#1087=ADVANCED_FACE('',(#125,#19),#1025,.F.);
#1088=ADVANCED_FACE('',(#126),#1026,.F.);
#1089=ADVANCED_FACE('',(#127),#1027,.T.);
#1090=ADVANCED_FACE('',(#128),#41,.F.);
#1091=ADVANCED_FACE('',(#129),#42,.T.);
#1092=ADVANCED_FACE('',(#130,#20),#1028,.F.);
#1093=CLOSED_SHELL('',(#1029,#1030,#1031,#1032,#1033,#1034,#1035,#1036,
#1037,#1038,#1039,#1040,#1041,#1042,#1043,#1044,#1045,#1046,#1047,#1048,
#1049,#1050,#1051,#1052,#1053,#1054,#1055,#1056,#1057,#1058,#1059,#1060,
#1061,#1062,#1063,#1064,#1065,#1066,#1067,#1068,#1069,#1070,#1071,#1072));
#1094=CLOSED_SHELL('',(#1073,#1074,#1075,#1076,#1077));
#1095=CLOSED_SHELL('',(#1078,#1079,#1080,#1081,#1082));
#1096=CLOSED_SHELL('',(#1083,#1084,#1085,#1086,#1087));
#1097=CLOSED_SHELL('',(#1088,#1089,#1090,#1091,#1092));
#1098=DERIVED_UNIT_ELEMENT(#1100,1.);
#1099=DERIVED_UNIT_ELEMENT(#1821,-3.);
#1100=(
MASS_UNIT()
NAMED_UNIT(*)
SI_UNIT(.KILO.,.GRAM.)
);
#1101=DERIVED_UNIT((#1098,#1099));
#1102=MEASURE_REPRESENTATION_ITEM('density measure',
POSITIVE_RATIO_MEASURE(7850.),#1101);
#1103=PROPERTY_DEFINITION_REPRESENTATION(#1108,#1105);
#1104=PROPERTY_DEFINITION_REPRESENTATION(#1109,#1106);
#1105=REPRESENTATION('material name',(#1107),#1818);
#1106=REPRESENTATION('density',(#1102),#1818);
#1107=DESCRIPTIVE_REPRESENTATION_ITEM('Steel','Steel');
#1108=PROPERTY_DEFINITION('material property','material name',#1833);
#1109=PROPERTY_DEFINITION('material property','density of part',#1833);
#1110=AXIS2_PLACEMENT_3D('',#1505,#1201,#1202);
#1111=AXIS2_PLACEMENT_3D('',#1506,#1203,#1204);
#1112=AXIS2_PLACEMENT_3D('',#1507,#1205,#1206);
#1113=AXIS2_PLACEMENT_3D('',#1516,#1211,#1212);
#1114=AXIS2_PLACEMENT_3D('',#1522,#1216,#1217);
#1115=AXIS2_PLACEMENT_3D('',#1536,#1224,#1225);
#1116=AXIS2_PLACEMENT_3D('',#1538,#1227,#1228);
#1117=AXIS2_PLACEMENT_3D('',#1541,#1229,#1230);
#1118=AXIS2_PLACEMENT_3D('',#1544,#1233,#1234);
#1119=AXIS2_PLACEMENT_3D('',#1557,#1242,#1243);
#1120=AXIS2_PLACEMENT_3D('',#1559,#1245,#1246);
#1121=AXIS2_PLACEMENT_3D('',#1560,#1247,#1248);
#1122=AXIS2_PLACEMENT_3D('',#1563,#1251,#1252);
#1123=AXIS2_PLACEMENT_3D('',#1565,#1254,#1255);
#1124=AXIS2_PLACEMENT_3D('',#1566,#1256,#1257);
#1125=AXIS2_PLACEMENT_3D('',#1572,#1261,#1262);
#1126=AXIS2_PLACEMENT_3D('',#1578,#1266,#1267);
#1127=AXIS2_PLACEMENT_3D('',#1581,#1268,#1269);
#1128=AXIS2_PLACEMENT_3D('',#1585,#1271,#1272);
#1129=AXIS2_PLACEMENT_3D('',#1587,#1274,#1275);
#1130=AXIS2_PLACEMENT_3D('',#1593,#1279,#1280);
#1131=AXIS2_PLACEMENT_3D('',#1609,#1289,#1290);
#1132=AXIS2_PLACEMENT_3D('',#1615,#1294,#1295);
#1133=AXIS2_PLACEMENT_3D('',#1619,#1298,#1299);
#1134=AXIS2_PLACEMENT_3D('',#1621,#1301,#1302);
#1135=AXIS2_PLACEMENT_3D('',#1627,#1306,#1307);
#1136=AXIS2_PLACEMENT_3D('',#1631,#1310,#1311);
#1137=AXIS2_PLACEMENT_3D('',#1633,#1313,#1314);
#1138=AXIS2_PLACEMENT_3D('',#1637,#1317,#1318);
#1139=AXIS2_PLACEMENT_3D('',#1643,#1322,#1323);
#1140=AXIS2_PLACEMENT_3D('',#1649,#1327,#1328);
#1141=AXIS2_PLACEMENT_3D('',#1668,#1339,#1340);
#1142=AXIS2_PLACEMENT_3D('',#1670,#1341,#1342);
#1143=AXIS2_PLACEMENT_3D('',#1673,#1344,#1345);
#1144=AXIS2_PLACEMENT_3D('',#1674,#1346,#1347);
#1145=AXIS2_PLACEMENT_3D('',#1680,#1351,#1352);
#1146=AXIS2_PLACEMENT_3D('',#1681,#1353,#1354);
#1147=AXIS2_PLACEMENT_3D('',#1682,#1355,#1356);
#1148=AXIS2_PLACEMENT_3D('',#1683,#1357,#1358);
#1149=AXIS2_PLACEMENT_3D('',#1694,#1364,#1365);
#1150=AXIS2_PLACEMENT_3D('',#1708,#1373,#1374);
#1151=AXIS2_PLACEMENT_3D('',#1712,#1377,#1378);
#1152=AXIS2_PLACEMENT_3D('',#1717,#1382,#1383);
#1153=AXIS2_PLACEMENT_3D('',#1721,#1386,#1387);
#1154=AXIS2_PLACEMENT_3D('',#1727,#1391,#1392);
#1155=AXIS2_PLACEMENT_3D('',#1732,#1396,#1397);
#1156=AXIS2_PLACEMENT_3D('',#1738,#1401,#1402);
#1157=AXIS2_PLACEMENT_3D('',#1739,#1403,#1404);
#1158=AXIS2_PLACEMENT_3D('',#1744,#1408,#1409);
#1159=AXIS2_PLACEMENT_3D('',#1746,#1411,#1412);
#1160=AXIS2_PLACEMENT_3D('',#1747,#1413,#1414);
#1161=AXIS2_PLACEMENT_3D('',#1748,#1415,#1416);
#1162=AXIS2_PLACEMENT_3D('',#1751,#1419,#1420);
#1163=AXIS2_PLACEMENT_3D('',#1752,#1421,#1422);
#1164=AXIS2_PLACEMENT_3D('',#1753,#1423,#1424);
#1165=AXIS2_PLACEMENT_3D('',#1755,#1425,#1426);
#1166=AXIS2_PLACEMENT_3D('',#1756,#1427,#1428);
#1167=AXIS2_PLACEMENT_3D('',#1758,#1429,#1430);
#1168=AXIS2_PLACEMENT_3D('',#1759,#1431,#1432);
#1169=AXIS2_PLACEMENT_3D('',#1762,#1434,#1435);
#1170=AXIS2_PLACEMENT_3D('',#1763,#1436,#1437);
#1171=AXIS2_PLACEMENT_3D('',#1766,#1439,#1440);
#1172=AXIS2_PLACEMENT_3D('',#1767,#1441,#1442);
#1173=AXIS2_PLACEMENT_3D('',#1768,#1443,#1444);
#1174=AXIS2_PLACEMENT_3D('',#1770,#1445,#1446);
#1175=AXIS2_PLACEMENT_3D('',#1771,#1447,#1448);
#1176=AXIS2_PLACEMENT_3D('',#1773,#1449,#1450);
#1177=AXIS2_PLACEMENT_3D('',#1774,#1451,#1452);
#1178=AXIS2_PLACEMENT_3D('',#1777,#1454,#1455);
#1179=AXIS2_PLACEMENT_3D('',#1778,#1456,#1457);
#1180=AXIS2_PLACEMENT_3D('',#1781,#1459,#1460);
#1181=AXIS2_PLACEMENT_3D('',#1782,#1461,#1462);
#1182=AXIS2_PLACEMENT_3D('',#1783,#1463,#1464);
#1183=AXIS2_PLACEMENT_3D('',#1785,#1465,#1466);
#1184=AXIS2_PLACEMENT_3D('',#1786,#1467,#1468);
#1185=AXIS2_PLACEMENT_3D('',#1788,#1469,#1470);
#1186=AXIS2_PLACEMENT_3D('',#1789,#1471,#1472);
#1187=AXIS2_PLACEMENT_3D('',#1792,#1474,#1475);
#1188=AXIS2_PLACEMENT_3D('',#1793,#1476,#1477);
#1189=AXIS2_PLACEMENT_3D('',#1796,#1479,#1480);
#1190=AXIS2_PLACEMENT_3D('',#1797,#1481,#1482);
#1191=AXIS2_PLACEMENT_3D('',#1798,#1483,#1484);
#1192=AXIS2_PLACEMENT_3D('',#1800,#1485,#1486);
#1193=AXIS2_PLACEMENT_3D('',#1801,#1487,#1488);
#1194=AXIS2_PLACEMENT_3D('',#1803,#1489,#1490);
#1195=AXIS2_PLACEMENT_3D('',#1804,#1491,#1492);
#1196=AXIS2_PLACEMENT_3D('',#1807,#1494,#1495);
#1197=AXIS2_PLACEMENT_3D('',#1808,#1496,#1497);
#1198=AXIS2_PLACEMENT_3D('',#1811,#1499,#1500);
#1199=AXIS2_PLACEMENT_3D('',#1812,#1501,#1502);
#1200=AXIS2_PLACEMENT_3D('',#1813,#1503,#1504);
#1201=DIRECTION('axis',(0.,0.,1.));
#1202=DIRECTION('refdir',(1.,0.,0.));
#1203=DIRECTION('axis',(0.,0.,1.));
#1204=DIRECTION('refdir',(1.,0.,0.));
#1205=DIRECTION('center_axis',(0.707106781186549,0.,0.707106781186546));
#1206=DIRECTION('ref_axis',(0.707106781186546,0.,-0.707106781186549));
#1207=DIRECTION('',(-0.707106781186546,0.,0.707106781186549));
#1208=DIRECTION('',(0.,-1.,0.));
#1209=DIRECTION('',(0.707106781186546,0.,-0.707106781186549));
#1210=DIRECTION('',(0.,1.,0.));
#1211=DIRECTION('center_axis',(0.,0.,-1.));
#1212=DIRECTION('ref_axis',(-1.,0.,0.));
#1213=DIRECTION('',(-1.,0.,0.));
#1214=DIRECTION('',(0.,1.,0.));
#1215=DIRECTION('',(-1.,0.,0.));
#1216=DIRECTION('center_axis',(0.,-1.,0.));
#1217=DIRECTION('ref_axis',(0.,0.,1.));
#1218=DIRECTION('',(0.,0.,1.));
#1219=DIRECTION('',(1.,0.,0.));
#1220=DIRECTION('',(0.,0.,-1.));
#1221=DIRECTION('',(0.,0.,-1.));
#1222=DIRECTION('',(1.,0.,6.93889390390717E-16));
#1223=DIRECTION('',(0.707106781186553,0.,-0.707106781186542));
#1224=DIRECTION('center_axis',(0.,-1.,0.));
#1225=DIRECTION('ref_axis',(-1.,0.,-1.57009245868378E-14));
#1226=DIRECTION('',(-0.70710678118654,0.,-0.707106781186555));
#1227=DIRECTION('center_axis',(0.,-1.,0.));
#1228=DIRECTION('ref_axis',(-1.,0.,-1.57009245868378E-14));
#1229=DIRECTION('center_axis',(0.,1.,0.));
#1230=DIRECTION('ref_axis',(-1.,0.,-1.57009245868378E-14));
#1231=DIRECTION('',(0.,1.,0.));
#1232=DIRECTION('',(0.,-1.,0.));
#1233=DIRECTION('center_axis',(0.,-1.,0.));
#1234=DIRECTION('ref_axis',(-1.,0.,0.));
#1235=DIRECTION('',(0.70710678118654,0.,0.707106781186555));
#1236=DIRECTION('',(-0.707106781186553,0.,0.707106781186542));
#1237=DIRECTION('',(1.,0.,6.93889390390717E-16));
#1238=DIRECTION('',(0.,0.,-1.));
#1239=DIRECTION('',(0.,0.,1.));
#1240=DIRECTION('',(-1.,0.,0.));
#1241=DIRECTION('',(0.,0.,1.));
#1242=DIRECTION('center_axis',(-0.707106781186542,0.,-0.707106781186553));
#1243=DIRECTION('ref_axis',(-0.707106781186553,0.,0.707106781186542));
#1244=DIRECTION('',(0.,-1.,0.));
#1245=DIRECTION('center_axis',(-0.707106781186555,0.,0.70710678118654));
#1246=DIRECTION('ref_axis',(0.70710678118654,0.,0.707106781186555));
#1247=DIRECTION('center_axis',(1.,0.,0.));
#1248=DIRECTION('ref_axis',(0.,0.,-1.));
#1249=DIRECTION('',(0.,-1.,0.));
#1250=DIRECTION('',(0.,1.,0.));
#1251=DIRECTION('center_axis',(-1.,0.,0.));
#1252=DIRECTION('ref_axis',(0.,0.,1.));
#1253=DIRECTION('',(0.,-1.,0.));
#1254=DIRECTION('center_axis',(-6.93889390390717E-16,0.,1.));
#1255=DIRECTION('ref_axis',(1.,0.,6.93889390390717E-16));
#1256=DIRECTION('center_axis',(1.,0.,0.));
#1257=DIRECTION('ref_axis',(0.,-1.,0.));
#1258=DIRECTION('',(0.,-1.,0.));
#1259=DIRECTION('',(0.,0.,-1.));
#1260=DIRECTION('',(0.,-1.,0.));
#1261=DIRECTION('center_axis',(1.,0.,0.));
#1262=DIRECTION('ref_axis',(0.,-1.,0.));
#1263=DIRECTION('',(0.,-1.,0.));
#1264=DIRECTION('',(0.,0.,-1.));
#1265=DIRECTION('',(0.,-1.,0.));
#1266=DIRECTION('center_axis',(0.,1.,0.));
#1267=DIRECTION('ref_axis',(1.,0.,-1.25607396694709E-14));
#1268=DIRECTION('center_axis',(0.,-1.,0.));
#1269=DIRECTION('ref_axis',(1.,0.,-1.25607396694709E-14));
#1270=DIRECTION('',(0.,-1.,0.));
#1271=DIRECTION('center_axis',(0.,1.,0.));
#1272=DIRECTION('ref_axis',(1.,0.,-1.25607396694709E-14));
#1273=DIRECTION('',(0.,1.,0.));
#1274=DIRECTION('center_axis',(0.707106781186542,0.,-0.707106781186553));
#1275=DIRECTION('ref_axis',(-0.707106781186553,0.,-0.707106781186542));
#1276=DIRECTION('',(-0.707106781186553,0.,-0.707106781186542));
#1277=DIRECTION('',(0.,1.,0.));
#1278=DIRECTION('',(0.707106781186553,0.,0.707106781186542));
#1279=DIRECTION('center_axis',(0.,1.,0.));
#1280=DIRECTION('ref_axis',(1.,0.,0.));
#1281=DIRECTION('',(0.707106781186552,0.,-0.707106781186543));
#1282=DIRECTION('',(1.,0.,0.));
#1283=DIRECTION('',(0.707106781186552,0.,0.707106781186543));
#1284=DIRECTION('',(0.,0.,1.));
#1285=DIRECTION('',(-1.,0.,0.));
#1286=DIRECTION('',(0.,0.,-1.));
#1287=DIRECTION('',(0.,0.,-1.));
#1288=DIRECTION('',(-1.,0.,6.93889390390717E-16));
#1289=DIRECTION('center_axis',(-0.707106781186543,0.,0.707106781186552));
#1290=DIRECTION('ref_axis',(0.707106781186552,0.,0.707106781186543));
#1291=DIRECTION('',(-0.707106781186552,0.,-0.707106781186543));
#1292=DIRECTION('',(0.,-1.,0.));
#1293=DIRECTION('',(0.,1.,0.));
#1294=DIRECTION('center_axis',(0.,0.,1.));
#1295=DIRECTION('ref_axis',(1.,0.,0.));
#1296=DIRECTION('',(0.,-1.,0.));
#1297=DIRECTION('',(1.,0.,0.));
#1298=DIRECTION('center_axis',(0.707106781186543,0.,0.707106781186552));
#1299=DIRECTION('ref_axis',(0.707106781186552,0.,-0.707106781186543));
#1300=DIRECTION('',(-0.707106781186552,0.,0.707106781186543));
#1301=DIRECTION('center_axis',(1.,0.,0.));
#1302=DIRECTION('ref_axis',(0.,0.,-1.));
#1303=DIRECTION('',(0.,1.,0.));
#1304=DIRECTION('',(0.,0.,-1.));
#1305=DIRECTION('',(0.,1.,0.));
#1306=DIRECTION('center_axis',(-1.,0.,0.));
#1307=DIRECTION('ref_axis',(0.,0.,1.));
#1308=DIRECTION('',(0.,0.,1.));
#1309=DIRECTION('',(0.,1.,0.));
#1310=DIRECTION('center_axis',(-6.93889390390717E-16,0.,-1.));
#1311=DIRECTION('ref_axis',(-1.,0.,6.93889390390717E-16));
#1312=DIRECTION('',(-1.,0.,6.93889390390717E-16));
#1313=DIRECTION('center_axis',(0.,1.,0.));
#1314=DIRECTION('ref_axis',(0.,0.,1.));
#1315=DIRECTION('',(0.,0.,1.));
#1316=DIRECTION('',(1.,0.,0.));
#1317=DIRECTION('center_axis',(-1.,0.,0.));
#1318=DIRECTION('ref_axis',(0.,1.,0.));
#1319=DIRECTION('',(0.,1.,0.));
#1320=DIRECTION('',(0.,0.,-1.));
#1321=DIRECTION('',(0.,1.,0.));
#1322=DIRECTION('center_axis',(-1.,0.,0.));
#1323=DIRECTION('ref_axis',(0.,1.,0.));
#1324=DIRECTION('',(0.,1.,0.));
#1325=DIRECTION('',(0.,0.,-1.));
#1326=DIRECTION('',(0.,1.,0.));
#1327=DIRECTION('center_axis',(0.,0.,-1.));
#1328=DIRECTION('ref_axis',(-1.,0.,0.));
#1329=DIRECTION('',(0.,1.,3.05311331771918E-15));
#1330=DIRECTION('',(1.,6.18508648816243E-17,0.));
#1331=DIRECTION('',(0.,1.,0.));
#1332=DIRECTION('',(-1.,0.,0.));
#1333=DIRECTION('',(0.,-1.,0.));
#1334=DIRECTION('',(1.,6.18508648816243E-17,0.));
#1335=DIRECTION('',(0.,-1.,-3.05311331771918E-15));
#1336=DIRECTION('',(-1.,0.,0.));
#1337=DIRECTION('',(1.,0.,0.));
#1338=DIRECTION('',(-1.,0.,0.));
#1339=DIRECTION('center_axis',(0.,1.,3.05311331771918E-15));
#1340=DIRECTION('ref_axis',(-1.18423789293348E-14,3.05311331771918E-15,
-1.));
#1341=DIRECTION('center_axis',(0.,1.,0.));
#1342=DIRECTION('ref_axis',(-1.18423789293348E-14,3.33066907387548E-15,
-1.));
#1343=DIRECTION('',(0.,-1.,-3.33066907387548E-15));
#1344=DIRECTION('center_axis',(6.18508648816243E-17,-1.,0.));
#1345=DIRECTION('ref_axis',(-1.18423789293348E-14,3.05311331771918E-15,
-1.));
#1346=DIRECTION('center_axis',(-1.38777878078141E-16,3.05311331771918E-15,
-1.));
#1347=DIRECTION('ref_axis',(-1.,1.4686100972727E-15,1.38777878078145E-16));
#1348=DIRECTION('',(1.,6.18508648816243E-17,-1.3877787807814E-16));
#1349=DIRECTION('',(-1.,0.,1.3877787807814E-16));
#1350=DIRECTION('',(0.,-1.,-3.33066907387548E-15));
#1351=DIRECTION('center_axis',(0.,1.,3.05311331771918E-15));
#1352=DIRECTION('ref_axis',(1.,3.27048583622873E-29,-1.07321559047097E-14));
#1353=DIRECTION('center_axis',(6.18508648816243E-17,-1.,0.));
#1354=DIRECTION('ref_axis',(1.,3.27048583622873E-29,-1.07321559047097E-14));
#1355=DIRECTION('center_axis',(0.,1.,0.));
#1356=DIRECTION('ref_axis',(1.,3.58274327787871E-29,-1.07321559047097E-14));
#1357=DIRECTION('center_axis',(-0.408248290463867,-0.408248290463861,-0.816496580927725));
#1358=DIRECTION('ref_axis',(-0.894427190999914,0.,0.447213595499962));
#1359=DIRECTION('',(0.,0.894427190999916,-0.447213595499957));
#1360=DIRECTION('',(0.577350269189625,0.577350269189625,-0.577350269189627));
#1361=DIRECTION('',(0.707106781186542,-0.707106781186553,0.));
#1362=DIRECTION('',(-0.577350269189625,-0.577350269189625,0.577350269189627));
#1363=DIRECTION('',(-0.894427190999914,0.,0.447213595499962));
#1364=DIRECTION('center_axis',(0.,0.,-1.));
#1365=DIRECTION('ref_axis',(-1.,0.,0.));
#1366=DIRECTION('',(0.,-1.,0.));
#1367=DIRECTION('',(-0.707106781186548,-0.707106781186547,0.));
#1368=DIRECTION('',(-1.,-6.18508648816243E-17,0.));
#1369=DIRECTION('',(-0.707106781186527,0.707106781186568,0.));
#1370=DIRECTION('',(0.,1.,0.));
#1371=DIRECTION('',(0.707106781186542,0.707106781186553,0.));
#1372=DIRECTION('',(1.,0.,0.));
#1373=DIRECTION('center_axis',(-0.707106781186549,0.,-0.707106781186546));
#1374=DIRECTION('ref_axis',(-0.707106781186546,0.,0.707106781186549));
#1375=DIRECTION('',(0.,1.,0.));
#1376=DIRECTION('',(-0.577350269189624,0.577350269189627,0.577350269189626));
#1377=DIRECTION('center_axis',(-1.,0.,0.));
#1378=DIRECTION('ref_axis',(0.,1.,0.));
#1379=DIRECTION('',(0.,0.,-1.));
#1380=DIRECTION('',(0.,0.,-1.));
#1381=DIRECTION('',(0.,0.894427190999916,0.447213595499959));
#1382=DIRECTION('center_axis',(-0.408248290463863,0.408248290463864,-0.816496580927726));
#1383=DIRECTION('ref_axis',(-0.894427190999916,0.,0.447213595499958));
#1384=DIRECTION('',(0.894427190999916,5.53210953369866E-17,-0.447213595499958));
#1385=DIRECTION('',(0.577350269189624,-0.577350269189627,-0.577350269189626));
#1386=DIRECTION('center_axis',(-6.18508648816243E-17,1.,0.));
#1387=DIRECTION('ref_axis',(1.,6.18508648816243E-17,0.));
#1388=DIRECTION('',(0.,0.,-1.));
#1389=DIRECTION('',(0.89442719099991,5.53210953369863E-17,0.447213595499969));
#1390=DIRECTION('',(1.,6.18508648816243E-17,0.));
#1391=DIRECTION('center_axis',(0.408248290463875,0.408248290463852,-0.816496580927726));
#1392=DIRECTION('ref_axis',(-0.89442719099991,0.,-0.447213595499969));
#1393=DIRECTION('',(0.,-0.894427190999921,-0.447213595499948));
#1394=DIRECTION('',(-0.577350269189624,-0.577350269189627,-0.577350269189626));
#1395=DIRECTION('',(0.577350269189624,0.577350269189627,0.577350269189626));
#1396=DIRECTION('center_axis',(1.,0.,0.));
#1397=DIRECTION('ref_axis',(0.,-1.,0.));
#1398=DIRECTION('',(0.,0.,-1.));
#1399=DIRECTION('',(0.,-0.894427190999916,0.447213595499957));
#1400=DIRECTION('',(0.,-1.,0.));
#1401=DIRECTION('center_axis',(-4.37351659800494E-17,0.707106781186547,
-0.707106781186548));
#1402=DIRECTION('ref_axis',(-1.,0.,6.18508648816243E-17));
#1403=DIRECTION('center_axis',(0.408248290463867,-0.408248290463861,-0.816496580927725));
#1404=DIRECTION('ref_axis',(-0.894427190999914,0.,-0.447213595499962));
#1405=DIRECTION('',(-0.894427190999914,0.,-0.447213595499962));
#1406=DIRECTION('',(-0.577350269189625,0.577350269189625,-0.577350269189627));
#1407=DIRECTION('',(0.577350269189625,-0.577350269189625,0.577350269189627));
#1408=DIRECTION('center_axis',(0.,-1.,0.));
#1409=DIRECTION('ref_axis',(-1.,0.,0.));
#1410=DIRECTION('',(-1.,0.,0.));
#1411=DIRECTION('center_axis',(0.707106781186549,0.,-0.707106781186546));
#1412=DIRECTION('ref_axis',(-0.707106781186546,0.,-0.707106781186549));
#1413=DIRECTION('center_axis',(0.,-0.707106781186549,-0.707106781186546));
#1414=DIRECTION('ref_axis',(-1.,0.,0.));
#1415=DIRECTION('center_axis',(0.,0.,-1.));
#1416=DIRECTION('ref_axis',(1.,0.,0.));
#1417=DIRECTION('',(1.,0.,0.));
#1418=DIRECTION('',(-1.,0.,0.));
#1419=DIRECTION('center_axis',(0.,-1.,0.));
#1420=DIRECTION('ref_axis',(-1.,0.,0.));
#1421=DIRECTION('center_axis',(0.,1.,0.));
#1422=DIRECTION('ref_axis',(1.,0.,0.));
#1423=DIRECTION('center_axis',(0.,0.,-1.));
#1424=DIRECTION('ref_axis',(1.,0.,0.));
#1425=DIRECTION('center_axis',(0.,0.,1.));
#1426=DIRECTION('ref_axis',(1.,0.,0.));
#1427=DIRECTION('center_axis',(0.,0.,-1.));
#1428=DIRECTION('ref_axis',(1.,0.,0.));
#1429=DIRECTION('center_axis',(0.,0.,-1.));
#1430=DIRECTION('ref_axis',(1.,0.,0.));
#1431=DIRECTION('center_axis',(0.,0.,-1.));
#1432=DIRECTION('ref_axis',(1.,0.,0.));
#1433=DIRECTION('',(0.,0.,1.));
#1434=DIRECTION('center_axis',(0.,0.,1.));
#1435=DIRECTION('ref_axis',(1.,0.,0.));
#1436=DIRECTION('center_axis',(0.,0.,-1.));
#1437=DIRECTION('ref_axis',(1.,0.,0.));
#1438=DIRECTION('',(0.,0.,1.));
#1439=DIRECTION('center_axis',(0.,0.,-1.));
#1440=DIRECTION('ref_axis',(1.,0.,0.));
#1441=DIRECTION('center_axis',(0.,0.,-1.));
#1442=DIRECTION('ref_axis',(1.,0.,0.));
#1443=DIRECTION('center_axis',(0.,0.,-1.));
#1444=DIRECTION('ref_axis',(1.,0.,0.));
#1445=DIRECTION('center_axis',(0.,0.,1.));
#1446=DIRECTION('ref_axis',(1.,0.,0.));
#1447=DIRECTION('center_axis',(0.,0.,-1.));
#1448=DIRECTION('ref_axis',(1.,0.,0.));
#1449=DIRECTION('center_axis',(0.,0.,-1.));
#1450=DIRECTION('ref_axis',(1.,0.,0.));
#1451=DIRECTION('center_axis',(0.,0.,-1.));
#1452=DIRECTION('ref_axis',(1.,0.,0.));
#1453=DIRECTION('',(0.,0.,1.));
#1454=DIRECTION('center_axis',(0.,0.,1.));
#1455=DIRECTION('ref_axis',(1.,0.,0.));
#1456=DIRECTION('center_axis',(0.,0.,-1.));
#1457=DIRECTION('ref_axis',(1.,0.,0.));
#1458=DIRECTION('',(0.,0.,1.));
#1459=DIRECTION('center_axis',(0.,0.,-1.));
#1460=DIRECTION('ref_axis',(1.,0.,0.));
#1461=DIRECTION('center_axis',(0.,0.,-1.));
#1462=DIRECTION('ref_axis',(1.,0.,0.));
#1463=DIRECTION('center_axis',(0.,0.,-1.));
#1464=DIRECTION('ref_axis',(1.,0.,0.));
#1465=DIRECTION('center_axis',(0.,0.,1.));
#1466=DIRECTION('ref_axis',(1.,0.,0.));
#1467=DIRECTION('center_axis',(0.,0.,-1.));
#1468=DIRECTION('ref_axis',(1.,0.,0.));
#1469=DIRECTION('center_axis',(0.,0.,-1.));
#1470=DIRECTION('ref_axis',(1.,0.,0.));
#1471=DIRECTION('center_axis',(0.,0.,-1.));
#1472=DIRECTION('ref_axis',(1.,0.,0.));
#1473=DIRECTION('',(0.,0.,1.));
#1474=DIRECTION('center_axis',(0.,0.,1.));
#1475=DIRECTION('ref_axis',(1.,0.,0.));
#1476=DIRECTION('center_axis',(0.,0.,-1.));
#1477=DIRECTION('ref_axis',(1.,0.,0.));
#1478=DIRECTION('',(0.,0.,1.));
#1479=DIRECTION('center_axis',(0.,0.,-1.));
#1480=DIRECTION('ref_axis',(1.,0.,0.));
#1481=DIRECTION('center_axis',(0.,0.,-1.));
#1482=DIRECTION('ref_axis',(1.,0.,0.));
#1483=DIRECTION('center_axis',(0.,0.,-1.));
#1484=DIRECTION('ref_axis',(1.,0.,0.));
#1485=DIRECTION('center_axis',(0.,0.,1.));
#1486=DIRECTION('ref_axis',(1.,0.,0.));
#1487=DIRECTION('center_axis',(0.,0.,-1.));
#1488=DIRECTION('ref_axis',(1.,0.,0.));
#1489=DIRECTION('center_axis',(0.,0.,-1.));
#1490=DIRECTION('ref_axis',(1.,0.,0.));
#1491=DIRECTION('center_axis',(0.,0.,-1.));
#1492=DIRECTION('ref_axis',(1.,0.,0.));
#1493=DIRECTION('',(0.,0.,1.));
#1494=DIRECTION('center_axis',(0.,0.,1.));
#1495=DIRECTION('ref_axis',(1.,0.,0.));
#1496=DIRECTION('center_axis',(0.,0.,-1.));
#1497=DIRECTION('ref_axis',(1.,0.,0.));
#1498=DIRECTION('',(0.,0.,1.));
#1499=DIRECTION('center_axis',(0.,0.,-1.));
#1500=DIRECTION('ref_axis',(1.,0.,0.));
#1501=DIRECTION('center_axis',(0.,0.,-1.));
#1502=DIRECTION('ref_axis',(1.,0.,0.));
#1503=DIRECTION('',(0.,0.,1.));
#1504=DIRECTION('',(1.,0.,0.));
#1505=CARTESIAN_POINT('',(0.,0.,0.));
#1506=CARTESIAN_POINT('',(0.,0.,0.));
#1507=CARTESIAN_POINT('Origin',(104.099999999993,-68.1000000000003,-2.552));
#1508=CARTESIAN_POINT('',(104.599999999993,-62.9000000000003,-3.052));
#1509=CARTESIAN_POINT('',(103.599999999993,-62.9000000000003,-2.052));
#1510=CARTESIAN_POINT('',(104.049999999993,-62.9000000000003,-2.50200000000001));
#1511=CARTESIAN_POINT('',(103.599999999993,-68.1000000000003,-2.052));
#1512=CARTESIAN_POINT('',(103.599999999993,-68.1000000000003,-2.052));
#1513=CARTESIAN_POINT('',(104.599999999993,-68.1000000000003,-3.052));
#1514=CARTESIAN_POINT('',(104.049999999993,-68.1000000000003,-2.50200000000001));
#1515=CARTESIAN_POINT('',(104.599999999993,-68.1000000000003,-3.052));
#1516=CARTESIAN_POINT('Origin',(104.599999999993,-68.1000000000003,-2.052));
#1517=CARTESIAN_POINT('',(101.199999999993,-62.9000000000003,-2.052));
#1518=CARTESIAN_POINT('',(104.599999999993,-62.9000000000003,-2.052));
#1519=CARTESIAN_POINT('',(101.199999999993,-68.1000000000003,-2.052));
#1520=CARTESIAN_POINT('',(101.199999999993,-68.1000000000003,-2.052));
#1521=CARTESIAN_POINT('',(104.599999999993,-68.1000000000003,-2.052));
#1522=CARTESIAN_POINT('Origin',(102.399999999993,-62.9000000000003,-4.052));
#1523=CARTESIAN_POINT('',(104.599999999993,-62.9000000000003,-6.052));
#1524=CARTESIAN_POINT('',(104.599999999993,-62.9000000000003,-6.052));
#1525=CARTESIAN_POINT('',(102.599999999993,-62.9000000000003,-6.052));
#1526=CARTESIAN_POINT('',(119.449999999993,-62.9000000000003,-6.052));
#1527=CARTESIAN_POINT('',(102.599999999993,-62.9000000000003,-4.552));
#1528=CARTESIAN_POINT('',(102.599999999993,-62.9000000000003,-4.302));
#1529=CARTESIAN_POINT('',(102.599999999993,-62.9000000000003,-3.552));
#1530=CARTESIAN_POINT('',(102.599999999993,-62.9000000000003,-3.552));
#1531=CARTESIAN_POINT('',(100.699999999993,-62.9000000000003,-3.552));
#1532=CARTESIAN_POINT('',(100.199999999993,-62.9000000000003,-3.552));
#1533=CARTESIAN_POINT('',(100.553553390586,-62.9000000000003,-3.40555339059326));
#1534=CARTESIAN_POINT('',(101.124999999993,-62.9000000000003,-3.977));
#1535=CARTESIAN_POINT('',(100.553553390586,-62.9000000000003,-2.69844660940673));
#1536=CARTESIAN_POINT('Origin',(100.90710678118,-62.9000000000003,-3.05199999999999));
#1537=CARTESIAN_POINT('',(100.749999999993,-62.9000000000003,-2.502));
#1538=CARTESIAN_POINT('Origin',(100.90710678118,-68.1000000000003,-3.05199999999999));
#1539=CARTESIAN_POINT('',(100.553553390586,-68.1000000000003,-3.40555339059326));
#1540=CARTESIAN_POINT('',(100.553553390586,-68.1000000000003,-2.69844660940673));
#1541=CARTESIAN_POINT('Origin',(100.90710678118,-68.1000000000003,-3.05199999999999));
#1542=CARTESIAN_POINT('',(100.553553390586,-68.1000000000003,-2.69844660940672));
#1543=CARTESIAN_POINT('',(100.553553390586,-68.1000000000003,-3.40555339059327));
#1544=CARTESIAN_POINT('Origin',(102.399999999993,-68.1000000000003,-4.052));
#1545=CARTESIAN_POINT('',(100.749999999993,-68.1000000000003,-2.502));
#1546=CARTESIAN_POINT('',(100.699999999993,-68.1000000000003,-3.552));
#1547=CARTESIAN_POINT('',(101.124999999993,-68.1000000000003,-3.977));
#1548=CARTESIAN_POINT('',(102.599999999993,-68.1000000000003,-3.552));
#1549=CARTESIAN_POINT('',(100.199999999993,-68.1000000000003,-3.552));
#1550=CARTESIAN_POINT('',(102.599999999993,-68.1000000000003,-4.552));
#1551=CARTESIAN_POINT('',(102.599999999993,-68.1000000000003,-3.552));
#1552=CARTESIAN_POINT('',(102.599999999993,-68.1000000000003,-6.052));
#1553=CARTESIAN_POINT('',(102.599999999993,-68.1000000000003,-4.302));
#1554=CARTESIAN_POINT('',(104.599999999993,-68.1000000000003,-6.052));
#1555=CARTESIAN_POINT('',(119.449999999993,-68.1000000000003,-6.052));
#1556=CARTESIAN_POINT('',(104.599999999993,-68.1000000000003,-6.052));
#1557=CARTESIAN_POINT('Origin',(100.449999999993,-68.1000000000003,-3.302));
#1558=CARTESIAN_POINT('',(100.699999999993,-68.1000000000003,-3.552));
#1559=CARTESIAN_POINT('Origin',(100.699999999993,-68.1000000000003,-2.552));
#1560=CARTESIAN_POINT('Origin',(102.599999999993,-68.1000000000003,-3.552));
#1561=CARTESIAN_POINT('',(102.599999999993,-107.4,-4.552));
#1562=CARTESIAN_POINT('',(102.599999999993,-68.1000000000003,-3.552));
#1563=CARTESIAN_POINT('Origin',(104.599999999993,-68.1000000000003,-6.052));
#1564=CARTESIAN_POINT('',(104.599999999993,-66.8000000000003,-6.052));
#1565=CARTESIAN_POINT('Origin',(100.199999999993,-68.1000000000003,-3.552));
#1566=CARTESIAN_POINT('Origin',(102.599999999993,-23.6000000000003,-4.552));
#1567=CARTESIAN_POINT('',(102.599999999993,-23.6000000000003,-6.052));
#1568=CARTESIAN_POINT('',(102.599999999993,-107.4,-6.052));
#1569=CARTESIAN_POINT('',(102.599999999993,-23.6000000000003,-4.552));
#1570=CARTESIAN_POINT('',(102.599999999993,-23.6000000000003,-4.552));
#1571=CARTESIAN_POINT('',(102.599999999993,-107.4,-4.552));
#1572=CARTESIAN_POINT('Origin',(102.599999999993,-23.6000000000003,-4.552));
#1573=CARTESIAN_POINT('',(102.599999999993,-107.4,-4.552));
#1574=CARTESIAN_POINT('',(102.599999999993,-107.4,-4.552));
#1575=CARTESIAN_POINT('',(102.599999999993,-107.4,-6.052));
#1576=CARTESIAN_POINT('',(102.599999999993,-107.4,-4.552));
#1577=CARTESIAN_POINT('',(102.599999999993,-107.4,-6.052));
#1578=CARTESIAN_POINT('Origin',(172.092893218806,-68.1000000000003,-3.05199999999998));
#1579=CARTESIAN_POINT('',(172.4464466094,-62.9000000000003,-3.40555339059325));
#1580=CARTESIAN_POINT('',(172.4464466094,-62.9000000000003,-2.69844660940673));
#1581=CARTESIAN_POINT('Origin',(172.092893218806,-62.9000000000003,-3.05199999999998));
#1582=CARTESIAN_POINT('',(172.4464466094,-68.1000000000003,-2.69844660940673));
#1583=CARTESIAN_POINT('',(172.4464466094,-68.1000000000003,-2.69844660940672));
#1584=CARTESIAN_POINT('',(172.4464466094,-68.1000000000003,-3.40555339059325));
#1585=CARTESIAN_POINT('Origin',(172.092893218806,-68.1000000000003,-3.05199999999998));
#1586=CARTESIAN_POINT('',(172.4464466094,-68.1000000000003,-3.40555339059326));
#1587=CARTESIAN_POINT('Origin',(172.549999999993,-68.1000000000003,-3.302));
#1588=CARTESIAN_POINT('',(172.299999999993,-68.1000000000003,-3.552));
#1589=CARTESIAN_POINT('',(171.874999999993,-68.1000000000003,-3.977));
#1590=CARTESIAN_POINT('',(172.299999999993,-62.9000000000003,-3.552));
#1591=CARTESIAN_POINT('',(172.299999999993,-68.1000000000003,-3.552));
#1592=CARTESIAN_POINT('',(171.874999999993,-62.9000000000003,-3.977));
#1593=CARTESIAN_POINT('Origin',(170.599999999993,-68.1000000000003,-4.052));
#1594=CARTESIAN_POINT('',(171.799999999993,-68.1000000000003,-2.052));
#1595=CARTESIAN_POINT('',(172.249999999993,-68.1000000000003,-2.50199999999999));
#1596=CARTESIAN_POINT('',(169.399999999993,-68.1000000000003,-2.052));
#1597=CARTESIAN_POINT('',(168.399999999993,-68.1000000000003,-2.052));
#1598=CARTESIAN_POINT('',(168.399999999993,-68.1000000000003,-3.052));
#1599=CARTESIAN_POINT('',(168.949999999993,-68.1000000000003,-2.502));
#1600=CARTESIAN_POINT('',(168.399999999993,-68.1000000000003,-6.052));
#1601=CARTESIAN_POINT('',(168.399999999993,-68.1000000000003,-6.052));
#1602=CARTESIAN_POINT('',(170.399999999993,-68.1000000000003,-6.052));
#1603=CARTESIAN_POINT('',(153.549999999993,-68.1000000000003,-6.052));
#1604=CARTESIAN_POINT('',(170.399999999993,-68.1000000000003,-4.552));
#1605=CARTESIAN_POINT('',(170.399999999993,-68.1000000000003,-4.302));
#1606=CARTESIAN_POINT('',(170.399999999993,-68.1000000000003,-3.552));
#1607=CARTESIAN_POINT('',(170.399999999993,-68.1000000000003,-3.552));
#1608=CARTESIAN_POINT('',(172.799999999993,-68.1000000000003,-3.552));
#1609=CARTESIAN_POINT('Origin',(168.899999999993,-68.1000000000003,-2.552));
#1610=CARTESIAN_POINT('',(169.399999999993,-62.9000000000003,-2.052));
#1611=CARTESIAN_POINT('',(168.399999999993,-62.9000000000003,-3.052));
#1612=CARTESIAN_POINT('',(168.949999999993,-62.9000000000003,-2.502));
#1613=CARTESIAN_POINT('',(168.399999999993,-68.1000000000003,-3.052));
#1614=CARTESIAN_POINT('',(169.399999999993,-68.1000000000003,-2.052));
#1615=CARTESIAN_POINT('Origin',(168.399999999993,-68.1000000000003,-2.052));
#1616=CARTESIAN_POINT('',(171.799999999993,-62.9000000000003,-2.052));
#1617=CARTESIAN_POINT('',(171.799999999993,-68.1000000000003,-2.052));
#1618=CARTESIAN_POINT('',(168.399999999993,-62.9000000000003,-2.052));
#1619=CARTESIAN_POINT('Origin',(172.299999999993,-68.1000000000003,-2.552));
#1620=CARTESIAN_POINT('',(172.249999999993,-62.9000000000003,-2.50199999999999));
#1621=CARTESIAN_POINT('Origin',(170.399999999993,-68.1000000000003,-3.552));
#1622=CARTESIAN_POINT('',(170.399999999993,-62.9000000000003,-4.552));
#1623=CARTESIAN_POINT('',(170.399999999993,-23.6000000000003,-4.552));
#1624=CARTESIAN_POINT('',(170.399999999993,-62.9000000000003,-3.552));
#1625=CARTESIAN_POINT('',(170.399999999993,-62.9000000000003,-3.552));
#1626=CARTESIAN_POINT('',(170.399999999993,-68.1000000000003,-3.552));
#1627=CARTESIAN_POINT('Origin',(168.399999999993,-68.1000000000003,-6.052));
#1628=CARTESIAN_POINT('',(168.399999999993,-62.9000000000003,-6.052));
#1629=CARTESIAN_POINT('',(168.399999999993,-62.9000000000003,-6.052));
#1630=CARTESIAN_POINT('',(168.399999999993,-66.8000000000003,-6.052));
#1631=CARTESIAN_POINT('Origin',(172.799999999993,-68.1000000000003,-3.552));
#1632=CARTESIAN_POINT('',(172.799999999993,-62.9000000000003,-3.552));
#1633=CARTESIAN_POINT('Origin',(170.599999999993,-62.9000000000003,-4.052));
#1634=CARTESIAN_POINT('',(170.399999999993,-62.9000000000003,-6.052));
#1635=CARTESIAN_POINT('',(170.399999999993,-62.9000000000003,-4.302));
#1636=CARTESIAN_POINT('',(153.549999999993,-62.9000000000003,-6.052));
#1637=CARTESIAN_POINT('Origin',(170.399999999993,-107.4,-4.552));
#1638=CARTESIAN_POINT('',(170.399999999993,-107.4,-6.052));
#1639=CARTESIAN_POINT('',(170.399999999993,-23.6000000000003,-6.052));
#1640=CARTESIAN_POINT('',(170.399999999993,-107.4,-4.552));
#1641=CARTESIAN_POINT('',(170.399999999993,-107.4,-4.552));
#1642=CARTESIAN_POINT('',(170.399999999993,-23.6000000000003,-4.552));
#1643=CARTESIAN_POINT('Origin',(170.399999999993,-107.4,-4.552));
#1644=CARTESIAN_POINT('',(170.399999999993,-23.6000000000003,-4.552));
#1645=CARTESIAN_POINT('',(170.399999999993,-23.6000000000003,-4.552));
#1646=CARTESIAN_POINT('',(170.399999999993,-23.6000000000003,-6.052));
#1647=CARTESIAN_POINT('',(170.399999999993,-23.6000000000003,-4.552));
#1648=CARTESIAN_POINT('',(170.399999999993,-23.6000000000003,-6.052));
#1649=CARTESIAN_POINT('Origin',(136.499999999993,-65.5000000000003,-4.552));
#1650=CARTESIAN_POINT('',(131.687940186848,-23.6000000000003,-4.552));
#1651=CARTESIAN_POINT('',(131.687940186848,-21.6000000000003,-4.552));
#1652=CARTESIAN_POINT('',(131.687940186848,-23.12,-4.552));
#1653=CARTESIAN_POINT('',(100.599999999993,-21.6000000000003,-4.552));
#1654=CARTESIAN_POINT('',(100.599999999993,-21.6000000000003,-4.552));
#1655=CARTESIAN_POINT('',(100.599999999993,-109.4,-4.552));
#1656=CARTESIAN_POINT('',(100.599999999993,-109.4,-4.552));
#1657=CARTESIAN_POINT('',(172.399999999993,-109.4,-4.552));
#1658=CARTESIAN_POINT('',(172.399999999993,-109.4,-4.552));
#1659=CARTESIAN_POINT('',(172.399999999993,-21.6000000000003,-4.552));
#1660=CARTESIAN_POINT('',(172.399999999993,-21.6000000000003,-4.552));
#1661=CARTESIAN_POINT('',(142.062059813152,-21.6000000000003,-4.552));
#1662=CARTESIAN_POINT('',(100.599999999993,-21.6000000000003,-4.552));
#1663=CARTESIAN_POINT('',(142.062059813152,-23.6000000000003,-4.552));
#1664=CARTESIAN_POINT('',(142.062059813152,-23.12,-4.552));
#1665=CARTESIAN_POINT('',(102.599999999993,-23.6000000000003,-4.552));
#1666=CARTESIAN_POINT('',(170.399999999993,-107.4,-4.552));
#1667=CARTESIAN_POINT('',(102.599999999993,-23.6000000000003,-4.552));
#1668=CARTESIAN_POINT('Origin',(132.875,-23.12,-3.63499999999996));
#1669=CARTESIAN_POINT('',(132.875,-23.6000000000003,-5.13499999999998));
#1670=CARTESIAN_POINT('Origin',(132.875,-23.6000000000003,-3.63499999999996));
#1671=CARTESIAN_POINT('',(132.875,-21.6000000000003,-5.13499999999998));
#1672=CARTESIAN_POINT('',(132.875,-23.12,-5.13499999999998));
#1673=CARTESIAN_POINT('Origin',(132.875,-21.6000000000003,-3.63499999999996));
#1674=CARTESIAN_POINT('Origin',(140.875,-23.12,-5.13499999999998));
#1675=CARTESIAN_POINT('',(140.875,-21.6000000000003,-5.13499999999998));
#1676=CARTESIAN_POINT('',(120.737499999996,-21.6000000000003,-5.13499999999997));
#1677=CARTESIAN_POINT('',(140.875,-23.6000000000003,-5.13499999999998));
#1678=CARTESIAN_POINT('',(151.637499999996,-23.6000000000003,-5.13499999999999));
#1679=CARTESIAN_POINT('',(140.875,-23.12,-5.13499999999998));
#1680=CARTESIAN_POINT('Origin',(140.875,-23.12,-3.63499999999996));
#1681=CARTESIAN_POINT('Origin',(140.875,-21.6000000000003,-3.63499999999996));
#1682=CARTESIAN_POINT('Origin',(140.875,-23.6000000000003,-3.63499999999996));
#1683=CARTESIAN_POINT('Origin',(114.308248290457,-95.6917517095365,-18.5355034190723));
#1684=CARTESIAN_POINT('',(100.599999999993,-109.4,-4.8272551286084));
#1685=CARTESIAN_POINT('',(100.599999999993,-106.950510257217,-6.052));
#1686=CARTESIAN_POINT('',(100.599999999993,-101.230102051444,-8.91220410288671));
#1687=CARTESIAN_POINT('',(102.599999999993,-104.950510257217,-8.052));
#1688=CARTESIAN_POINT('',(113.083503419065,-94.4670068381449,-18.5355034190723));
#1689=CARTESIAN_POINT('',(105.049489742776,-107.4,-8.052));
#1690=CARTESIAN_POINT('',(101.824744871384,-104.175255128609,-8.052));
#1691=CARTESIAN_POINT('',(103.049489742776,-109.4,-6.052));
#1692=CARTESIAN_POINT('',(115.532993161848,-96.9164965809281,-18.5355034190723));
#1693=CARTESIAN_POINT('',(137.489897948549,-109.4,-23.2722041028868));
#1694=CARTESIAN_POINT('Origin',(136.499999999993,-65.5000000000003,-8.052));
#1695=CARTESIAN_POINT('',(102.599999999993,-26.0494897427835,-8.052));
#1696=CARTESIAN_POINT('',(102.599999999993,-87.4500000000003,-8.052));
#1697=CARTESIAN_POINT('',(105.049489742776,-23.6000000000003,-8.052));
#1698=CARTESIAN_POINT('',(101.824744871385,-26.8247448713919,-8.052));
#1699=CARTESIAN_POINT('',(167.95051025721,-23.6000000000003,-8.052));
#1700=CARTESIAN_POINT('',(118.549999999993,-23.6000000000003,-8.052));
#1701=CARTESIAN_POINT('',(170.399999999993,-26.0494897427835,-8.052));
#1702=CARTESIAN_POINT('',(171.175255128602,-26.8247448713927,-8.052));
#1703=CARTESIAN_POINT('',(170.399999999993,-104.950510257217,-8.052));
#1704=CARTESIAN_POINT('',(170.399999999993,-43.5500000000003,-8.052));
#1705=CARTESIAN_POINT('',(167.95051025721,-107.4,-8.052));
#1706=CARTESIAN_POINT('',(171.175255128602,-104.175255128609,-8.052));
#1707=CARTESIAN_POINT('',(154.449999999993,-107.4,-8.052));
#1708=CARTESIAN_POINT('Origin',(101.599999999993,-87.4500000000003,-7.052));
#1709=CARTESIAN_POINT('',(100.599999999993,-24.0494897427835,-6.052));
#1710=CARTESIAN_POINT('',(100.599999999993,-87.4500000000003,-6.052));
#1711=CARTESIAN_POINT('',(114.416836752399,-37.8663264951891,-19.8688367524056));
#1712=CARTESIAN_POINT('Origin',(100.599999999993,-109.4,-4.552));
#1713=CARTESIAN_POINT('',(100.599999999993,-109.4,-4.552));
#1714=CARTESIAN_POINT('',(100.599999999993,-21.6000000000003,-4.82725512860842));
#1715=CARTESIAN_POINT('',(100.599999999993,-21.6000000000003,-4.552));
#1716=CARTESIAN_POINT('',(100.599999999993,-65.6898979485569,-26.8722041028868));
#1717=CARTESIAN_POINT('Origin',(115.64158162379,-36.6415816237976,-19.8688367524056));
#1718=CARTESIAN_POINT('',(103.049489742776,-21.6000000000003,-6.052));
#1719=CARTESIAN_POINT('',(109.56989794855,-21.6000000000003,-9.31220410288673));
#1720=CARTESIAN_POINT('',(116.866326495182,-35.416836752406,-19.8688367524056));
#1721=CARTESIAN_POINT('Origin',(100.599999999993,-21.6000000000003,-4.552));
#1722=CARTESIAN_POINT('',(172.399999999993,-21.6000000000003,-4.82725512860843));
#1723=CARTESIAN_POINT('',(172.399999999993,-21.6000000000003,-4.552));
#1724=CARTESIAN_POINT('',(169.95051025721,-21.6000000000003,-6.052));
#1725=CARTESIAN_POINT('',(135.510102051437,-21.6000000000003,-23.2722041028871));
#1726=CARTESIAN_POINT('',(118.549999999993,-21.6000000000003,-6.052));
#1727=CARTESIAN_POINT('Origin',(158.691751709529,-35.3082482904642,-18.5355034190723));
#1728=CARTESIAN_POINT('',(172.399999999993,-24.0494897427835,-6.052));
#1729=CARTESIAN_POINT('',(172.399999999993,-29.769897948557,-8.91220410288664));
#1730=CARTESIAN_POINT('',(159.916496580921,-36.5329931618558,-18.5355034190722));
#1731=CARTESIAN_POINT('',(157.467006838138,-34.0835034190726,-18.5355034190723));
#1732=CARTESIAN_POINT('Origin',(172.399999999993,-21.6000000000003,-4.552));
#1733=CARTESIAN_POINT('',(172.399999999993,-109.4,-4.8272551286084));
#1734=CARTESIAN_POINT('',(172.399999999993,-109.4,-4.552));
#1735=CARTESIAN_POINT('',(172.399999999993,-106.950510257217,-6.052));
#1736=CARTESIAN_POINT('',(172.399999999993,-65.3101020514437,-26.8722041028867));
#1737=CARTESIAN_POINT('',(172.399999999993,-43.5500000000003,-6.052));
#1738=CARTESIAN_POINT('Origin',(118.549999999993,-22.6000000000003,-7.052));
#1739=CARTESIAN_POINT('Origin',(157.358418376196,-94.3584183762032,-19.8688367524056));
#1740=CARTESIAN_POINT('',(169.95051025721,-109.4,-6.052));
#1741=CARTESIAN_POINT('',(163.430102051436,-109.4,-9.31220410288677));
#1742=CARTESIAN_POINT('',(156.133673504804,-95.5831632475948,-19.8688367524056));
#1743=CARTESIAN_POINT('',(158.583163247587,-93.1336735048116,-19.8688367524056));
#1744=CARTESIAN_POINT('Origin',(172.399999999993,-109.4,-4.552));
#1745=CARTESIAN_POINT('',(154.449999999993,-109.4,-6.052));
#1746=CARTESIAN_POINT('Origin',(171.399999999993,-43.5500000000003,-7.052));
#1747=CARTESIAN_POINT('Origin',(154.449999999993,-108.4,-7.052));
#1748=CARTESIAN_POINT('Origin',(136.499999999993,-65.5000000000003,-6.052));
#1749=CARTESIAN_POINT('',(170.399999999993,-107.4,-6.052));
#1750=CARTESIAN_POINT('',(102.599999999993,-23.6000000000003,-6.052));
#1751=CARTESIAN_POINT('Origin',(170.399999999993,-23.6000000000003,-4.552));
#1752=CARTESIAN_POINT('Origin',(102.599999999993,-107.4,-4.552));
#1753=CARTESIAN_POINT('Origin',(106.00000117298,-103.999998827,-4.5));
#1754=CARTESIAN_POINT('',(104.00000117298,-103.999998827,-4.5));
#1755=CARTESIAN_POINT('Origin',(106.00000117298,-103.999998827,-4.5));
#1756=CARTESIAN_POINT('Origin',(106.00000117298,-103.999998827,-6.));
#1757=CARTESIAN_POINT('',(102.99999999998,-103.999998827,-6.));
#1758=CARTESIAN_POINT('Origin',(106.00000117298,-103.999998827,-6.));
#1759=CARTESIAN_POINT('Origin',(106.00000117298,-103.999998827,0.));
#1760=CARTESIAN_POINT('',(104.00000117298,-103.999998827,0.));
#1761=CARTESIAN_POINT('',(104.00000117298,-103.999998827,0.));
#1762=CARTESIAN_POINT('Origin',(106.00000117298,-103.999998827,0.));
#1763=CARTESIAN_POINT('Origin',(106.00000117298,-103.999998827,0.));
#1764=CARTESIAN_POINT('',(102.99999999998,-103.999998827,0.));
#1765=CARTESIAN_POINT('',(102.99999999998,-103.999998827,0.));
#1766=CARTESIAN_POINT('Origin',(106.00000117298,-103.999998827,0.));
#1767=CARTESIAN_POINT('Origin',(106.00000117298,-103.999998827,0.));
#1768=CARTESIAN_POINT('Origin',(166.99999882701,-27.0000011729799,-4.5));
#1769=CARTESIAN_POINT('',(164.99999882701,-27.0000011729799,-4.5));
#1770=CARTESIAN_POINT('Origin',(166.99999882701,-27.0000011729799,-4.5));
#1771=CARTESIAN_POINT('Origin',(166.99999882701,-27.0000011729799,-6.));
#1772=CARTESIAN_POINT('',(163.999997654023,-27.0000011729799,-6.));
#1773=CARTESIAN_POINT('Origin',(166.99999882701,-27.0000011729799,-6.));
#1774=CARTESIAN_POINT('Origin',(166.99999882701,-27.0000011729799,0.));
#1775=CARTESIAN_POINT('',(164.99999882701,-27.0000011729799,0.));
#1776=CARTESIAN_POINT('',(164.99999882701,-27.0000011729799,0.));
#1777=CARTESIAN_POINT('Origin',(166.99999882701,-27.0000011729799,0.));
#1778=CARTESIAN_POINT('Origin',(166.99999882701,-27.0000011729799,0.));
#1779=CARTESIAN_POINT('',(163.999997654023,-27.0000011729799,0.));
#1780=CARTESIAN_POINT('',(163.999997654023,-27.0000011729799,0.));
#1781=CARTESIAN_POINT('Origin',(166.99999882701,-27.0000011729799,0.));
#1782=CARTESIAN_POINT('Origin',(166.99999882701,-27.0000011729799,0.));
#1783=CARTESIAN_POINT('Origin',(166.99999882701,-103.999998827,-4.5));
#1784=CARTESIAN_POINT('',(164.99999882701,-103.999998827,-4.5));
#1785=CARTESIAN_POINT('Origin',(166.99999882701,-103.999998827,-4.5));
#1786=CARTESIAN_POINT('Origin',(166.99999882701,-103.999998827,-6.));
#1787=CARTESIAN_POINT('',(163.99999765402,-103.999998827,-6.));
#1788=CARTESIAN_POINT('Origin',(166.99999882701,-103.999998827,-6.));
#1789=CARTESIAN_POINT('Origin',(166.99999882701,-103.999998827,0.));
#1790=CARTESIAN_POINT('',(164.99999882701,-103.999998827,0.));
#1791=CARTESIAN_POINT('',(164.99999882701,-103.999998827,0.));
#1792=CARTESIAN_POINT('Origin',(166.99999882701,-103.999998827,0.));
#1793=CARTESIAN_POINT('Origin',(166.99999882701,-103.999998827,0.));
#1794=CARTESIAN_POINT('',(163.99999765402,-103.999998827,0.));
#1795=CARTESIAN_POINT('',(163.99999765402,-103.999998827,0.));
#1796=CARTESIAN_POINT('Origin',(166.99999882701,-103.999998827,0.));
#1797=CARTESIAN_POINT('Origin',(166.99999882701,-103.999998827,0.));
#1798=CARTESIAN_POINT('Origin',(106.00000117298,-27.0000011729803,-4.5));
#1799=CARTESIAN_POINT('',(104.00000117298,-27.0000011729803,-4.5));
#1800=CARTESIAN_POINT('Origin',(106.00000117298,-27.0000011729803,-4.5));
#1801=CARTESIAN_POINT('Origin',(106.00000117298,-27.0000011729803,-6.));
#1802=CARTESIAN_POINT('',(103.,-27.,-6.));
#1803=CARTESIAN_POINT('Origin',(106.00000117298,-27.0000011729803,-6.));
#1804=CARTESIAN_POINT('Origin',(106.00000117298,-27.0000011729803,0.));
#1805=CARTESIAN_POINT('',(104.00000117298,-27.0000011729803,0.));
#1806=CARTESIAN_POINT('',(104.00000117298,-27.0000011729803,0.));
#1807=CARTESIAN_POINT('Origin',(106.00000117298,-27.0000011729803,0.));
#1808=CARTESIAN_POINT('Origin',(106.00000117298,-27.0000011729803,0.));
#1809=CARTESIAN_POINT('',(103.,-27.,0.));
#1810=CARTESIAN_POINT('',(103.,-27.0000011729803,0.));
#1811=CARTESIAN_POINT('Origin',(106.00000117298,-27.0000011729803,0.));
#1812=CARTESIAN_POINT('Origin',(106.00000117298,-27.0000011729803,0.));
#1813=CARTESIAN_POINT('',(0.,0.,0.));
#1814=UNCERTAINTY_MEASURE_WITH_UNIT(LENGTH_MEASURE(0.01),#1820,
'DISTANCE_ACCURACY_VALUE',
'Maximum model space distance between geometric entities at asserted c
onnectivities');
#1815=UNCERTAINTY_MEASURE_WITH_UNIT(LENGTH_MEASURE(0.01),#1820,
'DISTANCE_ACCURACY_VALUE',
'Maximum model space distance between geometric entities at asserted c
onnectivities');
#1816=UNCERTAINTY_MEASURE_WITH_UNIT(LENGTH_MEASURE(0.01),#1820,
'DISTANCE_ACCURACY_VALUE',
'Maximum model space distance between geometric entities at asserted c
onnectivities');
#1817=(
GEOMETRIC_REPRESENTATION_CONTEXT(3)
GLOBAL_UNCERTAINTY_ASSIGNED_CONTEXT((#1814))
GLOBAL_UNIT_ASSIGNED_CONTEXT((#1820,#1822,#1823))
REPRESENTATION_CONTEXT('','3D')
);
#1818=(
GEOMETRIC_REPRESENTATION_CONTEXT(3)
GLOBAL_UNCERTAINTY_ASSIGNED_CONTEXT((#1815))
GLOBAL_UNIT_ASSIGNED_CONTEXT((#1820,#1822,#1823))
REPRESENTATION_CONTEXT('','3D')
);
#1819=(
GEOMETRIC_REPRESENTATION_CONTEXT(3)
GLOBAL_UNCERTAINTY_ASSIGNED_CONTEXT((#1816))
GLOBAL_UNIT_ASSIGNED_CONTEXT((#1820,#1822,#1823))
REPRESENTATION_CONTEXT('','3D')
);
#1820=(
LENGTH_UNIT()
NAMED_UNIT(*)
SI_UNIT(.MILLI.,.METRE.)
);
#1821=(
LENGTH_UNIT()
NAMED_UNIT(*)
SI_UNIT($,.METRE.)
);
#1822=(
NAMED_UNIT(*)
PLANE_ANGLE_UNIT()
SI_UNIT($,.RADIAN.)
);
#1823=(
NAMED_UNIT(*)
SI_UNIT($,.STERADIAN.)
SOLID_ANGLE_UNIT()
);
#1824=SHAPE_DEFINITION_REPRESENTATION(#1826,#1829);
#1825=SHAPE_DEFINITION_REPRESENTATION(#1827,#1830);
#1826=PRODUCT_DEFINITION_SHAPE('',$,#1832);
#1827=PRODUCT_DEFINITION_SHAPE('',$,#1833);
#1828=PRODUCT_DEFINITION_SHAPE($,$,#14);
#1829=SHAPE_REPRESENTATION('',(#1110,#1200),#1817);
#1830=SHAPE_REPRESENTATION('',(#1111),#1818);
#1831=PRODUCT_DEFINITION_CONTEXT('part definition',#1839,'design');
#1832=PRODUCT_DEFINITION('2026-08-28-16-42-06-021','Hackpad',#1834,#1831);
#1833=PRODUCT_DEFINITION('2026-08-28-13-19-23-813','Component35',#1835,
#1831);
#1834=PRODUCT_DEFINITION_FORMATION('',$,#1841);
#1835=PRODUCT_DEFINITION_FORMATION('',$,#1842);
#1836=PRODUCT_RELATED_PRODUCT_CATEGORY('Hackpad','Hackpad',(#1841));
#1837=PRODUCT_RELATED_PRODUCT_CATEGORY('Component35','Component35',(#1842));
#1838=APPLICATION_PROTOCOL_DEFINITION('international standard',
'automotive_design',2009,#1839);
#1839=APPLICATION_CONTEXT(
'Core Data for Automotive Mechanical Design Process');
#1840=PRODUCT_CONTEXT('part definition',#1839,'mechanical');
#1841=PRODUCT('2026-08-28-16-42-06-021','Hackpad',
'KiCad electronic assembly',(#1840));
#1842=PRODUCT('2026-08-28-13-19-23-813','Component35',$,(#1840));
#1843=PRESENTATION_STYLE_ASSIGNMENT((#1847));
#1844=PRESENTATION_STYLE_ASSIGNMENT((#1848));
#1845=PRESENTATION_STYLE_ASSIGNMENT((#1849));
#1846=PRESENTATION_STYLE_ASSIGNMENT((#1850));
#1847=SURFACE_STYLE_USAGE(.BOTH.,#1851);
#1848=SURFACE_STYLE_USAGE(.BOTH.,#1852);
#1849=SURFACE_STYLE_USAGE(.BOTH.,#1853);
#1850=SURFACE_STYLE_USAGE(.BOTH.,#1854);
#1851=SURFACE_SIDE_STYLE('',(#1855));
#1852=SURFACE_SIDE_STYLE('',(#1856));
#1853=SURFACE_SIDE_STYLE('',(#1857));
#1854=SURFACE_SIDE_STYLE('',(#1858));
#1855=SURFACE_STYLE_FILL_AREA(#1859);
#1856=SURFACE_STYLE_FILL_AREA(#1860);
#1857=SURFACE_STYLE_FILL_AREA(#1861);
#1858=SURFACE_STYLE_FILL_AREA(#1862);
#1859=FILL_AREA_STYLE('Opaque(160,160,160)',(#1863));
#1860=FILL_AREA_STYLE('Steel - Satin',(#1864));
#1861=FILL_AREA_STYLE('ABS (White)',(#1865));
#1862=FILL_AREA_STYLE('Plastic - Translucent Glossy (White)',(#1866));
#1863=FILL_AREA_STYLE_COLOUR('Opaque(160,160,160)',#1867);
#1864=FILL_AREA_STYLE_COLOUR('Steel - Satin',#1868);
#1865=FILL_AREA_STYLE_COLOUR('ABS (White)',#1869);
#1866=FILL_AREA_STYLE_COLOUR('Plastic - Translucent Glossy (White)',#1870);
#1867=COLOUR_RGB('Opaque(160,160,160)',0.627450980392157,0.627450980392157,
0.627450980392157);
#1868=COLOUR_RGB('Steel - Satin',0.627450980392157,0.627450980392157,0.627450980392157);
#1869=COLOUR_RGB('ABS (White)',0.964705882352941,0.964705882352941,0.952941176470588);
#1870=COLOUR_RGB('Plastic - Translucent Glossy (White)',0.964705882352941,
0.964705882352941,0.952941176470588);
ENDSEC;
END-ISO-10303-21;
